ISO-10303-21;
HEADER;
/* Generated by software containing ST-Developer
 * from STEP Tools, Inc. (www.steptools.com) 
 */
/* OPTION: using custom renumber hook */

FILE_DESCRIPTION(
/* description */ ('STEP AP242 Edition 2',
'CAx-IF Rec.Pracs.---Representation and Presentation of Product Manufa
cturing Information (PMI)---4.0---2014-10-13',
'CAx-IF Rec.Pracs.---3D Tessellated Geometry---0.4---2014-09-14','2;1',
'CAx-IF Rec.Pracs.---User Defined Attributes---1.5---2016-08-15'),
/* implementation_level */ '2;1');

FILE_NAME(
/* name */ '6a67ca908163c21ead7857d4',
/* time_stamp */ '2026-07-27T21:16:00Z',
/* author */ (''),
/* organization */ (''),
/* preprocessor_version */ 'ST-DEVELOPER v20',
/* originating_system */ 'ONSHAPE BY PTC INC, 1.218',
/* authorisation */ '  ');

FILE_SCHEMA (('AP242_MANAGED_MODEL_BASED_3D_ENGINEERING_MIM_LF { 1 0 10303 442 3 1 4 }'));
ENDSEC;

DATA;
#10=CONTEXT_DEPENDENT_SHAPE_REPRESENTATION(#22,#1649);
#11=CONTEXT_DEPENDENT_SHAPE_REPRESENTATION(#23,#1650);
#12=CONTEXT_DEPENDENT_SHAPE_REPRESENTATION(#24,#1652);
#13=CONTEXT_DEPENDENT_SHAPE_REPRESENTATION(#25,#1653);
#14=CONTEXT_DEPENDENT_SHAPE_REPRESENTATION(#26,#1654);
#15=CONTEXT_DEPENDENT_SHAPE_REPRESENTATION(#27,#1655);
#16=NEXT_ASSEMBLY_USAGE_OCCURRENCE('NAUO1','Part 1','Part 1',#1656,#1657,
'');
#17=NEXT_ASSEMBLY_USAGE_OCCURRENCE('NAUO2','Part 1','Part 1',#1656,#1657,
'');
#18=NEXT_ASSEMBLY_USAGE_OCCURRENCE('NAUO3','Part 1','Part 1',#1656,#1658,
'');
#19=NEXT_ASSEMBLY_USAGE_OCCURRENCE('NAUO4','Part 1','Part 1',#1656,#1657,
'');
#20=NEXT_ASSEMBLY_USAGE_OCCURRENCE('NAUO5','Part 1','Part 1',#1656,#1657,
'');
#21=NEXT_ASSEMBLY_USAGE_OCCURRENCE('NAUO6','Part 1','Part 1',#1656,#1658,
'');
#22=(
REPRESENTATION_RELATIONSHIP(' ',' ',#943,#942)
REPRESENTATION_RELATIONSHIP_WITH_TRANSFORMATION(#28)
SHAPE_REPRESENTATION_RELATIONSHIP()
);
#23=(
REPRESENTATION_RELATIONSHIP(' ',' ',#943,#942)
REPRESENTATION_RELATIONSHIP_WITH_TRANSFORMATION(#29)
SHAPE_REPRESENTATION_RELATIONSHIP()
);
#24=(
REPRESENTATION_RELATIONSHIP(' ',' ',#944,#942)
REPRESENTATION_RELATIONSHIP_WITH_TRANSFORMATION(#30)
SHAPE_REPRESENTATION_RELATIONSHIP()
);
#25=(
REPRESENTATION_RELATIONSHIP(' ',' ',#943,#942)
REPRESENTATION_RELATIONSHIP_WITH_TRANSFORMATION(#31)
SHAPE_REPRESENTATION_RELATIONSHIP()
);
#26=(
REPRESENTATION_RELATIONSHIP(' ',' ',#943,#942)
REPRESENTATION_RELATIONSHIP_WITH_TRANSFORMATION(#32)
SHAPE_REPRESENTATION_RELATIONSHIP()
);
#27=(
REPRESENTATION_RELATIONSHIP(' ',' ',#944,#942)
REPRESENTATION_RELATIONSHIP_WITH_TRANSFORMATION(#33)
SHAPE_REPRESENTATION_RELATIONSHIP()
);
#28=ITEM_DEFINED_TRANSFORMATION(' ',' ',#945,#1053);
#29=ITEM_DEFINED_TRANSFORMATION(' ',' ',#945,#1054);
#30=ITEM_DEFINED_TRANSFORMATION(' ',' ',#945,#1061);
#31=ITEM_DEFINED_TRANSFORMATION(' ',' ',#945,#1062);
#32=ITEM_DEFINED_TRANSFORMATION(' ',' ',#945,#1063);
#33=ITEM_DEFINED_TRANSFORMATION(' ',' ',#945,#1064);
#34=SHAPE_REPRESENTATION_RELATIONSHIP('','',#943,#36);
#35=SHAPE_REPRESENTATION_RELATIONSHIP('','',#944,#37);
#36=ADVANCED_BREP_SHAPE_REPRESENTATION('',(#937),#1639);
#37=ADVANCED_BREP_SHAPE_REPRESENTATION('',(#938),#1640);
#38=SPHERICAL_SURFACE('',#987,0.001);
#39=SPHERICAL_SURFACE('',#990,0.001);
#40=SPHERICAL_SURFACE('',#1007,0.001);
#41=SPHERICAL_SURFACE('',#1009,0.001);
#42=SPHERICAL_SURFACE('',#1012,0.001);
#43=SPHERICAL_SURFACE('',#1015,0.001);
#44=SPHERICAL_SURFACE('',#1032,0.001);
#45=SPHERICAL_SURFACE('',#1034,0.001);
#46=SPHERICAL_SURFACE('',#1036,0.001);
#47=SPHERICAL_SURFACE('',#1038,0.001);
#48=SPHERICAL_SURFACE('',#1048,0.001);
#49=SPHERICAL_SURFACE('',#1050,0.001);
#50=TOROIDAL_SURFACE('',#968,0.002,0.001);
#51=TOROIDAL_SURFACE('',#971,0.002,0.001);
#52=TOROIDAL_SURFACE('',#985,0.002,0.001);
#53=TOROIDAL_SURFACE('',#993,0.002,0.001);
#54=CYLINDRICAL_SURFACE('',#965,0.001);
#55=CYLINDRICAL_SURFACE('',#974,0.001);
#56=CYLINDRICAL_SURFACE('',#976,0.001);
#57=CYLINDRICAL_SURFACE('',#978,0.001);
#58=CYLINDRICAL_SURFACE('',#980,0.001);
#59=CYLINDRICAL_SURFACE('',#982,0.001);
#60=CYLINDRICAL_SURFACE('',#995,0.001);
#61=CYLINDRICAL_SURFACE('',#997,0.001);
#62=CYLINDRICAL_SURFACE('',#999,0.001);
#63=CYLINDRICAL_SURFACE('',#1001,0.001);
#64=CYLINDRICAL_SURFACE('',#1003,0.001);
#65=CYLINDRICAL_SURFACE('',#1005,0.001);
#66=CYLINDRICAL_SURFACE('',#1017,0.001);
#67=CYLINDRICAL_SURFACE('',#1019,0.001);
#68=CYLINDRICAL_SURFACE('',#1021,0.001);
#69=CYLINDRICAL_SURFACE('',#1023,0.001);
#70=CYLINDRICAL_SURFACE('',#1026,0.001);
#71=CYLINDRICAL_SURFACE('',#1028,0.001);
#72=CYLINDRICAL_SURFACE('',#1030,0.001);
#73=CYLINDRICAL_SURFACE('',#1040,0.001);
#74=CYLINDRICAL_SURFACE('',#1042,0.001);
#75=CYLINDRICAL_SURFACE('',#1044,0.001);
#76=CYLINDRICAL_SURFACE('',#1046,0.001);
#77=CYLINDRICAL_SURFACE('',#1052,0.001);
#78=LINE('',#1382,#150);
#79=LINE('',#1386,#151);
#80=LINE('',#1388,#152);
#81=LINE('',#1390,#153);
#82=LINE('',#1392,#154);
#83=LINE('',#1394,#155);
#84=LINE('',#1396,#156);
#85=LINE('',#1398,#157);
#86=LINE('',#1400,#158);
#87=LINE('',#1403,#159);
#88=LINE('',#1405,#160);
#89=LINE('',#1407,#161);
#90=LINE('',#1411,#162);
#91=LINE('',#1413,#163);
#92=LINE('',#1415,#164);
#93=LINE('',#1417,#165);
#94=LINE('',#1419,#166);
#95=LINE('',#1421,#167);
#96=LINE('',#1423,#168);
#97=LINE('',#1427,#169);
#98=LINE('',#1429,#170);
#99=LINE('',#1432,#171);
#100=LINE('',#1434,#172);
#101=LINE('',#1436,#173);
#102=LINE('',#1438,#174);
#103=LINE('',#1441,#175);
#104=LINE('',#1443,#176);
#105=LINE('',#1445,#177);
#106=LINE('',#1447,#178);
#107=LINE('',#1450,#179);
#108=LINE('',#1452,#180);
#109=LINE('',#1454,#181);
#110=LINE('',#1456,#182);
#111=LINE('',#1459,#183);
#112=LINE('',#1461,#184);
#113=LINE('',#1463,#185);
#114=LINE('',#1465,#186);
#115=LINE('',#1468,#187);
#116=LINE('',#1470,#188);
#117=LINE('',#1472,#189);
#118=LINE('',#1474,#190);
#119=LINE('',#1476,#191);
#120=LINE('',#1478,#192);
#121=LINE('',#1480,#193);
#122=LINE('',#1482,#194);
#123=LINE('',#1484,#195);
#124=LINE('',#1486,#196);
#125=LINE('',#1488,#197);
#126=LINE('',#1491,#198);
#127=LINE('',#1494,#199);
#128=LINE('',#1496,#200);
#129=LINE('',#1498,#201);
#130=LINE('',#1500,#202);
#131=LINE('',#1503,#203);
#132=LINE('',#1505,#204);
#133=LINE('',#1507,#205);
#134=LINE('',#1509,#206);
#135=LINE('',#1512,#207);
#136=LINE('',#1514,#208);
#137=LINE('',#1516,#209);
#138=LINE('',#1608,#210);
#139=LINE('',#1611,#211);
#140=LINE('',#1613,#212);
#141=LINE('',#1615,#213);
#142=LINE('',#1617,#214);
#143=LINE('',#1619,#215);
#144=LINE('',#1621,#216);
#145=LINE('',#1623,#217);
#146=LINE('',#1625,#218);
#147=LINE('',#1627,#219);
#148=LINE('',#1629,#220);
#149=LINE('',#1630,#221);
#150=VECTOR('',#1071,1.);
#151=VECTOR('',#1074,1.);
#152=VECTOR('',#1075,1.);
#153=VECTOR('',#1076,1.);
#154=VECTOR('',#1077,1.);
#155=VECTOR('',#1078,1.);
#156=VECTOR('',#1079,1.);
#157=VECTOR('',#1080,1.);
#158=VECTOR('',#1083,1.);
#159=VECTOR('',#1084,1.);
#160=VECTOR('',#1085,1.);
#161=VECTOR('',#1086,1.);
#162=VECTOR('',#1089,1.);
#163=VECTOR('',#1090,1.);
#164=VECTOR('',#1091,1.);
#165=VECTOR('',#1092,1.);
#166=VECTOR('',#1093,1.);
#167=VECTOR('',#1094,1.);
#168=VECTOR('',#1095,1.);
#169=VECTOR('',#1098,1.);
#170=VECTOR('',#1101,1.);
#171=VECTOR('',#1102,1.);
#172=VECTOR('',#1103,1.);
#173=VECTOR('',#1104,1.);
#174=VECTOR('',#1107,1.);
#175=VECTOR('',#1108,1.);
#176=VECTOR('',#1109,1.);
#177=VECTOR('',#1110,1.);
#178=VECTOR('',#1113,1.);
#179=VECTOR('',#1114,1.);
#180=VECTOR('',#1115,1.);
#181=VECTOR('',#1116,1.);
#182=VECTOR('',#1119,1.);
#183=VECTOR('',#1120,1.);
#184=VECTOR('',#1121,1.);
#185=VECTOR('',#1122,1.);
#186=VECTOR('',#1125,1.);
#187=VECTOR('',#1126,1.);
#188=VECTOR('',#1127,1.);
#189=VECTOR('',#1128,1.);
#190=VECTOR('',#1131,1.);
#191=VECTOR('',#1132,1.);
#192=VECTOR('',#1133,1.);
#193=VECTOR('',#1136,1.);
#194=VECTOR('',#1137,1.);
#195=VECTOR('',#1140,1.);
#196=VECTOR('',#1141,1.);
#197=VECTOR('',#1144,1.);
#198=VECTOR('',#1149,1.);
#199=VECTOR('',#1150,1.);
#200=VECTOR('',#1151,1.);
#201=VECTOR('',#1152,1.);
#202=VECTOR('',#1155,1.);
#203=VECTOR('',#1156,1.);
#204=VECTOR('',#1157,1.);
#205=VECTOR('',#1158,1.);
#206=VECTOR('',#1161,1.);
#207=VECTOR('',#1162,1.);
#208=VECTOR('',#1163,1.);
#209=VECTOR('',#1164,1.);
#210=VECTOR('',#1347,1.);
#211=VECTOR('',#1348,1.);
#212=VECTOR('',#1349,1.);
#213=VECTOR('',#1350,1.);
#214=VECTOR('',#1353,1.);
#215=VECTOR('',#1354,1.);
#216=VECTOR('',#1355,1.);
#217=VECTOR('',#1358,1.);
#218=VECTOR('',#1359,1.);
#219=VECTOR('',#1360,1.);
#220=VECTOR('',#1363,1.);
#221=VECTOR('',#1364,1.);
#222=ORIENTED_EDGE('',*,*,#470,.F.);
#223=ORIENTED_EDGE('',*,*,#471,.T.);
#224=ORIENTED_EDGE('',*,*,#472,.F.);
#225=ORIENTED_EDGE('',*,*,#473,.T.);
#226=ORIENTED_EDGE('',*,*,#474,.T.);
#227=ORIENTED_EDGE('',*,*,#475,.T.);
#228=ORIENTED_EDGE('',*,*,#476,.T.);
#229=ORIENTED_EDGE('',*,*,#477,.T.);
#230=ORIENTED_EDGE('',*,*,#478,.T.);
#231=ORIENTED_EDGE('',*,*,#479,.T.);
#232=ORIENTED_EDGE('',*,*,#480,.F.);
#233=ORIENTED_EDGE('',*,*,#481,.T.);
#234=ORIENTED_EDGE('',*,*,#482,.T.);
#235=ORIENTED_EDGE('',*,*,#483,.F.);
#236=ORIENTED_EDGE('',*,*,#484,.F.);
#237=ORIENTED_EDGE('',*,*,#485,.T.);
#238=ORIENTED_EDGE('',*,*,#486,.T.);
#239=ORIENTED_EDGE('',*,*,#487,.T.);
#240=ORIENTED_EDGE('',*,*,#488,.T.);
#241=ORIENTED_EDGE('',*,*,#489,.T.);
#242=ORIENTED_EDGE('',*,*,#490,.T.);
#243=ORIENTED_EDGE('',*,*,#491,.T.);
#244=ORIENTED_EDGE('',*,*,#492,.F.);
#245=ORIENTED_EDGE('',*,*,#493,.T.);
#246=ORIENTED_EDGE('',*,*,#494,.T.);
#247=ORIENTED_EDGE('',*,*,#495,.T.);
#248=ORIENTED_EDGE('',*,*,#496,.T.);
#249=ORIENTED_EDGE('',*,*,#497,.T.);
#250=ORIENTED_EDGE('',*,*,#498,.T.);
#251=ORIENTED_EDGE('',*,*,#499,.T.);
#252=ORIENTED_EDGE('',*,*,#500,.T.);
#253=ORIENTED_EDGE('',*,*,#501,.T.);
#254=ORIENTED_EDGE('',*,*,#502,.T.);
#255=ORIENTED_EDGE('',*,*,#503,.T.);
#256=ORIENTED_EDGE('',*,*,#504,.T.);
#257=ORIENTED_EDGE('',*,*,#505,.T.);
#258=ORIENTED_EDGE('',*,*,#506,.T.);
#259=ORIENTED_EDGE('',*,*,#507,.T.);
#260=ORIENTED_EDGE('',*,*,#508,.T.);
#261=ORIENTED_EDGE('',*,*,#509,.T.);
#262=ORIENTED_EDGE('',*,*,#510,.T.);
#263=ORIENTED_EDGE('',*,*,#511,.T.);
#264=ORIENTED_EDGE('',*,*,#512,.T.);
#265=ORIENTED_EDGE('',*,*,#513,.T.);
#266=ORIENTED_EDGE('',*,*,#481,.F.);
#267=ORIENTED_EDGE('',*,*,#514,.F.);
#268=ORIENTED_EDGE('',*,*,#515,.T.);
#269=ORIENTED_EDGE('',*,*,#516,.T.);
#270=ORIENTED_EDGE('',*,*,#480,.T.);
#271=ORIENTED_EDGE('',*,*,#517,.F.);
#272=ORIENTED_EDGE('',*,*,#518,.F.);
#273=ORIENTED_EDGE('',*,*,#514,.T.);
#274=ORIENTED_EDGE('',*,*,#483,.T.);
#275=ORIENTED_EDGE('',*,*,#519,.F.);
#276=ORIENTED_EDGE('',*,*,#520,.F.);
#277=ORIENTED_EDGE('',*,*,#517,.T.);
#278=ORIENTED_EDGE('',*,*,#482,.F.);
#279=ORIENTED_EDGE('',*,*,#516,.F.);
#280=ORIENTED_EDGE('',*,*,#521,.T.);
#281=ORIENTED_EDGE('',*,*,#519,.T.);
#282=ORIENTED_EDGE('',*,*,#515,.F.);
#283=ORIENTED_EDGE('',*,*,#518,.T.);
#284=ORIENTED_EDGE('',*,*,#520,.T.);
#285=ORIENTED_EDGE('',*,*,#521,.F.);
#286=ORIENTED_EDGE('',*,*,#522,.T.);
#287=ORIENTED_EDGE('',*,*,#523,.T.);
#288=ORIENTED_EDGE('',*,*,#524,.T.);
#289=ORIENTED_EDGE('',*,*,#525,.T.);
#290=ORIENTED_EDGE('',*,*,#526,.T.);
#291=ORIENTED_EDGE('',*,*,#527,.T.);
#292=ORIENTED_EDGE('',*,*,#528,.T.);
#293=ORIENTED_EDGE('',*,*,#529,.T.);
#294=ORIENTED_EDGE('',*,*,#530,.T.);
#295=ORIENTED_EDGE('',*,*,#531,.T.);
#296=ORIENTED_EDGE('',*,*,#532,.T.);
#297=ORIENTED_EDGE('',*,*,#533,.T.);
#298=ORIENTED_EDGE('',*,*,#534,.F.);
#299=ORIENTED_EDGE('',*,*,#471,.F.);
#300=ORIENTED_EDGE('',*,*,#535,.F.);
#301=ORIENTED_EDGE('',*,*,#525,.F.);
#302=ORIENTED_EDGE('',*,*,#472,.T.);
#303=ORIENTED_EDGE('',*,*,#534,.T.);
#304=ORIENTED_EDGE('',*,*,#536,.F.);
#305=ORIENTED_EDGE('',*,*,#537,.F.);
#306=ORIENTED_EDGE('',*,*,#535,.T.);
#307=ORIENTED_EDGE('',*,*,#470,.T.);
#308=ORIENTED_EDGE('',*,*,#538,.F.);
#309=ORIENTED_EDGE('',*,*,#539,.F.);
#310=ORIENTED_EDGE('',*,*,#536,.T.);
#311=ORIENTED_EDGE('',*,*,#524,.F.);
#312=ORIENTED_EDGE('',*,*,#540,.F.);
#313=ORIENTED_EDGE('',*,*,#526,.F.);
#314=ORIENTED_EDGE('',*,*,#537,.T.);
#315=ORIENTED_EDGE('',*,*,#529,.F.);
#316=ORIENTED_EDGE('',*,*,#541,.F.);
#317=ORIENTED_EDGE('',*,*,#473,.F.);
#318=ORIENTED_EDGE('',*,*,#538,.T.);
#319=ORIENTED_EDGE('',*,*,#479,.F.);
#320=ORIENTED_EDGE('',*,*,#542,.F.);
#321=ORIENTED_EDGE('',*,*,#533,.F.);
#322=ORIENTED_EDGE('',*,*,#539,.T.);
#323=ORIENTED_EDGE('',*,*,#532,.F.);
#324=ORIENTED_EDGE('',*,*,#543,.F.);
#325=ORIENTED_EDGE('',*,*,#522,.F.);
#326=ORIENTED_EDGE('',*,*,#544,.F.);
#327=ORIENTED_EDGE('',*,*,#493,.F.);
#328=ORIENTED_EDGE('',*,*,#545,.F.);
#329=ORIENTED_EDGE('',*,*,#523,.F.);
#330=ORIENTED_EDGE('',*,*,#545,.T.);
#331=ORIENTED_EDGE('',*,*,#492,.T.);
#332=ORIENTED_EDGE('',*,*,#546,.F.);
#333=ORIENTED_EDGE('',*,*,#540,.T.);
#334=ORIENTED_EDGE('',*,*,#547,.F.);
#335=ORIENTED_EDGE('',*,*,#541,.T.);
#336=ORIENTED_EDGE('',*,*,#548,.F.);
#337=ORIENTED_EDGE('',*,*,#549,.F.);
#338=ORIENTED_EDGE('',*,*,#542,.T.);
#339=ORIENTED_EDGE('',*,*,#550,.F.);
#340=ORIENTED_EDGE('',*,*,#544,.T.);
#341=ORIENTED_EDGE('',*,*,#543,.T.);
#342=ORIENTED_EDGE('',*,*,#551,.F.);
#343=ORIENTED_EDGE('',*,*,#484,.T.);
#344=ORIENTED_EDGE('',*,*,#546,.T.);
#345=ORIENTED_EDGE('',*,*,#491,.F.);
#346=ORIENTED_EDGE('',*,*,#552,.F.);
#347=ORIENTED_EDGE('',*,*,#527,.F.);
#348=ORIENTED_EDGE('',*,*,#548,.T.);
#349=ORIENTED_EDGE('',*,*,#528,.F.);
#350=ORIENTED_EDGE('',*,*,#553,.F.);
#351=ORIENTED_EDGE('',*,*,#506,.F.);
#352=ORIENTED_EDGE('',*,*,#547,.T.);
#353=ORIENTED_EDGE('',*,*,#509,.F.);
#354=ORIENTED_EDGE('',*,*,#554,.F.);
#355=ORIENTED_EDGE('',*,*,#474,.F.);
#356=ORIENTED_EDGE('',*,*,#550,.T.);
#357=ORIENTED_EDGE('',*,*,#478,.F.);
#358=ORIENTED_EDGE('',*,*,#555,.F.);
#359=ORIENTED_EDGE('',*,*,#497,.F.);
#360=ORIENTED_EDGE('',*,*,#549,.T.);
#361=ORIENTED_EDGE('',*,*,#496,.F.);
#362=ORIENTED_EDGE('',*,*,#556,.F.);
#363=ORIENTED_EDGE('',*,*,#530,.F.);
#364=ORIENTED_EDGE('',*,*,#551,.T.);
#365=ORIENTED_EDGE('',*,*,#531,.F.);
#366=ORIENTED_EDGE('',*,*,#557,.F.);
#367=ORIENTED_EDGE('',*,*,#485,.F.);
#368=ORIENTED_EDGE('',*,*,#553,.T.);
#369=ORIENTED_EDGE('',*,*,#552,.T.);
#370=ORIENTED_EDGE('',*,*,#558,.F.);
#371=ORIENTED_EDGE('',*,*,#559,.F.);
#372=ORIENTED_EDGE('',*,*,#554,.T.);
#373=ORIENTED_EDGE('',*,*,#560,.F.);
#374=ORIENTED_EDGE('',*,*,#561,.F.);
#375=ORIENTED_EDGE('',*,*,#555,.T.);
#376=ORIENTED_EDGE('',*,*,#562,.F.);
#377=ORIENTED_EDGE('',*,*,#557,.T.);
#378=ORIENTED_EDGE('',*,*,#556,.T.);
#379=ORIENTED_EDGE('',*,*,#563,.F.);
#380=ORIENTED_EDGE('',*,*,#558,.T.);
#381=ORIENTED_EDGE('',*,*,#490,.F.);
#382=ORIENTED_EDGE('',*,*,#564,.F.);
#383=ORIENTED_EDGE('',*,*,#507,.F.);
#384=ORIENTED_EDGE('',*,*,#560,.T.);
#385=ORIENTED_EDGE('',*,*,#508,.F.);
#386=ORIENTED_EDGE('',*,*,#565,.F.);
#387=ORIENTED_EDGE('',*,*,#503,.F.);
#388=ORIENTED_EDGE('',*,*,#559,.T.);
#389=ORIENTED_EDGE('',*,*,#502,.F.);
#390=ORIENTED_EDGE('',*,*,#566,.F.);
#391=ORIENTED_EDGE('',*,*,#475,.F.);
#392=ORIENTED_EDGE('',*,*,#567,.F.);
#393=ORIENTED_EDGE('',*,*,#476,.F.);
#394=ORIENTED_EDGE('',*,*,#568,.F.);
#395=ORIENTED_EDGE('',*,*,#501,.F.);
#396=ORIENTED_EDGE('',*,*,#562,.T.);
#397=ORIENTED_EDGE('',*,*,#477,.F.);
#398=ORIENTED_EDGE('',*,*,#569,.F.);
#399=ORIENTED_EDGE('',*,*,#513,.F.);
#400=ORIENTED_EDGE('',*,*,#561,.T.);
#401=ORIENTED_EDGE('',*,*,#512,.F.);
#402=ORIENTED_EDGE('',*,*,#570,.F.);
#403=ORIENTED_EDGE('',*,*,#494,.F.);
#404=ORIENTED_EDGE('',*,*,#563,.T.);
#405=ORIENTED_EDGE('',*,*,#495,.F.);
#406=ORIENTED_EDGE('',*,*,#571,.F.);
#407=ORIENTED_EDGE('',*,*,#486,.F.);
#408=ORIENTED_EDGE('',*,*,#565,.T.);
#409=ORIENTED_EDGE('',*,*,#564,.T.);
#410=ORIENTED_EDGE('',*,*,#572,.F.);
#411=ORIENTED_EDGE('',*,*,#568,.T.);
#412=ORIENTED_EDGE('',*,*,#566,.T.);
#413=ORIENTED_EDGE('',*,*,#573,.F.);
#414=ORIENTED_EDGE('',*,*,#569,.T.);
#415=ORIENTED_EDGE('',*,*,#567,.T.);
#416=ORIENTED_EDGE('',*,*,#574,.F.);
#417=ORIENTED_EDGE('',*,*,#571,.T.);
#418=ORIENTED_EDGE('',*,*,#570,.T.);
#419=ORIENTED_EDGE('',*,*,#575,.F.);
#420=ORIENTED_EDGE('',*,*,#572,.T.);
#421=ORIENTED_EDGE('',*,*,#489,.F.);
#422=ORIENTED_EDGE('',*,*,#576,.F.);
#423=ORIENTED_EDGE('',*,*,#504,.F.);
#424=ORIENTED_EDGE('',*,*,#573,.T.);
#425=ORIENTED_EDGE('',*,*,#505,.F.);
#426=ORIENTED_EDGE('',*,*,#577,.F.);
#427=ORIENTED_EDGE('',*,*,#498,.F.);
#428=ORIENTED_EDGE('',*,*,#574,.T.);
#429=ORIENTED_EDGE('',*,*,#500,.F.);
#430=ORIENTED_EDGE('',*,*,#578,.F.);
#431=ORIENTED_EDGE('',*,*,#510,.F.);
#432=ORIENTED_EDGE('',*,*,#575,.T.);
#433=ORIENTED_EDGE('',*,*,#511,.F.);
#434=ORIENTED_EDGE('',*,*,#579,.F.);
#435=ORIENTED_EDGE('',*,*,#487,.F.);
#436=ORIENTED_EDGE('',*,*,#577,.T.);
#437=ORIENTED_EDGE('',*,*,#576,.T.);
#438=ORIENTED_EDGE('',*,*,#580,.F.);
#439=ORIENTED_EDGE('',*,*,#579,.T.);
#440=ORIENTED_EDGE('',*,*,#578,.T.);
#441=ORIENTED_EDGE('',*,*,#581,.F.);
#442=ORIENTED_EDGE('',*,*,#580,.T.);
#443=ORIENTED_EDGE('',*,*,#488,.F.);
#444=ORIENTED_EDGE('',*,*,#581,.T.);
#445=ORIENTED_EDGE('',*,*,#499,.F.);
#446=ORIENTED_EDGE('',*,*,#582,.F.);
#447=ORIENTED_EDGE('',*,*,#583,.F.);
#448=ORIENTED_EDGE('',*,*,#584,.T.);
#449=ORIENTED_EDGE('',*,*,#585,.T.);
#450=ORIENTED_EDGE('',*,*,#586,.T.);
#451=ORIENTED_EDGE('',*,*,#587,.F.);
#452=ORIENTED_EDGE('',*,*,#588,.F.);
#453=ORIENTED_EDGE('',*,*,#583,.T.);
#454=ORIENTED_EDGE('',*,*,#589,.T.);
#455=ORIENTED_EDGE('',*,*,#590,.F.);
#456=ORIENTED_EDGE('',*,*,#591,.F.);
#457=ORIENTED_EDGE('',*,*,#587,.T.);
#458=ORIENTED_EDGE('',*,*,#592,.F.);
#459=ORIENTED_EDGE('',*,*,#585,.F.);
#460=ORIENTED_EDGE('',*,*,#593,.T.);
#461=ORIENTED_EDGE('',*,*,#590,.T.);
#462=ORIENTED_EDGE('',*,*,#584,.F.);
#463=ORIENTED_EDGE('',*,*,#588,.T.);
#464=ORIENTED_EDGE('',*,*,#591,.T.);
#465=ORIENTED_EDGE('',*,*,#593,.F.);
#466=ORIENTED_EDGE('',*,*,#582,.T.);
#467=ORIENTED_EDGE('',*,*,#592,.T.);
#468=ORIENTED_EDGE('',*,*,#589,.F.);
#469=ORIENTED_EDGE('',*,*,#586,.F.);
#470=EDGE_CURVE('',#594,#595,#662,.F.);
#471=EDGE_CURVE('',#594,#596,#78,.F.);
#472=EDGE_CURVE('',#597,#596,#663,.F.);
#473=EDGE_CURVE('',#597,#598,#79,.T.);
#474=EDGE_CURVE('',#598,#599,#80,.F.);
#475=EDGE_CURVE('',#599,#600,#81,.F.);
#476=EDGE_CURVE('',#600,#601,#82,.T.);
#477=EDGE_CURVE('',#601,#602,#83,.T.);
#478=EDGE_CURVE('',#602,#603,#84,.F.);
#479=EDGE_CURVE('',#603,#595,#85,.F.);
#480=EDGE_CURVE('',#604,#605,#86,.T.);
#481=EDGE_CURVE('',#604,#606,#87,.T.);
#482=EDGE_CURVE('',#606,#607,#88,.T.);
#483=EDGE_CURVE('',#605,#607,#89,.T.);
#484=EDGE_CURVE('',#608,#609,#664,.T.);
#485=EDGE_CURVE('',#608,#610,#90,.T.);
#486=EDGE_CURVE('',#610,#611,#91,.T.);
#487=EDGE_CURVE('',#611,#612,#92,.F.);
#488=EDGE_CURVE('',#612,#613,#93,.F.);
#489=EDGE_CURVE('',#613,#614,#94,.T.);
#490=EDGE_CURVE('',#614,#615,#95,.T.);
#491=EDGE_CURVE('',#615,#616,#96,.F.);
#492=EDGE_CURVE('',#617,#616,#665,.T.);
#493=EDGE_CURVE('',#617,#609,#97,.T.);
#494=EDGE_CURVE('',#618,#619,#98,.F.);
#495=EDGE_CURVE('',#619,#620,#99,.F.);
#496=EDGE_CURVE('',#620,#621,#100,.F.);
#497=EDGE_CURVE('',#621,#618,#101,.T.);
#498=EDGE_CURVE('',#622,#623,#102,.F.);
#499=EDGE_CURVE('',#623,#624,#103,.T.);
#500=EDGE_CURVE('',#624,#625,#104,.T.);
#501=EDGE_CURVE('',#625,#622,#105,.F.);
#502=EDGE_CURVE('',#626,#627,#106,.T.);
#503=EDGE_CURVE('',#627,#628,#107,.F.);
#504=EDGE_CURVE('',#628,#629,#108,.F.);
#505=EDGE_CURVE('',#629,#626,#109,.T.);
#506=EDGE_CURVE('',#630,#631,#110,.T.);
#507=EDGE_CURVE('',#631,#632,#111,.F.);
#508=EDGE_CURVE('',#632,#633,#112,.T.);
#509=EDGE_CURVE('',#633,#630,#113,.T.);
#510=EDGE_CURVE('',#634,#635,#114,.F.);
#511=EDGE_CURVE('',#635,#636,#115,.T.);
#512=EDGE_CURVE('',#636,#637,#116,.T.);
#513=EDGE_CURVE('',#637,#634,#117,.F.);
#514=EDGE_CURVE('',#638,#604,#118,.T.);
#515=EDGE_CURVE('',#638,#639,#119,.T.);
#516=EDGE_CURVE('',#639,#606,#120,.T.);
#517=EDGE_CURVE('',#640,#605,#121,.T.);
#518=EDGE_CURVE('',#638,#640,#122,.T.);
#519=EDGE_CURVE('',#641,#607,#123,.T.);
#520=EDGE_CURVE('',#640,#641,#124,.T.);
#521=EDGE_CURVE('',#639,#641,#125,.T.);
#522=EDGE_CURVE('',#642,#643,#126,.T.);
#523=EDGE_CURVE('',#643,#644,#127,.F.);
#524=EDGE_CURVE('',#644,#645,#128,.F.);
#525=EDGE_CURVE('',#645,#642,#129,.T.);
#526=EDGE_CURVE('',#646,#647,#130,.T.);
#527=EDGE_CURVE('',#647,#648,#131,.T.);
#528=EDGE_CURVE('',#648,#649,#132,.F.);
#529=EDGE_CURVE('',#649,#646,#133,.F.);
#530=EDGE_CURVE('',#650,#651,#134,.T.);
#531=EDGE_CURVE('',#651,#652,#135,.F.);
#532=EDGE_CURVE('',#652,#653,#136,.F.);
#533=EDGE_CURVE('',#653,#650,#137,.T.);
#534=EDGE_CURVE('',#596,#645,#666,.T.);
#535=EDGE_CURVE('',#642,#594,#667,.T.);
#536=EDGE_CURVE('',#646,#645,#668,.F.);
#537=EDGE_CURVE('',#597,#646,#669,.F.);
#538=EDGE_CURVE('',#653,#595,#670,.F.);
#539=EDGE_CURVE('',#642,#653,#671,.F.);
#540=EDGE_CURVE('',#647,#644,#672,.F.);
#541=EDGE_CURVE('',#598,#649,#673,.T.);
#542=EDGE_CURVE('',#650,#603,#674,.T.);
#543=EDGE_CURVE('',#643,#652,#675,.F.);
#544=EDGE_CURVE('',#609,#643,#676,.T.);
#545=EDGE_CURVE('',#644,#617,#677,.T.);
#546=EDGE_CURVE('',#647,#616,#678,.F.);
#547=EDGE_CURVE('',#598,#630,#679,.F.);
#548=EDGE_CURVE('',#630,#649,#680,.F.);
#549=EDGE_CURVE('',#650,#621,#681,.F.);
#550=EDGE_CURVE('',#621,#603,#682,.F.);
#551=EDGE_CURVE('',#608,#652,#683,.F.);
#552=EDGE_CURVE('',#648,#615,#684,.T.);
#553=EDGE_CURVE('',#631,#648,#685,.T.);
#554=EDGE_CURVE('',#599,#633,#686,.T.);
#555=EDGE_CURVE('',#618,#602,#687,.T.);
#556=EDGE_CURVE('',#651,#620,#688,.T.);
#557=EDGE_CURVE('',#610,#651,#689,.T.);
#558=EDGE_CURVE('',#631,#615,#690,.F.);
#559=EDGE_CURVE('',#599,#627,#691,.F.);
#560=EDGE_CURVE('',#627,#633,#692,.F.);
#561=EDGE_CURVE('',#618,#637,#693,.F.);
#562=EDGE_CURVE('',#637,#602,#694,.F.);
#563=EDGE_CURVE('',#610,#620,#695,.F.);
#564=EDGE_CURVE('',#632,#614,#696,.T.);
#565=EDGE_CURVE('',#628,#632,#697,.T.);
#566=EDGE_CURVE('',#600,#626,#698,.T.);
#567=EDGE_CURVE('',#601,#625,#699,.T.);
#568=EDGE_CURVE('',#622,#600,#700,.T.);
#569=EDGE_CURVE('',#634,#601,#701,.T.);
#570=EDGE_CURVE('',#619,#636,#702,.T.);
#571=EDGE_CURVE('',#611,#619,#703,.T.);
#572=EDGE_CURVE('',#628,#614,#704,.F.);
#573=EDGE_CURVE('',#622,#626,#705,.F.);
#574=EDGE_CURVE('',#634,#625,#706,.F.);
#575=EDGE_CURVE('',#611,#636,#707,.F.);
#576=EDGE_CURVE('',#629,#613,#708,.T.);
#577=EDGE_CURVE('',#623,#629,#709,.T.);
#578=EDGE_CURVE('',#635,#624,#710,.T.);
#579=EDGE_CURVE('',#612,#635,#711,.T.);
#580=EDGE_CURVE('',#623,#613,#712,.F.);
#581=EDGE_CURVE('',#612,#624,#713,.F.);
#582=EDGE_CURVE('',#654,#655,#138,.T.);
#583=EDGE_CURVE('',#656,#654,#139,.T.);
#584=EDGE_CURVE('',#656,#657,#140,.T.);
#585=EDGE_CURVE('',#657,#655,#141,.T.);
#586=EDGE_CURVE('',#654,#658,#142,.T.);
#587=EDGE_CURVE('',#659,#658,#143,.T.);
#588=EDGE_CURVE('',#656,#659,#144,.T.);
#589=EDGE_CURVE('',#658,#660,#145,.T.);
#590=EDGE_CURVE('',#661,#660,#146,.T.);
#591=EDGE_CURVE('',#659,#661,#147,.T.);
#592=EDGE_CURVE('',#655,#660,#148,.T.);
#593=EDGE_CURVE('',#657,#661,#149,.T.);
#594=VERTEX_POINT('',#1380);
#595=VERTEX_POINT('',#1381);
#596=VERTEX_POINT('',#1383);
#597=VERTEX_POINT('',#1385);
#598=VERTEX_POINT('',#1387);
#599=VERTEX_POINT('',#1389);
#600=VERTEX_POINT('',#1391);
#601=VERTEX_POINT('',#1393);
#602=VERTEX_POINT('',#1395);
#603=VERTEX_POINT('',#1397);
#604=VERTEX_POINT('',#1401);
#605=VERTEX_POINT('',#1402);
#606=VERTEX_POINT('',#1404);
#607=VERTEX_POINT('',#1406);
#608=VERTEX_POINT('',#1409);
#609=VERTEX_POINT('',#1410);
#610=VERTEX_POINT('',#1412);
#611=VERTEX_POINT('',#1414);
#612=VERTEX_POINT('',#1416);
#613=VERTEX_POINT('',#1418);
#614=VERTEX_POINT('',#1420);
#615=VERTEX_POINT('',#1422);
#616=VERTEX_POINT('',#1424);
#617=VERTEX_POINT('',#1426);
#618=VERTEX_POINT('',#1430);
#619=VERTEX_POINT('',#1431);
#620=VERTEX_POINT('',#1433);
#621=VERTEX_POINT('',#1435);
#622=VERTEX_POINT('',#1439);
#623=VERTEX_POINT('',#1440);
#624=VERTEX_POINT('',#1442);
#625=VERTEX_POINT('',#1444);
#626=VERTEX_POINT('',#1448);
#627=VERTEX_POINT('',#1449);
#628=VERTEX_POINT('',#1451);
#629=VERTEX_POINT('',#1453);
#630=VERTEX_POINT('',#1457);
#631=VERTEX_POINT('',#1458);
#632=VERTEX_POINT('',#1460);
#633=VERTEX_POINT('',#1462);
#634=VERTEX_POINT('',#1466);
#635=VERTEX_POINT('',#1467);
#636=VERTEX_POINT('',#1469);
#637=VERTEX_POINT('',#1471);
#638=VERTEX_POINT('',#1475);
#639=VERTEX_POINT('',#1477);
#640=VERTEX_POINT('',#1481);
#641=VERTEX_POINT('',#1485);
#642=VERTEX_POINT('',#1492);
#643=VERTEX_POINT('',#1493);
#644=VERTEX_POINT('',#1495);
#645=VERTEX_POINT('',#1497);
#646=VERTEX_POINT('',#1501);
#647=VERTEX_POINT('',#1502);
#648=VERTEX_POINT('',#1504);
#649=VERTEX_POINT('',#1506);
#650=VERTEX_POINT('',#1510);
#651=VERTEX_POINT('',#1511);
#652=VERTEX_POINT('',#1513);
#653=VERTEX_POINT('',#1515);
#654=VERTEX_POINT('',#1609);
#655=VERTEX_POINT('',#1610);
#656=VERTEX_POINT('',#1612);
#657=VERTEX_POINT('',#1614);
#658=VERTEX_POINT('',#1618);
#659=VERTEX_POINT('',#1620);
#660=VERTEX_POINT('',#1624);
#661=VERTEX_POINT('',#1626);
#662=CIRCLE('',#947,0.002);
#663=CIRCLE('',#948,0.002);
#664=CIRCLE('',#950,0.002);
#665=CIRCLE('',#951,0.002);
#666=CIRCLE('',#966,0.001);
#667=CIRCLE('',#967,0.001);
#668=CIRCLE('',#969,0.001);
#669=CIRCLE('',#970,0.001);
#670=CIRCLE('',#972,0.001);
#671=CIRCLE('',#973,0.001);
#672=CIRCLE('',#975,0.001);
#673=CIRCLE('',#977,0.001);
#674=CIRCLE('',#979,0.001);
#675=CIRCLE('',#981,0.001);
#676=CIRCLE('',#983,0.001);
#677=CIRCLE('',#984,0.001);
#678=CIRCLE('',#986,0.001);
#679=CIRCLE('',#988,0.001);
#680=CIRCLE('',#989,0.001);
#681=CIRCLE('',#991,0.001);
#682=CIRCLE('',#992,0.001);
#683=CIRCLE('',#994,0.001);
#684=CIRCLE('',#996,0.001);
#685=CIRCLE('',#998,0.001);
#686=CIRCLE('',#1000,0.001);
#687=CIRCLE('',#1002,0.001);
#688=CIRCLE('',#1004,0.001);
#689=CIRCLE('',#1006,0.001);
#690=CIRCLE('',#1008,0.001);
#691=CIRCLE('',#1010,0.001);
#692=CIRCLE('',#1011,0.001);
#693=CIRCLE('',#1013,0.001);
#694=CIRCLE('',#1014,0.001);
#695=CIRCLE('',#1016,0.001);
#696=CIRCLE('',#1018,0.001);
#697=CIRCLE('',#1020,0.001);
#698=CIRCLE('',#1022,0.001);
#699=CIRCLE('',#1024,0.001);
#700=CIRCLE('',#1025,0.001);
#701=CIRCLE('',#1027,0.001);
#702=CIRCLE('',#1029,0.001);
#703=CIRCLE('',#1031,0.001);
#704=CIRCLE('',#1033,0.001);
#705=CIRCLE('',#1035,0.001);
#706=CIRCLE('',#1037,0.001);
#707=CIRCLE('',#1039,0.001);
#708=CIRCLE('',#1041,0.001);
#709=CIRCLE('',#1043,0.001);
#710=CIRCLE('',#1045,0.001);
#711=CIRCLE('',#1047,0.001);
#712=CIRCLE('',#1049,0.001);
#713=CIRCLE('',#1051,0.001);
#714=EDGE_LOOP('',(#222,#223,#224,#225,#226,#227,#228,#229,#230,#231));
#715=EDGE_LOOP('',(#232,#233,#234,#235));
#716=EDGE_LOOP('',(#236,#237,#238,#239,#240,#241,#242,#243,#244,#245));
#717=EDGE_LOOP('',(#246,#247,#248,#249));
#718=EDGE_LOOP('',(#250,#251,#252,#253));
#719=EDGE_LOOP('',(#254,#255,#256,#257));
#720=EDGE_LOOP('',(#258,#259,#260,#261));
#721=EDGE_LOOP('',(#262,#263,#264,#265));
#722=EDGE_LOOP('',(#266,#267,#268,#269));
#723=EDGE_LOOP('',(#270,#271,#272,#273));
#724=EDGE_LOOP('',(#274,#275,#276,#277));
#725=EDGE_LOOP('',(#278,#279,#280,#281));
#726=EDGE_LOOP('',(#282,#283,#284,#285));
#727=EDGE_LOOP('',(#286,#287,#288,#289));
#728=EDGE_LOOP('',(#290,#291,#292,#293));
#729=EDGE_LOOP('',(#294,#295,#296,#297));
#730=EDGE_LOOP('',(#298,#299,#300,#301));
#731=EDGE_LOOP('',(#302,#303,#304,#305));
#732=EDGE_LOOP('',(#306,#307,#308,#309));
#733=EDGE_LOOP('',(#310,#311,#312,#313));
#734=EDGE_LOOP('',(#314,#315,#316,#317));
#735=EDGE_LOOP('',(#318,#319,#320,#321));
#736=EDGE_LOOP('',(#322,#323,#324,#325));
#737=EDGE_LOOP('',(#326,#327,#328,#329));
#738=EDGE_LOOP('',(#330,#331,#332,#333));
#739=EDGE_LOOP('',(#334,#335,#336));
#740=EDGE_LOOP('',(#337,#338,#339));
#741=EDGE_LOOP('',(#340,#341,#342,#343));
#742=EDGE_LOOP('',(#344,#345,#346,#347));
#743=EDGE_LOOP('',(#348,#349,#350,#351));
#744=EDGE_LOOP('',(#352,#353,#354,#355));
#745=EDGE_LOOP('',(#356,#357,#358,#359));
#746=EDGE_LOOP('',(#360,#361,#362,#363));
#747=EDGE_LOOP('',(#364,#365,#366,#367));
#748=EDGE_LOOP('',(#368,#369,#370));
#749=EDGE_LOOP('',(#371,#372,#373));
#750=EDGE_LOOP('',(#374,#375,#376));
#751=EDGE_LOOP('',(#377,#378,#379));
#752=EDGE_LOOP('',(#380,#381,#382,#383));
#753=EDGE_LOOP('',(#384,#385,#386,#387));
#754=EDGE_LOOP('',(#388,#389,#390,#391));
#755=EDGE_LOOP('',(#392,#393,#394,#395));
#756=EDGE_LOOP('',(#396,#397,#398,#399));
#757=EDGE_LOOP('',(#400,#401,#402,#403));
#758=EDGE_LOOP('',(#404,#405,#406,#407));
#759=EDGE_LOOP('',(#408,#409,#410));
#760=EDGE_LOOP('',(#411,#412,#413));
#761=EDGE_LOOP('',(#414,#415,#416));
#762=EDGE_LOOP('',(#417,#418,#419));
#763=EDGE_LOOP('',(#420,#421,#422,#423));
#764=EDGE_LOOP('',(#424,#425,#426,#427));
#765=EDGE_LOOP('',(#428,#429,#430,#431));
#766=EDGE_LOOP('',(#432,#433,#434,#435));
#767=EDGE_LOOP('',(#436,#437,#438));
#768=EDGE_LOOP('',(#439,#440,#441));
#769=EDGE_LOOP('',(#442,#443,#444,#445));
#770=EDGE_LOOP('',(#446,#447,#448,#449));
#771=EDGE_LOOP('',(#450,#451,#452,#453));
#772=EDGE_LOOP('',(#454,#455,#456,#457));
#773=EDGE_LOOP('',(#458,#459,#460,#461));
#774=EDGE_LOOP('',(#462,#463,#464,#465));
#775=EDGE_LOOP('',(#466,#467,#468,#469));
#776=FACE_BOUND('',#714,.T.);
#777=FACE_BOUND('',#715,.T.);
#778=FACE_BOUND('',#716,.T.);
#779=FACE_BOUND('',#717,.T.);
#780=FACE_BOUND('',#718,.T.);
#781=FACE_BOUND('',#719,.T.);
#782=FACE_BOUND('',#720,.T.);
#783=FACE_BOUND('',#721,.T.);
#784=FACE_BOUND('',#722,.T.);
#785=FACE_BOUND('',#723,.T.);
#786=FACE_BOUND('',#724,.T.);
#787=FACE_BOUND('',#725,.T.);
#788=FACE_BOUND('',#726,.T.);
#789=FACE_BOUND('',#727,.T.);
#790=FACE_BOUND('',#728,.T.);
#791=FACE_BOUND('',#729,.T.);
#792=FACE_BOUND('',#730,.T.);
#793=FACE_BOUND('',#731,.T.);
#794=FACE_BOUND('',#732,.T.);
#795=FACE_BOUND('',#733,.T.);
#796=FACE_BOUND('',#734,.T.);
#797=FACE_BOUND('',#735,.T.);
#798=FACE_BOUND('',#736,.T.);
#799=FACE_BOUND('',#737,.T.);
#800=FACE_BOUND('',#738,.T.);
#801=FACE_BOUND('',#739,.T.);
#802=FACE_BOUND('',#740,.T.);
#803=FACE_BOUND('',#741,.T.);
#804=FACE_BOUND('',#742,.T.);
#805=FACE_BOUND('',#743,.T.);
#806=FACE_BOUND('',#744,.T.);
#807=FACE_BOUND('',#745,.T.);
#808=FACE_BOUND('',#746,.T.);
#809=FACE_BOUND('',#747,.T.);
#810=FACE_BOUND('',#748,.T.);
#811=FACE_BOUND('',#749,.T.);
#812=FACE_BOUND('',#750,.T.);
#813=FACE_BOUND('',#751,.T.);
#814=FACE_BOUND('',#752,.T.);
#815=FACE_BOUND('',#753,.T.);
#816=FACE_BOUND('',#754,.T.);
#817=FACE_BOUND('',#755,.T.);
#818=FACE_BOUND('',#756,.T.);
#819=FACE_BOUND('',#757,.T.);
#820=FACE_BOUND('',#758,.T.);
#821=FACE_BOUND('',#759,.T.);
#822=FACE_BOUND('',#760,.T.);
#823=FACE_BOUND('',#761,.T.);
#824=FACE_BOUND('',#762,.T.);
#825=FACE_BOUND('',#763,.T.);
#826=FACE_BOUND('',#764,.T.);
#827=FACE_BOUND('',#765,.T.);
#828=FACE_BOUND('',#766,.T.);
#829=FACE_BOUND('',#767,.T.);
#830=FACE_BOUND('',#768,.T.);
#831=FACE_BOUND('',#769,.T.);
#832=FACE_BOUND('',#770,.T.);
#833=FACE_BOUND('',#771,.T.);
#834=FACE_BOUND('',#772,.T.);
#835=FACE_BOUND('',#773,.T.);
#836=FACE_BOUND('',#774,.T.);
#837=FACE_BOUND('',#775,.T.);
#838=PLANE('',#946);
#839=PLANE('',#949);
#840=PLANE('',#952);
#841=PLANE('',#953);
#842=PLANE('',#954);
#843=PLANE('',#955);
#844=PLANE('',#956);
#845=PLANE('',#957);
#846=PLANE('',#958);
#847=PLANE('',#959);
#848=PLANE('',#960);
#849=PLANE('',#961);
#850=PLANE('',#962);
#851=PLANE('',#963);
#852=PLANE('',#964);
#853=PLANE('',#1055);
#854=PLANE('',#1056);
#855=PLANE('',#1057);
#856=PLANE('',#1058);
#857=PLANE('',#1059);
#858=PLANE('',#1060);
#859=ADVANCED_FACE('',(#776),#838,.F.);
#860=ADVANCED_FACE('',(#777,#778),#839,.T.);
#861=ADVANCED_FACE('',(#779),#840,.F.);
#862=ADVANCED_FACE('',(#780),#841,.T.);
#863=ADVANCED_FACE('',(#781),#842,.F.);
#864=ADVANCED_FACE('',(#782),#843,.F.);
#865=ADVANCED_FACE('',(#783),#844,.T.);
#866=ADVANCED_FACE('',(#784),#845,.T.);
#867=ADVANCED_FACE('',(#785),#846,.F.);
#868=ADVANCED_FACE('',(#786),#847,.F.);
#869=ADVANCED_FACE('',(#787),#848,.T.);
#870=ADVANCED_FACE('',(#788),#849,.T.);
#871=ADVANCED_FACE('',(#789),#850,.T.);
#872=ADVANCED_FACE('',(#790),#851,.F.);
#873=ADVANCED_FACE('',(#791),#852,.T.);
#874=ADVANCED_FACE('',(#792),#54,.T.);
#875=ADVANCED_FACE('',(#793),#50,.T.);
#876=ADVANCED_FACE('',(#794),#51,.T.);
#877=ADVANCED_FACE('',(#795),#55,.F.);
#878=ADVANCED_FACE('',(#796),#56,.T.);
#879=ADVANCED_FACE('',(#797),#57,.T.);
#880=ADVANCED_FACE('',(#798),#58,.F.);
#881=ADVANCED_FACE('',(#799),#59,.T.);
#882=ADVANCED_FACE('',(#800),#52,.T.);
#883=ADVANCED_FACE('',(#801),#38,.T.);
#884=ADVANCED_FACE('',(#802),#39,.T.);
#885=ADVANCED_FACE('',(#803),#53,.T.);
#886=ADVANCED_FACE('',(#804),#60,.T.);
#887=ADVANCED_FACE('',(#805),#61,.T.);
#888=ADVANCED_FACE('',(#806),#62,.T.);
#889=ADVANCED_FACE('',(#807),#63,.T.);
#890=ADVANCED_FACE('',(#808),#64,.T.);
#891=ADVANCED_FACE('',(#809),#65,.T.);
#892=ADVANCED_FACE('',(#810),#40,.T.);
#893=ADVANCED_FACE('',(#811),#41,.T.);
#894=ADVANCED_FACE('',(#812),#42,.T.);
#895=ADVANCED_FACE('',(#813),#43,.T.);
#896=ADVANCED_FACE('',(#814),#66,.T.);
#897=ADVANCED_FACE('',(#815),#67,.T.);
#898=ADVANCED_FACE('',(#816),#68,.T.);
#899=ADVANCED_FACE('',(#817),#69,.T.);
#900=ADVANCED_FACE('',(#818),#70,.T.);
#901=ADVANCED_FACE('',(#819),#71,.T.);
#902=ADVANCED_FACE('',(#820),#72,.T.);
#903=ADVANCED_FACE('',(#821),#44,.T.);
#904=ADVANCED_FACE('',(#822),#45,.T.);
#905=ADVANCED_FACE('',(#823),#46,.T.);
#906=ADVANCED_FACE('',(#824),#47,.T.);
#907=ADVANCED_FACE('',(#825),#73,.T.);
#908=ADVANCED_FACE('',(#826),#74,.T.);
#909=ADVANCED_FACE('',(#827),#75,.T.);
#910=ADVANCED_FACE('',(#828),#76,.T.);
#911=ADVANCED_FACE('',(#829),#48,.T.);
#912=ADVANCED_FACE('',(#830),#49,.T.);
#913=ADVANCED_FACE('',(#831),#77,.T.);
#914=ADVANCED_FACE('',(#832),#853,.T.);
#915=ADVANCED_FACE('',(#833),#854,.F.);
#916=ADVANCED_FACE('',(#834),#855,.F.);
#917=ADVANCED_FACE('',(#835),#856,.T.);
#918=ADVANCED_FACE('',(#836),#857,.T.);
#919=ADVANCED_FACE('',(#837),#858,.F.);
#920=CLOSED_SHELL('',(#859,#860,#861,#862,#863,#864,#865,#866,#867,#868,
#869,#870,#871,#872,#873,#874,#875,#876,#877,#878,#879,#880,#881,#882,#883,
#884,#885,#886,#887,#888,#889,#890,#891,#892,#893,#894,#895,#896,#897,#898,
#899,#900,#901,#902,#903,#904,#905,#906,#907,#908,#909,#910,#911,#912,#913));
#921=CLOSED_SHELL('',(#914,#915,#916,#917,#918,#919));
#922=STYLED_ITEM('',(#924),#937);
#923=STYLED_ITEM('',(#925),#938);
#924=PRESENTATION_STYLE_ASSIGNMENT((#926));
#925=PRESENTATION_STYLE_ASSIGNMENT((#927));
#926=SURFACE_STYLE_USAGE(.BOTH.,#928);
#927=SURFACE_STYLE_USAGE(.BOTH.,#929);
#928=SURFACE_SIDE_STYLE('',(#930));
#929=SURFACE_SIDE_STYLE('',(#931));
#930=SURFACE_STYLE_FILL_AREA(#932);
#931=SURFACE_STYLE_FILL_AREA(#933);
#932=FILL_AREA_STYLE('',(#934));
#933=FILL_AREA_STYLE('',(#935));
#934=FILL_AREA_STYLE_COLOUR('',#936);
#935=FILL_AREA_STYLE_COLOUR('',#936);
#936=COLOUR_RGB('',0.615686274509804,0.811764705882353,0.929411764705882);
#937=MANIFOLD_SOLID_BREP('Part 1',#920);
#938=MANIFOLD_SOLID_BREP('Part 1',#921);
#939=SHAPE_DEFINITION_REPRESENTATION(#1647,#942);
#940=SHAPE_DEFINITION_REPRESENTATION(#1648,#943);
#941=SHAPE_DEFINITION_REPRESENTATION(#1651,#944);
#942=SHAPE_REPRESENTATION('Assembly 1',(#945,#1053,#1054,#1061,#1062,#1063,
#1064),#1638);
#943=SHAPE_REPRESENTATION('Part 1',(#945),#1639);
#944=SHAPE_REPRESENTATION('Part 1',(#945),#1640);
#945=AXIS2_PLACEMENT_3D('',#1377,#1065,#1066);
#946=AXIS2_PLACEMENT_3D('',#1378,#1067,#1068);
#947=AXIS2_PLACEMENT_3D('',#1379,#1069,#1070);
#948=AXIS2_PLACEMENT_3D('',#1384,#1072,#1073);
#949=AXIS2_PLACEMENT_3D('',#1399,#1081,#1082);
#950=AXIS2_PLACEMENT_3D('',#1408,#1087,#1088);
#951=AXIS2_PLACEMENT_3D('',#1425,#1096,#1097);
#952=AXIS2_PLACEMENT_3D('',#1428,#1099,#1100);
#953=AXIS2_PLACEMENT_3D('',#1437,#1105,#1106);
#954=AXIS2_PLACEMENT_3D('',#1446,#1111,#1112);
#955=AXIS2_PLACEMENT_3D('',#1455,#1117,#1118);
#956=AXIS2_PLACEMENT_3D('',#1464,#1123,#1124);
#957=AXIS2_PLACEMENT_3D('',#1473,#1129,#1130);
#958=AXIS2_PLACEMENT_3D('',#1479,#1134,#1135);
#959=AXIS2_PLACEMENT_3D('',#1483,#1138,#1139);
#960=AXIS2_PLACEMENT_3D('',#1487,#1142,#1143);
#961=AXIS2_PLACEMENT_3D('',#1489,#1145,#1146);
#962=AXIS2_PLACEMENT_3D('',#1490,#1147,#1148);
#963=AXIS2_PLACEMENT_3D('',#1499,#1153,#1154);
#964=AXIS2_PLACEMENT_3D('',#1508,#1159,#1160);
#965=AXIS2_PLACEMENT_3D('',#1517,#1165,#1166);
#966=AXIS2_PLACEMENT_3D('',#1518,#1167,#1168);
#967=AXIS2_PLACEMENT_3D('',#1519,#1169,#1170);
#968=AXIS2_PLACEMENT_3D('',#1520,#1171,#1172);
#969=AXIS2_PLACEMENT_3D('',#1521,#1173,#1174);
#970=AXIS2_PLACEMENT_3D('',#1522,#1175,#1176);
#971=AXIS2_PLACEMENT_3D('',#1523,#1177,#1178);
#972=AXIS2_PLACEMENT_3D('',#1524,#1179,#1180);
#973=AXIS2_PLACEMENT_3D('',#1525,#1181,#1182);
#974=AXIS2_PLACEMENT_3D('',#1526,#1183,#1184);
#975=AXIS2_PLACEMENT_3D('',#1527,#1185,#1186);
#976=AXIS2_PLACEMENT_3D('',#1528,#1187,#1188);
#977=AXIS2_PLACEMENT_3D('',#1529,#1189,#1190);
#978=AXIS2_PLACEMENT_3D('',#1530,#1191,#1192);
#979=AXIS2_PLACEMENT_3D('',#1531,#1193,#1194);
#980=AXIS2_PLACEMENT_3D('',#1532,#1195,#1196);
#981=AXIS2_PLACEMENT_3D('',#1533,#1197,#1198);
#982=AXIS2_PLACEMENT_3D('',#1534,#1199,#1200);
#983=AXIS2_PLACEMENT_3D('',#1535,#1201,#1202);
#984=AXIS2_PLACEMENT_3D('',#1536,#1203,#1204);
#985=AXIS2_PLACEMENT_3D('',#1537,#1205,#1206);
#986=AXIS2_PLACEMENT_3D('',#1538,#1207,#1208);
#987=AXIS2_PLACEMENT_3D('',#1539,#1209,#1210);
#988=AXIS2_PLACEMENT_3D('',#1540,#1211,#1212);
#989=AXIS2_PLACEMENT_3D('',#1541,#1213,#1214);
#990=AXIS2_PLACEMENT_3D('',#1542,#1215,#1216);
#991=AXIS2_PLACEMENT_3D('',#1543,#1217,#1218);
#992=AXIS2_PLACEMENT_3D('',#1544,#1219,#1220);
#993=AXIS2_PLACEMENT_3D('',#1545,#1221,#1222);
#994=AXIS2_PLACEMENT_3D('',#1546,#1223,#1224);
#995=AXIS2_PLACEMENT_3D('',#1547,#1225,#1226);
#996=AXIS2_PLACEMENT_3D('',#1548,#1227,#1228);
#997=AXIS2_PLACEMENT_3D('',#1549,#1229,#1230);
#998=AXIS2_PLACEMENT_3D('',#1550,#1231,#1232);
#999=AXIS2_PLACEMENT_3D('',#1551,#1233,#1234);
#1000=AXIS2_PLACEMENT_3D('',#1552,#1235,#1236);
#1001=AXIS2_PLACEMENT_3D('',#1553,#1237,#1238);
#1002=AXIS2_PLACEMENT_3D('',#1554,#1239,#1240);
#1003=AXIS2_PLACEMENT_3D('',#1555,#1241,#1242);
#1004=AXIS2_PLACEMENT_3D('',#1556,#1243,#1244);
#1005=AXIS2_PLACEMENT_3D('',#1557,#1245,#1246);
#1006=AXIS2_PLACEMENT_3D('',#1558,#1247,#1248);
#1007=AXIS2_PLACEMENT_3D('',#1559,#1249,#1250);
#1008=AXIS2_PLACEMENT_3D('',#1560,#1251,#1252);
#1009=AXIS2_PLACEMENT_3D('',#1561,#1253,#1254);
#1010=AXIS2_PLACEMENT_3D('',#1562,#1255,#1256);
#1011=AXIS2_PLACEMENT_3D('',#1563,#1257,#1258);
#1012=AXIS2_PLACEMENT_3D('',#1564,#1259,#1260);
#1013=AXIS2_PLACEMENT_3D('',#1565,#1261,#1262);
#1014=AXIS2_PLACEMENT_3D('',#1566,#1263,#1264);
#1015=AXIS2_PLACEMENT_3D('',#1567,#1265,#1266);
#1016=AXIS2_PLACEMENT_3D('',#1568,#1267,#1268);
#1017=AXIS2_PLACEMENT_3D('',#1569,#1269,#1270);
#1018=AXIS2_PLACEMENT_3D('',#1570,#1271,#1272);
#1019=AXIS2_PLACEMENT_3D('',#1571,#1273,#1274);
#1020=AXIS2_PLACEMENT_3D('',#1572,#1275,#1276);
#1021=AXIS2_PLACEMENT_3D('',#1573,#1277,#1278);
#1022=AXIS2_PLACEMENT_3D('',#1574,#1279,#1280);
#1023=AXIS2_PLACEMENT_3D('',#1575,#1281,#1282);
#1024=AXIS2_PLACEMENT_3D('',#1576,#1283,#1284);
#1025=AXIS2_PLACEMENT_3D('',#1577,#1285,#1286);
#1026=AXIS2_PLACEMENT_3D('',#1578,#1287,#1288);
#1027=AXIS2_PLACEMENT_3D('',#1579,#1289,#1290);
#1028=AXIS2_PLACEMENT_3D('',#1580,#1291,#1292);
#1029=AXIS2_PLACEMENT_3D('',#1581,#1293,#1294);
#1030=AXIS2_PLACEMENT_3D('',#1582,#1295,#1296);
#1031=AXIS2_PLACEMENT_3D('',#1583,#1297,#1298);
#1032=AXIS2_PLACEMENT_3D('',#1584,#1299,#1300);
#1033=AXIS2_PLACEMENT_3D('',#1585,#1301,#1302);
#1034=AXIS2_PLACEMENT_3D('',#1586,#1303,#1304);
#1035=AXIS2_PLACEMENT_3D('',#1587,#1305,#1306);
#1036=AXIS2_PLACEMENT_3D('',#1588,#1307,#1308);
#1037=AXIS2_PLACEMENT_3D('',#1589,#1309,#1310);
#1038=AXIS2_PLACEMENT_3D('',#1590,#1311,#1312);
#1039=AXIS2_PLACEMENT_3D('',#1591,#1313,#1314);
#1040=AXIS2_PLACEMENT_3D('',#1592,#1315,#1316);
#1041=AXIS2_PLACEMENT_3D('',#1593,#1317,#1318);
#1042=AXIS2_PLACEMENT_3D('',#1594,#1319,#1320);
#1043=AXIS2_PLACEMENT_3D('',#1595,#1321,#1322);
#1044=AXIS2_PLACEMENT_3D('',#1596,#1323,#1324);
#1045=AXIS2_PLACEMENT_3D('',#1597,#1325,#1326);
#1046=AXIS2_PLACEMENT_3D('',#1598,#1327,#1328);
#1047=AXIS2_PLACEMENT_3D('',#1599,#1329,#1330);
#1048=AXIS2_PLACEMENT_3D('',#1600,#1331,#1332);
#1049=AXIS2_PLACEMENT_3D('',#1601,#1333,#1334);
#1050=AXIS2_PLACEMENT_3D('',#1602,#1335,#1336);
#1051=AXIS2_PLACEMENT_3D('',#1603,#1337,#1338);
#1052=AXIS2_PLACEMENT_3D('',#1604,#1339,#1340);
#1053=AXIS2_PLACEMENT_3D('',#1605,#1341,#1342);
#1054=AXIS2_PLACEMENT_3D('',#1606,#1343,#1344);
#1055=AXIS2_PLACEMENT_3D('',#1607,#1345,#1346);
#1056=AXIS2_PLACEMENT_3D('',#1616,#1351,#1352);
#1057=AXIS2_PLACEMENT_3D('',#1622,#1356,#1357);
#1058=AXIS2_PLACEMENT_3D('',#1628,#1361,#1362);
#1059=AXIS2_PLACEMENT_3D('',#1631,#1365,#1366);
#1060=AXIS2_PLACEMENT_3D('',#1632,#1367,#1368);
#1061=AXIS2_PLACEMENT_3D('',#1633,#1369,#1370);
#1062=AXIS2_PLACEMENT_3D('',#1634,#1371,#1372);
#1063=AXIS2_PLACEMENT_3D('',#1635,#1373,#1374);
#1064=AXIS2_PLACEMENT_3D('',#1636,#1375,#1376);
#1065=DIRECTION('',(0.,0.,1.));
#1066=DIRECTION('',(1.,0.,0.));
#1067=DIRECTION('',(0.,0.,1.));
#1068=DIRECTION('',(1.,0.,0.));
#1069=DIRECTION('',(0.,0.,1.));
#1070=DIRECTION('',(1.,0.,0.));
#1071=DIRECTION('',(1.,0.,0.));
#1072=DIRECTION('',(0.,0.,1.));
#1073=DIRECTION('',(1.,0.,0.));
#1074=DIRECTION('',(0.,-1.,0.));
#1075=DIRECTION('',(1.,0.,0.));
#1076=DIRECTION('',(-1.38777878078145E-16,-1.,0.));
#1077=DIRECTION('',(1.,0.,0.));
#1078=DIRECTION('',(-1.38777878078145E-16,-1.,0.));
#1079=DIRECTION('',(1.,0.,0.));
#1080=DIRECTION('',(0.,-1.,0.));
#1081=DIRECTION('',(0.,0.,1.));
#1082=DIRECTION('',(1.,0.,0.));
#1083=DIRECTION('',(0.,-1.,0.));
#1084=DIRECTION('',(1.,6.92504381627468E-17,0.));
#1085=DIRECTION('',(0.,-1.,0.));
#1086=DIRECTION('',(1.,6.92504381627468E-17,0.));
#1087=DIRECTION('',(0.,0.,1.));
#1088=DIRECTION('',(1.,0.,0.));
#1089=DIRECTION('',(0.,-1.,0.));
#1090=DIRECTION('',(1.,0.,0.));
#1091=DIRECTION('',(-1.38777878078145E-16,-1.,0.));
#1092=DIRECTION('',(1.,0.,0.));
#1093=DIRECTION('',(-1.38777878078145E-16,-1.,0.));
#1094=DIRECTION('',(1.,0.,0.));
#1095=DIRECTION('',(0.,-1.,0.));
#1096=DIRECTION('',(0.,0.,1.));
#1097=DIRECTION('',(1.,0.,0.));
#1098=DIRECTION('',(1.,0.,0.));
#1099=DIRECTION('',(0.,1.,0.));
#1100=DIRECTION('',(0.,0.,1.));
#1101=DIRECTION('',(0.,0.,-1.));
#1102=DIRECTION('',(1.,0.,0.));
#1103=DIRECTION('',(0.,0.,1.));
#1104=DIRECTION('',(1.,0.,0.));
#1105=DIRECTION('',(0.,1.,0.));
#1106=DIRECTION('',(0.,0.,1.));
#1107=DIRECTION('',(0.,0.,-1.));
#1108=DIRECTION('',(1.,0.,0.));
#1109=DIRECTION('',(0.,0.,-1.));
#1110=DIRECTION('',(1.,0.,0.));
#1111=DIRECTION('',(1.,-1.38777878078145E-16,0.));
#1112=DIRECTION('',(1.38777878078145E-16,1.,0.));
#1113=DIRECTION('',(-1.38777878078145E-16,-1.,0.));
#1114=DIRECTION('',(0.,0.,-1.));
#1115=DIRECTION('',(-1.38777878078145E-16,-1.,0.));
#1116=DIRECTION('',(0.,0.,-1.));
#1117=DIRECTION('',(0.,1.,0.));
#1118=DIRECTION('',(0.,0.,1.));
#1119=DIRECTION('',(0.,0.,1.));
#1120=DIRECTION('',(1.,0.,0.));
#1121=DIRECTION('',(0.,0.,-1.));
#1122=DIRECTION('',(1.,0.,0.));
#1123=DIRECTION('',(1.,-1.38777878078145E-16,0.));
#1124=DIRECTION('',(1.38777878078145E-16,1.,0.));
#1125=DIRECTION('',(0.,0.,-1.));
#1126=DIRECTION('',(-1.38777878078145E-16,-1.,0.));
#1127=DIRECTION('',(0.,0.,-1.));
#1128=DIRECTION('',(-1.38777878078145E-16,-1.,0.));
#1129=DIRECTION('',(6.92504381627468E-17,-1.,0.));
#1130=DIRECTION('',(1.,6.92504381627468E-17,0.));
#1131=DIRECTION('',(0.,0.,1.));
#1132=DIRECTION('',(1.,6.92504381627468E-17,0.));
#1133=DIRECTION('',(0.,0.,1.));
#1134=DIRECTION('',(-1.,0.,0.));
#1135=DIRECTION('',(0.,0.,1.));
#1136=DIRECTION('',(0.,0.,1.));
#1137=DIRECTION('',(0.,-1.,0.));
#1138=DIRECTION('',(6.92504381627468E-17,-1.,0.));
#1139=DIRECTION('',(1.,6.92504381627468E-17,0.));
#1140=DIRECTION('',(0.,0.,1.));
#1141=DIRECTION('',(1.,6.92504381627468E-17,0.));
#1142=DIRECTION('',(-1.,0.,0.));
#1143=DIRECTION('',(0.,0.,1.));
#1144=DIRECTION('',(0.,-1.,0.));
#1145=DIRECTION('',(0.,0.,1.));
#1146=DIRECTION('',(1.,0.,0.));
#1147=DIRECTION('',(0.,-1.,0.));
#1148=DIRECTION('',(0.,0.,-1.));
#1149=DIRECTION('',(0.,0.,1.));
#1150=DIRECTION('',(1.,0.,0.));
#1151=DIRECTION('',(0.,0.,1.));
#1152=DIRECTION('',(1.,0.,0.));
#1153=DIRECTION('',(-1.,0.,0.));
#1154=DIRECTION('',(0.,0.,1.));
#1155=DIRECTION('',(0.,0.,1.));
#1156=DIRECTION('',(0.,-1.,0.));
#1157=DIRECTION('',(0.,0.,1.));
#1158=DIRECTION('',(0.,-1.,0.));
#1159=DIRECTION('',(-1.,0.,0.));
#1160=DIRECTION('',(0.,0.,1.));
#1161=DIRECTION('',(0.,0.,1.));
#1162=DIRECTION('',(0.,-1.,0.));
#1163=DIRECTION('',(0.,0.,1.));
#1164=DIRECTION('',(0.,-1.,0.));
#1165=DIRECTION('',(-1.,0.,0.));
#1166=DIRECTION('',(0.,0.,1.));
#1167=DIRECTION('',(-1.,0.,0.));
#1168=DIRECTION('',(0.,0.,1.));
#1169=DIRECTION('',(1.,0.,0.));
#1170=DIRECTION('',(0.,0.,-1.));
#1171=DIRECTION('',(0.,0.,1.));
#1172=DIRECTION('',(1.,0.,0.));
#1173=DIRECTION('',(0.,0.,1.));
#1174=DIRECTION('',(1.,0.,0.));
#1175=DIRECTION('',(0.,1.,0.));
#1176=DIRECTION('',(0.,0.,1.));
#1177=DIRECTION('',(0.,0.,1.));
#1178=DIRECTION('',(1.,0.,0.));
#1179=DIRECTION('',(0.,1.,0.));
#1180=DIRECTION('',(0.,0.,1.));
#1181=DIRECTION('',(0.,0.,1.));
#1182=DIRECTION('',(1.,0.,0.));
#1183=DIRECTION('',(0.,0.,1.));
#1184=DIRECTION('',(1.,0.,0.));
#1185=DIRECTION('',(0.,0.,1.));
#1186=DIRECTION('',(1.,0.,0.));
#1187=DIRECTION('',(0.,-1.,0.));
#1188=DIRECTION('',(0.,0.,-1.));
#1189=DIRECTION('',(0.,-1.,0.));
#1190=DIRECTION('',(0.,0.,-1.));
#1191=DIRECTION('',(0.,1.,0.));
#1192=DIRECTION('',(0.,0.,1.));
#1193=DIRECTION('',(0.,-1.,0.));
#1194=DIRECTION('',(0.,0.,-1.));
#1195=DIRECTION('',(0.,0.,-1.));
#1196=DIRECTION('',(-1.,0.,0.));
#1197=DIRECTION('',(0.,0.,1.));
#1198=DIRECTION('',(1.,0.,0.));
#1199=DIRECTION('',(1.,0.,0.));
#1200=DIRECTION('',(0.,0.,-1.));
#1201=DIRECTION('',(1.,0.,0.));
#1202=DIRECTION('',(0.,0.,-1.));
#1203=DIRECTION('',(-1.,0.,0.));
#1204=DIRECTION('',(0.,0.,1.));
#1205=DIRECTION('',(0.,0.,1.));
#1206=DIRECTION('',(1.,0.,0.));
#1207=DIRECTION('',(0.,1.,0.));
#1208=DIRECTION('',(0.,0.,1.));
#1209=DIRECTION('',(1.,0.,0.));
#1210=DIRECTION('',(0.,0.,-1.));
#1211=DIRECTION('',(1.,0.,0.));
#1212=DIRECTION('',(0.,0.,-1.));
#1213=DIRECTION('',(0.,-8.67361737988403E-16,-1.));
#1214=DIRECTION('',(0.,1.,-8.67361737988403E-16));
#1215=DIRECTION('',(0.,0.,-1.));
#1216=DIRECTION('',(-1.,0.,0.));
#1217=DIRECTION('',(0.,0.,-1.));
#1218=DIRECTION('',(-1.,0.,0.));
#1219=DIRECTION('',(-1.,0.,0.));
#1220=DIRECTION('',(0.,0.,1.));
#1221=DIRECTION('',(0.,0.,1.));
#1222=DIRECTION('',(1.,0.,0.));
#1223=DIRECTION('',(0.,1.,0.));
#1224=DIRECTION('',(0.,0.,1.));
#1225=DIRECTION('',(0.,1.,0.));
#1226=DIRECTION('',(0.,0.,1.));
#1227=DIRECTION('',(0.,-1.,-6.93889390390722E-15));
#1228=DIRECTION('',(0.,6.93889390390722E-15,-1.));
#1229=DIRECTION('',(0.,0.,1.));
#1230=DIRECTION('',(1.,0.,0.));
#1231=DIRECTION('',(0.,0.,1.));
#1232=DIRECTION('',(1.,0.,0.));
#1233=DIRECTION('',(1.,0.,0.));
#1234=DIRECTION('',(0.,0.,-1.));
#1235=DIRECTION('',(-1.,-1.38777878078144E-14,0.));
#1236=DIRECTION('',(1.38777878078144E-14,-1.,0.));
#1237=DIRECTION('',(1.,0.,0.));
#1238=DIRECTION('',(0.,0.,-1.));
#1239=DIRECTION('',(1.,0.,0.));
#1240=DIRECTION('',(0.,0.,-1.));
#1241=DIRECTION('',(0.,0.,-1.));
#1242=DIRECTION('',(-1.,0.,0.));
#1243=DIRECTION('',(0.,0.,1.));
#1244=DIRECTION('',(1.,0.,0.));
#1245=DIRECTION('',(0.,-1.,0.));
#1246=DIRECTION('',(0.,0.,-1.));
#1247=DIRECTION('',(-6.93889390390722E-15,-1.,0.));
#1248=DIRECTION('',(1.,-6.93889390390722E-15,0.));
#1249=DIRECTION('',(1.,0.,0.));
#1250=DIRECTION('',(0.,0.,-1.));
#1251=DIRECTION('',(1.,0.,0.));
#1252=DIRECTION('',(0.,0.,-1.));
#1253=DIRECTION('',(0.,-1.,8.67361737988403E-16));
#1254=DIRECTION('',(0.,-8.67361737988403E-16,-1.));
#1255=DIRECTION('',(0.,-1.,0.));
#1256=DIRECTION('',(0.,0.,-1.));
#1257=DIRECTION('',(0.,0.,-1.));
#1258=DIRECTION('',(-1.,0.,0.));
#1259=DIRECTION('',(0.,0.,-1.));
#1260=DIRECTION('',(-1.,0.,0.));
#1261=DIRECTION('',(0.,-8.67361737988403E-16,-1.));
#1262=DIRECTION('',(0.,1.,-8.67361737988403E-16));
#1263=DIRECTION('',(0.,-1.,0.));
#1264=DIRECTION('',(0.,0.,-1.));
#1265=DIRECTION('',(-1.,0.,0.));
#1266=DIRECTION('',(0.,0.,1.));
#1267=DIRECTION('',(-1.,0.,0.));
#1268=DIRECTION('',(0.,0.,1.));
#1269=DIRECTION('',(-1.,0.,0.));
#1270=DIRECTION('',(0.,0.,1.));
#1271=DIRECTION('',(-1.,0.,-1.38777878078144E-14));
#1272=DIRECTION('',(-1.38777878078144E-14,0.,1.));
#1273=DIRECTION('',(0.,0.,-1.));
#1274=DIRECTION('',(-1.,0.,0.));
#1275=DIRECTION('',(0.,0.,1.));
#1276=DIRECTION('',(1.,0.,0.));
#1277=DIRECTION('',(-1.38777878078145E-16,-1.,0.));
#1278=DIRECTION('',(1.,-1.38777878078145E-16,0.));
#1279=DIRECTION('',(0.,1.,0.));
#1280=DIRECTION('',(0.,0.,1.));
#1281=DIRECTION('',(-1.,0.,0.));
#1282=DIRECTION('',(0.,0.,1.));
#1283=DIRECTION('',(1.,1.38777878078144E-14,0.));
#1284=DIRECTION('',(-1.38777878078144E-14,1.,0.));
#1285=DIRECTION('',(-1.,0.,0.));
#1286=DIRECTION('',(0.,0.,1.));
#1287=DIRECTION('',(1.38777878078145E-16,1.,0.));
#1288=DIRECTION('',(-1.,1.38777878078145E-16,0.));
#1289=DIRECTION('',(0.,1.,0.));
#1290=DIRECTION('',(0.,0.,1.));
#1291=DIRECTION('',(0.,0.,1.));
#1292=DIRECTION('',(1.,0.,0.));
#1293=DIRECTION('',(0.,0.,1.));
#1294=DIRECTION('',(1.,0.,0.));
#1295=DIRECTION('',(-1.,0.,0.));
#1296=DIRECTION('',(0.,0.,1.));
#1297=DIRECTION('',(1.,1.38777878078145E-14,0.));
#1298=DIRECTION('',(-1.38777878078145E-14,1.,0.));
#1299=DIRECTION('',(0.,-1.,0.));
#1300=DIRECTION('',(0.,0.,-1.));
#1301=DIRECTION('',(-6.93889390390732E-15,-1.,0.));
#1302=DIRECTION('',(1.,-6.93889390390732E-15,0.));
#1303=DIRECTION('',(0.,0.,-1.));
#1304=DIRECTION('',(-1.,0.,0.));
#1305=DIRECTION('',(0.,-8.67361737988403E-16,-1.));
#1306=DIRECTION('',(0.,1.,-8.67361737988403E-16));
#1307=DIRECTION('',(1.38777878078145E-14,0.,-1.));
#1308=DIRECTION('',(-1.,0.,-1.38777878078145E-14));
#1309=DIRECTION('',(0.,0.,-1.));
#1310=DIRECTION('',(-1.,0.,0.));
#1311=DIRECTION('',(0.,-1.,0.));
#1312=DIRECTION('',(0.,0.,-1.));
#1313=DIRECTION('',(0.,-1.,-6.93889390390722E-15));
#1314=DIRECTION('',(0.,6.93889390390722E-15,-1.));
#1315=DIRECTION('',(1.38777878078145E-16,1.,0.));
#1316=DIRECTION('',(-1.,1.38777878078145E-16,0.));
#1317=DIRECTION('',(0.,1.,0.));
#1318=DIRECTION('',(0.,0.,1.));
#1319=DIRECTION('',(0.,0.,1.));
#1320=DIRECTION('',(1.,0.,0.));
#1321=DIRECTION('',(0.,0.,1.));
#1322=DIRECTION('',(1.,0.,0.));
#1323=DIRECTION('',(0.,0.,-1.));
#1324=DIRECTION('',(-1.,0.,0.));
#1325=DIRECTION('',(0.,0.,1.));
#1326=DIRECTION('',(1.,0.,0.));
#1327=DIRECTION('',(-1.38777878078145E-16,-1.,0.));
#1328=DIRECTION('',(1.,-1.38777878078145E-16,0.));
#1329=DIRECTION('',(0.,1.,0.));
#1330=DIRECTION('',(0.,0.,1.));
#1331=DIRECTION('',(-1.,0.,0.));
#1332=DIRECTION('',(0.,0.,1.));
#1333=DIRECTION('',(-1.,0.,0.));
#1334=DIRECTION('',(0.,0.,1.));
#1335=DIRECTION('',(1.,0.,0.));
#1336=DIRECTION('',(0.,0.,-1.));
#1337=DIRECTION('',(1.,0.,0.));
#1338=DIRECTION('',(0.,0.,-1.));
#1339=DIRECTION('',(1.,0.,0.));
#1340=DIRECTION('',(0.,0.,-1.));
#1341=DIRECTION('',(0.,-1.,1.31838984174237E-16));
#1342=DIRECTION('',(1.,0.,0.));
#1343=DIRECTION('',(0.,-1.,1.31838984174237E-16));
#1344=DIRECTION('',(1.,0.,0.));
#1345=DIRECTION('',(0.,1.,0.));
#1346=DIRECTION('',(0.,0.,1.));
#1347=DIRECTION('',(1.,0.,0.));
#1348=DIRECTION('',(0.,0.,-1.));
#1349=DIRECTION('',(1.,0.,0.));
#1350=DIRECTION('',(0.,0.,-1.));
#1351=DIRECTION('',(1.,-2.77555756156289E-16,0.));
#1352=DIRECTION('',(2.77555756156289E-16,1.,0.));
#1353=DIRECTION('',(-2.77555756156289E-16,-1.,0.));
#1354=DIRECTION('',(0.,0.,-1.));
#1355=DIRECTION('',(-2.77555756156289E-16,-1.,0.));
#1356=DIRECTION('',(0.,1.,0.));
#1357=DIRECTION('',(0.,0.,1.));
#1358=DIRECTION('',(1.,0.,0.));
#1359=DIRECTION('',(0.,0.,-1.));
#1360=DIRECTION('',(1.,0.,0.));
#1361=DIRECTION('',(1.,-2.77555756156289E-16,0.));
#1362=DIRECTION('',(2.77555756156289E-16,1.,0.));
#1363=DIRECTION('',(-2.77555756156289E-16,-1.,0.));
#1364=DIRECTION('',(-2.77555756156289E-16,-1.,0.));
#1365=DIRECTION('',(0.,0.,1.));
#1366=DIRECTION('',(1.,0.,0.));
#1367=DIRECTION('',(0.,0.,1.));
#1368=DIRECTION('',(1.,0.,0.));
#1369=DIRECTION('',(0.,0.,1.));
#1370=DIRECTION('',(5.55111512312578E-17,-1.,0.));
#1371=DIRECTION('',(2.77555756156289E-16,1.,-1.31838984174616E-16));
#1372=DIRECTION('',(-1.,2.77555756156289E-16,5.81365835244598E-28));
#1373=DIRECTION('',(2.77555756156289E-16,1.,-1.31838984174616E-16));
#1374=DIRECTION('',(-1.,2.77555756156289E-16,5.81365835244598E-28));
#1375=DIRECTION('',(0.,0.,1.));
#1376=DIRECTION('',(5.55111512312578E-17,-1.,0.));
#1377=CARTESIAN_POINT('',(0.,0.,0.));
#1378=CARTESIAN_POINT('',(1.38777878078145E-17,-1.04083408558608E-17,0.));
#1379=CARTESIAN_POINT('',(0.0856635084152222,0.029,0.));
#1380=CARTESIAN_POINT('',(0.0856635084152222,0.031,0.));
#1381=CARTESIAN_POINT('',(0.0876635084152222,0.029,0.));
#1382=CARTESIAN_POINT('',(-0.0883364915847778,0.031,0.));
#1383=CARTESIAN_POINT('',(-0.0873364915847778,0.031,0.));
#1384=CARTESIAN_POINT('',(-0.0873364915847778,0.029,0.));
#1385=CARTESIAN_POINT('',(-0.0893364915847778,0.029,0.));
#1386=CARTESIAN_POINT('',(-0.0893364915847778,-1.04083408558608E-17,0.));
#1387=CARTESIAN_POINT('',(-0.0893364915847778,-0.049,0.));
#1388=CARTESIAN_POINT('',(1.38777878078145E-17,-0.049,0.));
#1389=CARTESIAN_POINT('',(-0.1015,-0.049,0.));
#1390=CARTESIAN_POINT('',(-0.1015,3.67761376907084E-18,0.));
#1391=CARTESIAN_POINT('',(-0.1015,0.049,0.));
#1392=CARTESIAN_POINT('',(0.1025,0.049,0.));
#1393=CARTESIAN_POINT('',(0.1015,0.049,0.));
#1394=CARTESIAN_POINT('',(0.1015,-0.05,0.));
#1395=CARTESIAN_POINT('',(0.1015,-0.049,0.));
#1396=CARTESIAN_POINT('',(1.38777878078145E-17,-0.049,0.));
#1397=CARTESIAN_POINT('',(0.0876635084152222,-0.049,0.));
#1398=CARTESIAN_POINT('',(0.0876635084152222,0.03,0.));
#1399=CARTESIAN_POINT('',(1.38777878078145E-17,-1.04083408558608E-17,0.025));
#1400=CARTESIAN_POINT('',(-0.1002,0.04,0.025));
#1401=CARTESIAN_POINT('',(-0.1002,0.0477,0.025));
#1402=CARTESIAN_POINT('',(-0.1002,0.0323,0.025));
#1403=CARTESIAN_POINT('',(0.,0.0477,0.025));
#1404=CARTESIAN_POINT('',(0.1002,0.0477,0.025));
#1405=CARTESIAN_POINT('',(0.1002,0.04,0.025));
#1406=CARTESIAN_POINT('',(0.1002,0.0323,0.025));
#1407=CARTESIAN_POINT('',(0.,0.0323,0.025));
#1408=CARTESIAN_POINT('',(0.0856635084152222,0.029,0.025));
#1409=CARTESIAN_POINT('',(0.0876635084152222,0.029,0.025));
#1410=CARTESIAN_POINT('',(0.0856635084152222,0.031,0.025));
#1411=CARTESIAN_POINT('',(0.0876635084152222,-1.04083408558608E-17,0.025));
#1412=CARTESIAN_POINT('',(0.0876635084152222,-0.049,0.025));
#1413=CARTESIAN_POINT('',(0.1025,-0.049,0.025));
#1414=CARTESIAN_POINT('',(0.1015,-0.049,0.025));
#1415=CARTESIAN_POINT('',(0.1015,-2.44942954807925E-17,0.025));
#1416=CARTESIAN_POINT('',(0.1015,0.049,0.025));
#1417=CARTESIAN_POINT('',(1.38777878078145E-17,0.049,0.025));
#1418=CARTESIAN_POINT('',(-0.1015,0.049,0.025));
#1419=CARTESIAN_POINT('',(-0.1015,-0.05,0.025));
#1420=CARTESIAN_POINT('',(-0.1015,-0.049,0.025));
#1421=CARTESIAN_POINT('',(-0.0883364915847778,-0.049,0.025));
#1422=CARTESIAN_POINT('',(-0.0893364915847778,-0.049,0.025));
#1423=CARTESIAN_POINT('',(-0.0893364915847778,0.03,0.025));
#1424=CARTESIAN_POINT('',(-0.0893364915847778,0.029,0.025));
#1425=CARTESIAN_POINT('',(-0.0873364915847778,0.029,0.025));
#1426=CARTESIAN_POINT('',(-0.0873364915847778,0.031,0.025));
#1427=CARTESIAN_POINT('',(1.38777878078145E-17,0.031,0.025));
#1428=CARTESIAN_POINT('',(0.,-0.05,0.025));
#1429=CARTESIAN_POINT('',(0.1015,-0.05,0.025));
#1430=CARTESIAN_POINT('',(0.1015,-0.05,0.001));
#1431=CARTESIAN_POINT('',(0.1015,-0.05,0.024));
#1432=CARTESIAN_POINT('',(0.0866635084152222,-0.05,0.024));
#1433=CARTESIAN_POINT('',(0.0876635084152222,-0.05,0.024));
#1434=CARTESIAN_POINT('',(0.0876635084152222,-0.05,0.));
#1435=CARTESIAN_POINT('',(0.0876635084152222,-0.05,0.001));
#1436=CARTESIAN_POINT('',(0.,-0.05,0.001));
#1437=CARTESIAN_POINT('',(1.38777878078145E-17,0.05,0.025));
#1438=CARTESIAN_POINT('',(-0.1015,0.05,0.025));
#1439=CARTESIAN_POINT('',(-0.1015,0.05,0.001));
#1440=CARTESIAN_POINT('',(-0.1015,0.05,0.024));
#1441=CARTESIAN_POINT('',(1.38777878078145E-17,0.05,0.024));
#1442=CARTESIAN_POINT('',(0.1015,0.05,0.024));
#1443=CARTESIAN_POINT('',(0.1015,0.05,0.025));
#1444=CARTESIAN_POINT('',(0.1015,0.05,0.001));
#1445=CARTESIAN_POINT('',(-0.1025,0.05,0.001));
#1446=CARTESIAN_POINT('',(-0.1025,-6.93889390390723E-18,0.025));
#1447=CARTESIAN_POINT('',(-0.1025,-6.93889390390723E-18,0.001));
#1448=CARTESIAN_POINT('',(-0.1025,0.049,0.001));
#1449=CARTESIAN_POINT('',(-0.1025,-0.049,0.001));
#1450=CARTESIAN_POINT('',(-0.1025,-0.049,0.025));
#1451=CARTESIAN_POINT('',(-0.1025,-0.049,0.024));
#1452=CARTESIAN_POINT('',(-0.1025,0.05,0.024));
#1453=CARTESIAN_POINT('',(-0.1025,0.049,0.024));
#1454=CARTESIAN_POINT('',(-0.1025,0.049,0.));
#1455=CARTESIAN_POINT('',(0.,-0.05,0.025));
#1456=CARTESIAN_POINT('',(-0.0893364915847778,-0.05,0.025));
#1457=CARTESIAN_POINT('',(-0.0893364915847778,-0.05,0.001));
#1458=CARTESIAN_POINT('',(-0.0893364915847778,-0.05,0.024));
#1459=CARTESIAN_POINT('',(-0.1025,-0.05,0.024));
#1460=CARTESIAN_POINT('',(-0.1015,-0.05,0.024));
#1461=CARTESIAN_POINT('',(-0.1015,-0.05,0.025));
#1462=CARTESIAN_POINT('',(-0.1015,-0.05,0.001));
#1463=CARTESIAN_POINT('',(0.,-0.05,0.001));
#1464=CARTESIAN_POINT('',(0.1025,-1.38777878078145E-17,0.025));
#1465=CARTESIAN_POINT('',(0.1025,0.049,0.025));
#1466=CARTESIAN_POINT('',(0.1025,0.049,0.001));
#1467=CARTESIAN_POINT('',(0.1025,0.049,0.024));
#1468=CARTESIAN_POINT('',(0.1025,-1.38777878078145E-17,0.024));
#1469=CARTESIAN_POINT('',(0.1025,-0.049,0.024));
#1470=CARTESIAN_POINT('',(0.1025,-0.049,0.));
#1471=CARTESIAN_POINT('',(0.1025,-0.049,0.001));
#1472=CARTESIAN_POINT('',(0.1025,0.05,0.001));
#1473=CARTESIAN_POINT('',(0.,0.0477,0.002));
#1474=CARTESIAN_POINT('',(-0.1002,0.0477,0.002));
#1475=CARTESIAN_POINT('',(-0.1002,0.0477,0.002));
#1476=CARTESIAN_POINT('',(0.,0.0477,0.002));
#1477=CARTESIAN_POINT('',(0.1002,0.0477,0.002));
#1478=CARTESIAN_POINT('',(0.1002,0.0477,0.002));
#1479=CARTESIAN_POINT('',(-0.1002,0.04,0.002));
#1480=CARTESIAN_POINT('',(-0.1002,0.0323,0.002));
#1481=CARTESIAN_POINT('',(-0.1002,0.0323,0.002));
#1482=CARTESIAN_POINT('',(-0.1002,0.04,0.002));
#1483=CARTESIAN_POINT('',(0.,0.0323,0.002));
#1484=CARTESIAN_POINT('',(0.1002,0.0323,0.002));
#1485=CARTESIAN_POINT('',(0.1002,0.0323,0.002));
#1486=CARTESIAN_POINT('',(0.,0.0323,0.002));
#1487=CARTESIAN_POINT('',(0.1002,0.04,0.002));
#1488=CARTESIAN_POINT('',(0.1002,0.04,0.002));
#1489=CARTESIAN_POINT('',(1.38777878078145E-17,-1.04083408558608E-17,0.002));
#1490=CARTESIAN_POINT('',(-0.000836491584777832,0.03,-0.0385));
#1491=CARTESIAN_POINT('',(0.0856635084152222,0.03,0.025));
#1492=CARTESIAN_POINT('',(0.0856635084152222,0.03,0.001));
#1493=CARTESIAN_POINT('',(0.0856635084152222,0.03,0.024));
#1494=CARTESIAN_POINT('',(-0.000836491584777832,0.03,0.024));
#1495=CARTESIAN_POINT('',(-0.0873364915847778,0.03,0.024));
#1496=CARTESIAN_POINT('',(-0.0873364915847778,0.03,-0.0385));
#1497=CARTESIAN_POINT('',(-0.0873364915847778,0.03,0.001));
#1498=CARTESIAN_POINT('',(0.0866635084152222,0.03,0.001));
#1499=CARTESIAN_POINT('',(-0.0883364915847778,-0.02,-0.0385));
#1500=CARTESIAN_POINT('',(-0.0883364915847778,0.029,-0.0385));
#1501=CARTESIAN_POINT('',(-0.0883364915847778,0.029,0.001));
#1502=CARTESIAN_POINT('',(-0.0883364915847778,0.029,0.024));
#1503=CARTESIAN_POINT('',(-0.0883364915847778,-0.05,0.024));
#1504=CARTESIAN_POINT('',(-0.0883364915847778,-0.049,0.024));
#1505=CARTESIAN_POINT('',(-0.0883364915847778,-0.049,-0.0385));
#1506=CARTESIAN_POINT('',(-0.0883364915847778,-0.049,0.001));
#1507=CARTESIAN_POINT('',(-0.0883364915847778,-0.02,0.001));
#1508=CARTESIAN_POINT('',(0.0866635084152222,-0.02,-0.0385));
#1509=CARTESIAN_POINT('',(0.0866635084152222,-0.049,0.025));
#1510=CARTESIAN_POINT('',(0.0866635084152222,-0.049,0.001));
#1511=CARTESIAN_POINT('',(0.0866635084152222,-0.049,0.024));
#1512=CARTESIAN_POINT('',(0.0866635084152222,-0.02,0.024));
#1513=CARTESIAN_POINT('',(0.0866635084152222,0.029,0.024));
#1514=CARTESIAN_POINT('',(0.0866635084152222,0.029,0.));
#1515=CARTESIAN_POINT('',(0.0866635084152222,0.029,0.001));
#1516=CARTESIAN_POINT('',(0.0866635084152222,-0.05,0.001));
#1517=CARTESIAN_POINT('',(-0.000836491584777832,0.031,0.001));
#1518=CARTESIAN_POINT('',(-0.0873364915847778,0.031,0.001));
#1519=CARTESIAN_POINT('',(0.0856635084152222,0.031,0.001));
#1520=CARTESIAN_POINT('',(-0.0873364915847778,0.029,0.001));
#1521=CARTESIAN_POINT('',(-0.0873364915847778,0.029,0.001));
#1522=CARTESIAN_POINT('',(-0.0893364915847778,0.029,0.001));
#1523=CARTESIAN_POINT('',(0.0856635084152222,0.029,0.001));
#1524=CARTESIAN_POINT('',(0.0876635084152222,0.029,0.001));
#1525=CARTESIAN_POINT('',(0.0856635084152222,0.029,0.001));
#1526=CARTESIAN_POINT('',(-0.0873364915847778,0.029,-0.0385));
#1527=CARTESIAN_POINT('',(-0.0873364915847778,0.029,0.024));
#1528=CARTESIAN_POINT('',(-0.0893364915847778,-1.04083408558608E-17,0.001));
#1529=CARTESIAN_POINT('',(-0.0893364915847778,-0.049,0.001));
#1530=CARTESIAN_POINT('',(0.0876635084152222,-0.02,0.001));
#1531=CARTESIAN_POINT('',(0.0876635084152222,-0.049,0.001));
#1532=CARTESIAN_POINT('',(0.0856635084152222,0.029,-0.0385));
#1533=CARTESIAN_POINT('',(0.0856635084152222,0.029,0.024));
#1534=CARTESIAN_POINT('',(1.38777878078145E-17,0.031,0.024));
#1535=CARTESIAN_POINT('',(0.0856635084152222,0.031,0.024));
#1536=CARTESIAN_POINT('',(-0.0873364915847778,0.031,0.024));
#1537=CARTESIAN_POINT('',(-0.0873364915847778,0.029,0.024));
#1538=CARTESIAN_POINT('',(-0.0893364915847778,0.029,0.024));
#1539=CARTESIAN_POINT('',(-0.0893364915847778,-0.049,0.001));
#1540=CARTESIAN_POINT('',(-0.0893364915847778,-0.049,0.001));
#1541=CARTESIAN_POINT('',(-0.0893364915847778,-0.049,0.001));
#1542=CARTESIAN_POINT('',(0.0876635084152222,-0.049,0.001));
#1543=CARTESIAN_POINT('',(0.0876635084152222,-0.049,0.001));
#1544=CARTESIAN_POINT('',(0.0876635084152222,-0.049,0.001));
#1545=CARTESIAN_POINT('',(0.0856635084152222,0.029,0.024));
#1546=CARTESIAN_POINT('',(0.0876635084152222,0.029,0.024));
#1547=CARTESIAN_POINT('',(-0.0893364915847778,-0.02,0.024));
#1548=CARTESIAN_POINT('',(-0.0893364915847778,-0.049,0.024));
#1549=CARTESIAN_POINT('',(-0.0893364915847778,-0.049,0.025));
#1550=CARTESIAN_POINT('',(-0.0893364915847778,-0.049,0.024));
#1551=CARTESIAN_POINT('',(0.,-0.049,0.001));
#1552=CARTESIAN_POINT('',(-0.1015,-0.049,0.001));
#1553=CARTESIAN_POINT('',(0.,-0.049,0.001));
#1554=CARTESIAN_POINT('',(0.1015,-0.049,0.001));
#1555=CARTESIAN_POINT('',(0.0876635084152222,-0.049,-0.0385));
#1556=CARTESIAN_POINT('',(0.0876635084152222,-0.049,0.024));
#1557=CARTESIAN_POINT('',(0.0876635084152222,-1.04083408558608E-17,0.024));
#1558=CARTESIAN_POINT('',(0.0876635084152222,-0.049,0.024));
#1559=CARTESIAN_POINT('',(-0.0893364915847778,-0.049,0.024));
#1560=CARTESIAN_POINT('',(-0.0893364915847778,-0.049,0.024));
#1561=CARTESIAN_POINT('',(-0.1015,-0.049,0.001));
#1562=CARTESIAN_POINT('',(-0.1015,-0.049,0.001));
#1563=CARTESIAN_POINT('',(-0.1015,-0.049,0.001));
#1564=CARTESIAN_POINT('',(0.1015,-0.049,0.001));
#1565=CARTESIAN_POINT('',(0.1015,-0.049,0.001));
#1566=CARTESIAN_POINT('',(0.1015,-0.049,0.001));
#1567=CARTESIAN_POINT('',(0.0876635084152222,-0.049,0.024));
#1568=CARTESIAN_POINT('',(0.0876635084152222,-0.049,0.024));
#1569=CARTESIAN_POINT('',(1.38777878078145E-17,-0.049,0.024));
#1570=CARTESIAN_POINT('',(-0.1015,-0.049,0.024));
#1571=CARTESIAN_POINT('',(-0.1015,-0.049,0.025));
#1572=CARTESIAN_POINT('',(-0.1015,-0.049,0.024));
#1573=CARTESIAN_POINT('',(-0.1015,-7.07767178198537E-18,0.001));
#1574=CARTESIAN_POINT('',(-0.1015,0.049,0.001));
#1575=CARTESIAN_POINT('',(1.38777878078145E-17,0.049,0.001));
#1576=CARTESIAN_POINT('',(0.1015,0.049,0.001));
#1577=CARTESIAN_POINT('',(-0.1015,0.049,0.001));
#1578=CARTESIAN_POINT('',(0.1015,-2.44942954807925E-17,0.001));
#1579=CARTESIAN_POINT('',(0.1015,0.049,0.001));
#1580=CARTESIAN_POINT('',(0.1015,-0.049,0.025));
#1581=CARTESIAN_POINT('',(0.1015,-0.049,0.024));
#1582=CARTESIAN_POINT('',(1.38777878078145E-17,-0.049,0.024));
#1583=CARTESIAN_POINT('',(0.1015,-0.049,0.024));
#1584=CARTESIAN_POINT('',(-0.1015,-0.049,0.024));
#1585=CARTESIAN_POINT('',(-0.1015,-0.049,0.024));
#1586=CARTESIAN_POINT('',(-0.1015,0.049,0.001));
#1587=CARTESIAN_POINT('',(-0.1015,0.049,0.001));
#1588=CARTESIAN_POINT('',(0.1015,0.049,0.001));
#1589=CARTESIAN_POINT('',(0.1015,0.049,0.001));
#1590=CARTESIAN_POINT('',(0.1015,-0.049,0.024));
#1591=CARTESIAN_POINT('',(0.1015,-0.049,0.024));
#1592=CARTESIAN_POINT('',(-0.1015,3.67761376907084E-18,0.024));
#1593=CARTESIAN_POINT('',(-0.1015,0.049,0.024));
#1594=CARTESIAN_POINT('',(-0.1015,0.049,0.025));
#1595=CARTESIAN_POINT('',(-0.1015,0.049,0.024));
#1596=CARTESIAN_POINT('',(0.1015,0.049,0.025));
#1597=CARTESIAN_POINT('',(0.1015,0.049,0.024));
#1598=CARTESIAN_POINT('',(0.1015,-1.37390099297363E-17,0.024));
#1599=CARTESIAN_POINT('',(0.1015,0.049,0.024));
#1600=CARTESIAN_POINT('',(-0.1015,0.049,0.024));
#1601=CARTESIAN_POINT('',(-0.1015,0.049,0.024));
#1602=CARTESIAN_POINT('',(0.1015,0.049,0.024));
#1603=CARTESIAN_POINT('',(0.1015,0.049,0.024));
#1604=CARTESIAN_POINT('',(1.38777878078145E-17,0.049,0.024));
#1605=CARTESIAN_POINT('',(-0.0183999994730403,0.537645271778107,-0.0679288958311081));
#1606=CARTESIAN_POINT('',(-0.018065107986331,-0.065349765612185,-0.0681159167811275));
#1607=CARTESIAN_POINT('',(5.55111512312578E-17,0.1,0.015));
#1608=CARTESIAN_POINT('',(5.55111512312578E-17,0.1,0.));
#1609=CARTESIAN_POINT('',(-0.29845,0.1,0.));
#1610=CARTESIAN_POINT('',(0.29845,0.1,0.));
#1611=CARTESIAN_POINT('',(-0.29845,0.1,0.015));
#1612=CARTESIAN_POINT('',(-0.29845,0.1,0.015));
#1613=CARTESIAN_POINT('',(5.55111512312578E-17,0.1,0.015));
#1614=CARTESIAN_POINT('',(0.29845,0.1,0.015));
#1615=CARTESIAN_POINT('',(0.29845,0.1,0.015));
#1616=CARTESIAN_POINT('',(-0.29845,2.77555756156289E-17,0.015));
#1617=CARTESIAN_POINT('',(-0.29845,2.77555756156289E-17,0.));
#1618=CARTESIAN_POINT('',(-0.29845,-0.1,0.));
#1619=CARTESIAN_POINT('',(-0.29845,-0.1,0.015));
#1620=CARTESIAN_POINT('',(-0.29845,-0.1,0.015));
#1621=CARTESIAN_POINT('',(-0.29845,2.77555756156289E-17,0.015));
#1622=CARTESIAN_POINT('',(-5.55111512312578E-17,-0.1,0.015));
#1623=CARTESIAN_POINT('',(-5.55111512312578E-17,-0.1,0.));
#1624=CARTESIAN_POINT('',(0.29845,-0.1,0.));
#1625=CARTESIAN_POINT('',(0.29845,-0.1,0.015));
#1626=CARTESIAN_POINT('',(0.29845,-0.1,0.015));
#1627=CARTESIAN_POINT('',(-5.55111512312578E-17,-0.1,0.015));
#1628=CARTESIAN_POINT('',(0.29845,2.77555756156289E-17,0.015));
#1629=CARTESIAN_POINT('',(0.29845,2.77555756156289E-17,0.));
#1630=CARTESIAN_POINT('',(0.29845,2.77555756156289E-17,0.015));
#1631=CARTESIAN_POINT('',(0.,2.77555756156289E-17,0.015));
#1632=CARTESIAN_POINT('',(0.,2.77555756156289E-17,0.));
#1633=CARTESIAN_POINT('',(-0.0180907097021118,0.235999355077744,-0.0354999957810717));
#1634=CARTESIAN_POINT('',(-0.018000001777455,-0.672758050918579,-0.0695018835663795));
#1635=CARTESIAN_POINT('',(-0.0183090373846069,-0.0650673482358457,-0.0680702671468258));
#1636=CARTESIAN_POINT('',(-0.0180134121268988,-0.366100952863693,-0.0357134121268987));
#1637=MECHANICAL_DESIGN_GEOMETRIC_PRESENTATION_REPRESENTATION('',(#922,
#923),#1638);
#1638=(
GEOMETRIC_REPRESENTATION_CONTEXT(3)
GLOBAL_UNCERTAINTY_ASSIGNED_CONTEXT((#1641))
GLOBAL_UNIT_ASSIGNED_CONTEXT((#1646,#1645,#1644))
REPRESENTATION_CONTEXT('Assembly 1','TOP_LEVEL_ASSEMBLY_PART')
);
#1639=(
GEOMETRIC_REPRESENTATION_CONTEXT(3)
GLOBAL_UNCERTAINTY_ASSIGNED_CONTEXT((#1642))
GLOBAL_UNIT_ASSIGNED_CONTEXT((#1646,#1645,#1644))
REPRESENTATION_CONTEXT('Part 1','COMPONENT_PART')
);
#1640=(
GEOMETRIC_REPRESENTATION_CONTEXT(3)
GLOBAL_UNCERTAINTY_ASSIGNED_CONTEXT((#1643))
GLOBAL_UNIT_ASSIGNED_CONTEXT((#1646,#1645,#1644))
REPRESENTATION_CONTEXT('Part 1','COMPONENT_PART')
);
#1641=UNCERTAINTY_MEASURE_WITH_UNIT(LENGTH_MEASURE(1.E-8),#1646,
'DISTANCE_ACCURACY_VALUE','Maximum Tolerance applied to model');
#1642=UNCERTAINTY_MEASURE_WITH_UNIT(LENGTH_MEASURE(1.E-8),#1646,
'DISTANCE_ACCURACY_VALUE','Maximum Tolerance applied to model');
#1643=UNCERTAINTY_MEASURE_WITH_UNIT(LENGTH_MEASURE(1.E-8),#1646,
'DISTANCE_ACCURACY_VALUE','Maximum Tolerance applied to model');
#1644=(
NAMED_UNIT(*)
SI_UNIT($,.STERADIAN.)
SOLID_ANGLE_UNIT()
);
#1645=(
NAMED_UNIT(*)
PLANE_ANGLE_UNIT()
SI_UNIT($,.RADIAN.)
);
#1646=(
LENGTH_UNIT()
NAMED_UNIT(*)
SI_UNIT($,.METRE.)
);
#1647=PRODUCT_DEFINITION_SHAPE('','',#1656);
#1648=PRODUCT_DEFINITION_SHAPE('','',#1657);
#1649=PRODUCT_DEFINITION_SHAPE(' ','NAUO PRDDFN',#16);
#1650=PRODUCT_DEFINITION_SHAPE(' ','NAUO PRDDFN',#17);
#1651=PRODUCT_DEFINITION_SHAPE('','',#1658);
#1652=PRODUCT_DEFINITION_SHAPE(' ','NAUO PRDDFN',#18);
#1653=PRODUCT_DEFINITION_SHAPE(' ','NAUO PRDDFN',#19);
#1654=PRODUCT_DEFINITION_SHAPE(' ','NAUO PRDDFN',#20);
#1655=PRODUCT_DEFINITION_SHAPE(' ','NAUO PRDDFN',#21);
#1656=PRODUCT_DEFINITION('','',#1662,#1659);
#1657=PRODUCT_DEFINITION('','',#1663,#1660);
#1658=PRODUCT_DEFINITION('','',#1664,#1661);
#1659=PRODUCT_DEFINITION_CONTEXT('',#1678,'design');
#1660=PRODUCT_DEFINITION_CONTEXT('',#1678,'design');
#1661=PRODUCT_DEFINITION_CONTEXT('',#1678,'design');
#1662=PRODUCT_DEFINITION_FORMATION_WITH_SPECIFIED_SOURCE('','',#1668,
 .NOT_KNOWN.);
#1663=PRODUCT_DEFINITION_FORMATION_WITH_SPECIFIED_SOURCE('','',#1669,
 .NOT_KNOWN.);
#1664=PRODUCT_DEFINITION_FORMATION_WITH_SPECIFIED_SOURCE('','',#1670,
 .NOT_KNOWN.);
#1665=PRODUCT_RELATED_PRODUCT_CATEGORY('','',(#1668));
#1666=PRODUCT_RELATED_PRODUCT_CATEGORY('','',(#1669));
#1667=PRODUCT_RELATED_PRODUCT_CATEGORY('','',(#1670));
#1668=PRODUCT('Assembly 1','Assembly 1','Assembly 1',(#1674));
#1669=PRODUCT('Part 1','Part 1','Part 1',(#1675));
#1670=PRODUCT('Part 1','Part 1','Part 1',(#1676));
#1671=PRODUCT_CATEGORY('','');
#1672=PRODUCT_CATEGORY('','');
#1673=PRODUCT_CATEGORY('','');
#1674=PRODUCT_CONTEXT('',#1678,'mechanical');
#1675=PRODUCT_CONTEXT('',#1678,'mechanical');
#1676=PRODUCT_CONTEXT('',#1678,'mechanical');
#1677=APPLICATION_PROTOCOL_DEFINITION('international standard',
'ap242_managed_model_based_3d_engineering',2020,#1678);
#1678=APPLICATION_CONTEXT('managed model based 3d engineering');
ENDSEC;
END-ISO-10303-21;
