ISO-10303-21;
HEADER;
/* Generated by software containing ST-Developer
 * from STEP Tools, Inc. (www.steptools.com) 
 */
/* OPTION: using custom renumber hook */

FILE_DESCRIPTION(
/* description */ ('STEP AP242 Edition 2',
'CAx-IF Rec.Pracs.---Representation and Presentation of Product Manufa
cturing Information (PMI)---4.0---2014-10-13',
'CAx-IF Rec.Pracs.---3D Tessellated Geometry---0.4---2014-09-14','2;1',
'CAx-IF Rec.Pracs.---User Defined Attributes---1.5---2016-08-15'),
/* implementation_level */ '2;1');

FILE_NAME(
/* name */ 'Part Studio 1',
/* time_stamp */ '2026-08-02T23:24:58Z',
/* author */ (''),
/* organization */ (''),
/* preprocessor_version */ 'ST-DEVELOPER v20',
/* originating_system */ 'ONSHAPE BY PTC INC, 1.218',
/* authorisation */ '  ');

FILE_SCHEMA (('AP242_MANAGED_MODEL_BASED_3D_ENGINEERING_MIM_LF { 1 0 10303 442 3 1 4 }'));
ENDSEC;

DATA;
#10=SHAPE_REPRESENTATION_RELATIONSHIP('','',#813,#11);
#11=ADVANCED_BREP_SHAPE_REPRESENTATION('',(#811),#1427);
#12=SPHERICAL_SURFACE('',#856,0.001);
#13=SPHERICAL_SURFACE('',#859,0.001);
#14=SPHERICAL_SURFACE('',#876,0.001);
#15=SPHERICAL_SURFACE('',#878,0.001);
#16=SPHERICAL_SURFACE('',#881,0.001);
#17=SPHERICAL_SURFACE('',#884,0.001);
#18=SPHERICAL_SURFACE('',#901,0.001);
#19=SPHERICAL_SURFACE('',#903,0.001);
#20=SPHERICAL_SURFACE('',#905,0.001);
#21=SPHERICAL_SURFACE('',#907,0.001);
#22=SPHERICAL_SURFACE('',#917,0.001);
#23=SPHERICAL_SURFACE('',#919,0.001);
#24=TOROIDAL_SURFACE('',#837,0.002,0.001);
#25=TOROIDAL_SURFACE('',#840,0.002,0.001);
#26=TOROIDAL_SURFACE('',#854,0.002,0.001);
#27=TOROIDAL_SURFACE('',#862,0.002,0.001);
#28=CYLINDRICAL_SURFACE('',#834,0.001);
#29=CYLINDRICAL_SURFACE('',#843,0.001);
#30=CYLINDRICAL_SURFACE('',#845,0.001);
#31=CYLINDRICAL_SURFACE('',#847,0.001);
#32=CYLINDRICAL_SURFACE('',#849,0.001);
#33=CYLINDRICAL_SURFACE('',#851,0.001);
#34=CYLINDRICAL_SURFACE('',#864,0.001);
#35=CYLINDRICAL_SURFACE('',#866,0.001);
#36=CYLINDRICAL_SURFACE('',#868,0.001);
#37=CYLINDRICAL_SURFACE('',#870,0.001);
#38=CYLINDRICAL_SURFACE('',#872,0.001);
#39=CYLINDRICAL_SURFACE('',#874,0.001);
#40=CYLINDRICAL_SURFACE('',#886,0.001);
#41=CYLINDRICAL_SURFACE('',#888,0.001);
#42=CYLINDRICAL_SURFACE('',#890,0.001);
#43=CYLINDRICAL_SURFACE('',#892,0.001);
#44=CYLINDRICAL_SURFACE('',#895,0.001);
#45=CYLINDRICAL_SURFACE('',#897,0.001);
#46=CYLINDRICAL_SURFACE('',#899,0.001);
#47=CYLINDRICAL_SURFACE('',#909,0.001);
#48=CYLINDRICAL_SURFACE('',#911,0.001);
#49=CYLINDRICAL_SURFACE('',#913,0.001);
#50=CYLINDRICAL_SURFACE('',#915,0.001);
#51=CYLINDRICAL_SURFACE('',#921,0.001);
#52=LINE('',#1203,#112);
#53=LINE('',#1207,#113);
#54=LINE('',#1209,#114);
#55=LINE('',#1211,#115);
#56=LINE('',#1213,#116);
#57=LINE('',#1215,#117);
#58=LINE('',#1217,#118);
#59=LINE('',#1219,#119);
#60=LINE('',#1221,#120);
#61=LINE('',#1224,#121);
#62=LINE('',#1226,#122);
#63=LINE('',#1228,#123);
#64=LINE('',#1232,#124);
#65=LINE('',#1234,#125);
#66=LINE('',#1236,#126);
#67=LINE('',#1238,#127);
#68=LINE('',#1240,#128);
#69=LINE('',#1242,#129);
#70=LINE('',#1244,#130);
#71=LINE('',#1248,#131);
#72=LINE('',#1250,#132);
#73=LINE('',#1253,#133);
#74=LINE('',#1255,#134);
#75=LINE('',#1257,#135);
#76=LINE('',#1259,#136);
#77=LINE('',#1262,#137);
#78=LINE('',#1264,#138);
#79=LINE('',#1266,#139);
#80=LINE('',#1268,#140);
#81=LINE('',#1271,#141);
#82=LINE('',#1273,#142);
#83=LINE('',#1275,#143);
#84=LINE('',#1277,#144);
#85=LINE('',#1280,#145);
#86=LINE('',#1282,#146);
#87=LINE('',#1284,#147);
#88=LINE('',#1286,#148);
#89=LINE('',#1289,#149);
#90=LINE('',#1291,#150);
#91=LINE('',#1293,#151);
#92=LINE('',#1295,#152);
#93=LINE('',#1297,#153);
#94=LINE('',#1299,#154);
#95=LINE('',#1301,#155);
#96=LINE('',#1303,#156);
#97=LINE('',#1305,#157);
#98=LINE('',#1307,#158);
#99=LINE('',#1309,#159);
#100=LINE('',#1312,#160);
#101=LINE('',#1315,#161);
#102=LINE('',#1317,#162);
#103=LINE('',#1319,#163);
#104=LINE('',#1321,#164);
#105=LINE('',#1324,#165);
#106=LINE('',#1326,#166);
#107=LINE('',#1328,#167);
#108=LINE('',#1330,#168);
#109=LINE('',#1333,#169);
#110=LINE('',#1335,#170);
#111=LINE('',#1337,#171);
#112=VECTOR('',#928,1.);
#113=VECTOR('',#931,1.);
#114=VECTOR('',#932,1.);
#115=VECTOR('',#933,1.);
#116=VECTOR('',#934,1.);
#117=VECTOR('',#935,1.);
#118=VECTOR('',#936,1.);
#119=VECTOR('',#937,1.);
#120=VECTOR('',#940,1.);
#121=VECTOR('',#941,1.);
#122=VECTOR('',#942,1.);
#123=VECTOR('',#943,1.);
#124=VECTOR('',#946,1.);
#125=VECTOR('',#947,1.);
#126=VECTOR('',#948,1.);
#127=VECTOR('',#949,1.);
#128=VECTOR('',#950,1.);
#129=VECTOR('',#951,1.);
#130=VECTOR('',#952,1.);
#131=VECTOR('',#955,1.);
#132=VECTOR('',#958,1.);
#133=VECTOR('',#959,1.);
#134=VECTOR('',#960,1.);
#135=VECTOR('',#961,1.);
#136=VECTOR('',#964,1.);
#137=VECTOR('',#965,1.);
#138=VECTOR('',#966,1.);
#139=VECTOR('',#967,1.);
#140=VECTOR('',#970,1.);
#141=VECTOR('',#971,1.);
#142=VECTOR('',#972,1.);
#143=VECTOR('',#973,1.);
#144=VECTOR('',#976,1.);
#145=VECTOR('',#977,1.);
#146=VECTOR('',#978,1.);
#147=VECTOR('',#979,1.);
#148=VECTOR('',#982,1.);
#149=VECTOR('',#983,1.);
#150=VECTOR('',#984,1.);
#151=VECTOR('',#985,1.);
#152=VECTOR('',#988,1.);
#153=VECTOR('',#989,1.);
#154=VECTOR('',#990,1.);
#155=VECTOR('',#993,1.);
#156=VECTOR('',#994,1.);
#157=VECTOR('',#997,1.);
#158=VECTOR('',#998,1.);
#159=VECTOR('',#1001,1.);
#160=VECTOR('',#1006,1.);
#161=VECTOR('',#1007,1.);
#162=VECTOR('',#1008,1.);
#163=VECTOR('',#1009,1.);
#164=VECTOR('',#1012,1.);
#165=VECTOR('',#1013,1.);
#166=VECTOR('',#1014,1.);
#167=VECTOR('',#1015,1.);
#168=VECTOR('',#1018,1.);
#169=VECTOR('',#1019,1.);
#170=VECTOR('',#1020,1.);
#171=VECTOR('',#1021,1.);
#172=ORIENTED_EDGE('',*,*,#396,.F.);
#173=ORIENTED_EDGE('',*,*,#397,.T.);
#174=ORIENTED_EDGE('',*,*,#398,.F.);
#175=ORIENTED_EDGE('',*,*,#399,.T.);
#176=ORIENTED_EDGE('',*,*,#400,.T.);
#177=ORIENTED_EDGE('',*,*,#401,.T.);
#178=ORIENTED_EDGE('',*,*,#402,.T.);
#179=ORIENTED_EDGE('',*,*,#403,.T.);
#180=ORIENTED_EDGE('',*,*,#404,.T.);
#181=ORIENTED_EDGE('',*,*,#405,.T.);
#182=ORIENTED_EDGE('',*,*,#406,.F.);
#183=ORIENTED_EDGE('',*,*,#407,.T.);
#184=ORIENTED_EDGE('',*,*,#408,.T.);
#185=ORIENTED_EDGE('',*,*,#409,.F.);
#186=ORIENTED_EDGE('',*,*,#410,.F.);
#187=ORIENTED_EDGE('',*,*,#411,.T.);
#188=ORIENTED_EDGE('',*,*,#412,.T.);
#189=ORIENTED_EDGE('',*,*,#413,.T.);
#190=ORIENTED_EDGE('',*,*,#414,.T.);
#191=ORIENTED_EDGE('',*,*,#415,.T.);
#192=ORIENTED_EDGE('',*,*,#416,.T.);
#193=ORIENTED_EDGE('',*,*,#417,.T.);
#194=ORIENTED_EDGE('',*,*,#418,.F.);
#195=ORIENTED_EDGE('',*,*,#419,.T.);
#196=ORIENTED_EDGE('',*,*,#420,.T.);
#197=ORIENTED_EDGE('',*,*,#421,.T.);
#198=ORIENTED_EDGE('',*,*,#422,.T.);
#199=ORIENTED_EDGE('',*,*,#423,.T.);
#200=ORIENTED_EDGE('',*,*,#424,.T.);
#201=ORIENTED_EDGE('',*,*,#425,.T.);
#202=ORIENTED_EDGE('',*,*,#426,.T.);
#203=ORIENTED_EDGE('',*,*,#427,.T.);
#204=ORIENTED_EDGE('',*,*,#428,.T.);
#205=ORIENTED_EDGE('',*,*,#429,.T.);
#206=ORIENTED_EDGE('',*,*,#430,.T.);
#207=ORIENTED_EDGE('',*,*,#431,.T.);
#208=ORIENTED_EDGE('',*,*,#432,.T.);
#209=ORIENTED_EDGE('',*,*,#433,.T.);
#210=ORIENTED_EDGE('',*,*,#434,.T.);
#211=ORIENTED_EDGE('',*,*,#435,.T.);
#212=ORIENTED_EDGE('',*,*,#436,.T.);
#213=ORIENTED_EDGE('',*,*,#437,.T.);
#214=ORIENTED_EDGE('',*,*,#438,.T.);
#215=ORIENTED_EDGE('',*,*,#439,.T.);
#216=ORIENTED_EDGE('',*,*,#407,.F.);
#217=ORIENTED_EDGE('',*,*,#440,.F.);
#218=ORIENTED_EDGE('',*,*,#441,.T.);
#219=ORIENTED_EDGE('',*,*,#442,.T.);
#220=ORIENTED_EDGE('',*,*,#406,.T.);
#221=ORIENTED_EDGE('',*,*,#443,.F.);
#222=ORIENTED_EDGE('',*,*,#444,.F.);
#223=ORIENTED_EDGE('',*,*,#440,.T.);
#224=ORIENTED_EDGE('',*,*,#409,.T.);
#225=ORIENTED_EDGE('',*,*,#445,.F.);
#226=ORIENTED_EDGE('',*,*,#446,.F.);
#227=ORIENTED_EDGE('',*,*,#443,.T.);
#228=ORIENTED_EDGE('',*,*,#408,.F.);
#229=ORIENTED_EDGE('',*,*,#442,.F.);
#230=ORIENTED_EDGE('',*,*,#447,.T.);
#231=ORIENTED_EDGE('',*,*,#445,.T.);
#232=ORIENTED_EDGE('',*,*,#441,.F.);
#233=ORIENTED_EDGE('',*,*,#444,.T.);
#234=ORIENTED_EDGE('',*,*,#446,.T.);
#235=ORIENTED_EDGE('',*,*,#447,.F.);
#236=ORIENTED_EDGE('',*,*,#448,.T.);
#237=ORIENTED_EDGE('',*,*,#449,.T.);
#238=ORIENTED_EDGE('',*,*,#450,.T.);
#239=ORIENTED_EDGE('',*,*,#451,.T.);
#240=ORIENTED_EDGE('',*,*,#452,.T.);
#241=ORIENTED_EDGE('',*,*,#453,.T.);
#242=ORIENTED_EDGE('',*,*,#454,.T.);
#243=ORIENTED_EDGE('',*,*,#455,.T.);
#244=ORIENTED_EDGE('',*,*,#456,.T.);
#245=ORIENTED_EDGE('',*,*,#457,.T.);
#246=ORIENTED_EDGE('',*,*,#458,.T.);
#247=ORIENTED_EDGE('',*,*,#459,.T.);
#248=ORIENTED_EDGE('',*,*,#460,.F.);
#249=ORIENTED_EDGE('',*,*,#397,.F.);
#250=ORIENTED_EDGE('',*,*,#461,.F.);
#251=ORIENTED_EDGE('',*,*,#451,.F.);
#252=ORIENTED_EDGE('',*,*,#398,.T.);
#253=ORIENTED_EDGE('',*,*,#460,.T.);
#254=ORIENTED_EDGE('',*,*,#462,.F.);
#255=ORIENTED_EDGE('',*,*,#463,.F.);
#256=ORIENTED_EDGE('',*,*,#461,.T.);
#257=ORIENTED_EDGE('',*,*,#396,.T.);
#258=ORIENTED_EDGE('',*,*,#464,.F.);
#259=ORIENTED_EDGE('',*,*,#465,.F.);
#260=ORIENTED_EDGE('',*,*,#462,.T.);
#261=ORIENTED_EDGE('',*,*,#450,.F.);
#262=ORIENTED_EDGE('',*,*,#466,.F.);
#263=ORIENTED_EDGE('',*,*,#452,.F.);
#264=ORIENTED_EDGE('',*,*,#463,.T.);
#265=ORIENTED_EDGE('',*,*,#455,.F.);
#266=ORIENTED_EDGE('',*,*,#467,.F.);
#267=ORIENTED_EDGE('',*,*,#399,.F.);
#268=ORIENTED_EDGE('',*,*,#464,.T.);
#269=ORIENTED_EDGE('',*,*,#405,.F.);
#270=ORIENTED_EDGE('',*,*,#468,.F.);
#271=ORIENTED_EDGE('',*,*,#459,.F.);
#272=ORIENTED_EDGE('',*,*,#465,.T.);
#273=ORIENTED_EDGE('',*,*,#458,.F.);
#274=ORIENTED_EDGE('',*,*,#469,.F.);
#275=ORIENTED_EDGE('',*,*,#448,.F.);
#276=ORIENTED_EDGE('',*,*,#470,.F.);
#277=ORIENTED_EDGE('',*,*,#419,.F.);
#278=ORIENTED_EDGE('',*,*,#471,.F.);
#279=ORIENTED_EDGE('',*,*,#449,.F.);
#280=ORIENTED_EDGE('',*,*,#471,.T.);
#281=ORIENTED_EDGE('',*,*,#418,.T.);
#282=ORIENTED_EDGE('',*,*,#472,.F.);
#283=ORIENTED_EDGE('',*,*,#466,.T.);
#284=ORIENTED_EDGE('',*,*,#473,.F.);
#285=ORIENTED_EDGE('',*,*,#467,.T.);
#286=ORIENTED_EDGE('',*,*,#474,.F.);
#287=ORIENTED_EDGE('',*,*,#475,.F.);
#288=ORIENTED_EDGE('',*,*,#468,.T.);
#289=ORIENTED_EDGE('',*,*,#476,.F.);
#290=ORIENTED_EDGE('',*,*,#470,.T.);
#291=ORIENTED_EDGE('',*,*,#469,.T.);
#292=ORIENTED_EDGE('',*,*,#477,.F.);
#293=ORIENTED_EDGE('',*,*,#410,.T.);
#294=ORIENTED_EDGE('',*,*,#472,.T.);
#295=ORIENTED_EDGE('',*,*,#417,.F.);
#296=ORIENTED_EDGE('',*,*,#478,.F.);
#297=ORIENTED_EDGE('',*,*,#453,.F.);
#298=ORIENTED_EDGE('',*,*,#474,.T.);
#299=ORIENTED_EDGE('',*,*,#454,.F.);
#300=ORIENTED_EDGE('',*,*,#479,.F.);
#301=ORIENTED_EDGE('',*,*,#432,.F.);
#302=ORIENTED_EDGE('',*,*,#473,.T.);
#303=ORIENTED_EDGE('',*,*,#435,.F.);
#304=ORIENTED_EDGE('',*,*,#480,.F.);
#305=ORIENTED_EDGE('',*,*,#400,.F.);
#306=ORIENTED_EDGE('',*,*,#476,.T.);
#307=ORIENTED_EDGE('',*,*,#404,.F.);
#308=ORIENTED_EDGE('',*,*,#481,.F.);
#309=ORIENTED_EDGE('',*,*,#423,.F.);
#310=ORIENTED_EDGE('',*,*,#475,.T.);
#311=ORIENTED_EDGE('',*,*,#422,.F.);
#312=ORIENTED_EDGE('',*,*,#482,.F.);
#313=ORIENTED_EDGE('',*,*,#456,.F.);
#314=ORIENTED_EDGE('',*,*,#477,.T.);
#315=ORIENTED_EDGE('',*,*,#457,.F.);
#316=ORIENTED_EDGE('',*,*,#483,.F.);
#317=ORIENTED_EDGE('',*,*,#411,.F.);
#318=ORIENTED_EDGE('',*,*,#479,.T.);
#319=ORIENTED_EDGE('',*,*,#478,.T.);
#320=ORIENTED_EDGE('',*,*,#484,.F.);
#321=ORIENTED_EDGE('',*,*,#485,.F.);
#322=ORIENTED_EDGE('',*,*,#480,.T.);
#323=ORIENTED_EDGE('',*,*,#486,.F.);
#324=ORIENTED_EDGE('',*,*,#487,.F.);
#325=ORIENTED_EDGE('',*,*,#481,.T.);
#326=ORIENTED_EDGE('',*,*,#488,.F.);
#327=ORIENTED_EDGE('',*,*,#483,.T.);
#328=ORIENTED_EDGE('',*,*,#482,.T.);
#329=ORIENTED_EDGE('',*,*,#489,.F.);
#330=ORIENTED_EDGE('',*,*,#484,.T.);
#331=ORIENTED_EDGE('',*,*,#416,.F.);
#332=ORIENTED_EDGE('',*,*,#490,.F.);
#333=ORIENTED_EDGE('',*,*,#433,.F.);
#334=ORIENTED_EDGE('',*,*,#486,.T.);
#335=ORIENTED_EDGE('',*,*,#434,.F.);
#336=ORIENTED_EDGE('',*,*,#491,.F.);
#337=ORIENTED_EDGE('',*,*,#429,.F.);
#338=ORIENTED_EDGE('',*,*,#485,.T.);
#339=ORIENTED_EDGE('',*,*,#428,.F.);
#340=ORIENTED_EDGE('',*,*,#492,.F.);
#341=ORIENTED_EDGE('',*,*,#401,.F.);
#342=ORIENTED_EDGE('',*,*,#493,.F.);
#343=ORIENTED_EDGE('',*,*,#402,.F.);
#344=ORIENTED_EDGE('',*,*,#494,.F.);
#345=ORIENTED_EDGE('',*,*,#427,.F.);
#346=ORIENTED_EDGE('',*,*,#488,.T.);
#347=ORIENTED_EDGE('',*,*,#403,.F.);
#348=ORIENTED_EDGE('',*,*,#495,.F.);
#349=ORIENTED_EDGE('',*,*,#439,.F.);
#350=ORIENTED_EDGE('',*,*,#487,.T.);
#351=ORIENTED_EDGE('',*,*,#438,.F.);
#352=ORIENTED_EDGE('',*,*,#496,.F.);
#353=ORIENTED_EDGE('',*,*,#420,.F.);
#354=ORIENTED_EDGE('',*,*,#489,.T.);
#355=ORIENTED_EDGE('',*,*,#421,.F.);
#356=ORIENTED_EDGE('',*,*,#497,.F.);
#357=ORIENTED_EDGE('',*,*,#412,.F.);
#358=ORIENTED_EDGE('',*,*,#491,.T.);
#359=ORIENTED_EDGE('',*,*,#490,.T.);
#360=ORIENTED_EDGE('',*,*,#498,.F.);
#361=ORIENTED_EDGE('',*,*,#494,.T.);
#362=ORIENTED_EDGE('',*,*,#492,.T.);
#363=ORIENTED_EDGE('',*,*,#499,.F.);
#364=ORIENTED_EDGE('',*,*,#495,.T.);
#365=ORIENTED_EDGE('',*,*,#493,.T.);
#366=ORIENTED_EDGE('',*,*,#500,.F.);
#367=ORIENTED_EDGE('',*,*,#497,.T.);
#368=ORIENTED_EDGE('',*,*,#496,.T.);
#369=ORIENTED_EDGE('',*,*,#501,.F.);
#370=ORIENTED_EDGE('',*,*,#498,.T.);
#371=ORIENTED_EDGE('',*,*,#415,.F.);
#372=ORIENTED_EDGE('',*,*,#502,.F.);
#373=ORIENTED_EDGE('',*,*,#430,.F.);
#374=ORIENTED_EDGE('',*,*,#499,.T.);
#375=ORIENTED_EDGE('',*,*,#431,.F.);
#376=ORIENTED_EDGE('',*,*,#503,.F.);
#377=ORIENTED_EDGE('',*,*,#424,.F.);
#378=ORIENTED_EDGE('',*,*,#500,.T.);
#379=ORIENTED_EDGE('',*,*,#426,.F.);
#380=ORIENTED_EDGE('',*,*,#504,.F.);
#381=ORIENTED_EDGE('',*,*,#436,.F.);
#382=ORIENTED_EDGE('',*,*,#501,.T.);
#383=ORIENTED_EDGE('',*,*,#437,.F.);
#384=ORIENTED_EDGE('',*,*,#505,.F.);
#385=ORIENTED_EDGE('',*,*,#413,.F.);
#386=ORIENTED_EDGE('',*,*,#503,.T.);
#387=ORIENTED_EDGE('',*,*,#502,.T.);
#388=ORIENTED_EDGE('',*,*,#506,.F.);
#389=ORIENTED_EDGE('',*,*,#505,.T.);
#390=ORIENTED_EDGE('',*,*,#504,.T.);
#391=ORIENTED_EDGE('',*,*,#507,.F.);
#392=ORIENTED_EDGE('',*,*,#506,.T.);
#393=ORIENTED_EDGE('',*,*,#414,.F.);
#394=ORIENTED_EDGE('',*,*,#507,.T.);
#395=ORIENTED_EDGE('',*,*,#425,.F.);
#396=EDGE_CURVE('',#508,#509,#568,.F.);
#397=EDGE_CURVE('',#508,#510,#52,.F.);
#398=EDGE_CURVE('',#511,#510,#569,.F.);
#399=EDGE_CURVE('',#511,#512,#53,.T.);
#400=EDGE_CURVE('',#512,#513,#54,.F.);
#401=EDGE_CURVE('',#513,#514,#55,.F.);
#402=EDGE_CURVE('',#514,#515,#56,.T.);
#403=EDGE_CURVE('',#515,#516,#57,.T.);
#404=EDGE_CURVE('',#516,#517,#58,.F.);
#405=EDGE_CURVE('',#517,#509,#59,.F.);
#406=EDGE_CURVE('',#518,#519,#60,.T.);
#407=EDGE_CURVE('',#518,#520,#61,.T.);
#408=EDGE_CURVE('',#520,#521,#62,.T.);
#409=EDGE_CURVE('',#519,#521,#63,.T.);
#410=EDGE_CURVE('',#522,#523,#570,.T.);
#411=EDGE_CURVE('',#522,#524,#64,.T.);
#412=EDGE_CURVE('',#524,#525,#65,.T.);
#413=EDGE_CURVE('',#525,#526,#66,.F.);
#414=EDGE_CURVE('',#526,#527,#67,.F.);
#415=EDGE_CURVE('',#527,#528,#68,.T.);
#416=EDGE_CURVE('',#528,#529,#69,.T.);
#417=EDGE_CURVE('',#529,#530,#70,.F.);
#418=EDGE_CURVE('',#531,#530,#571,.T.);
#419=EDGE_CURVE('',#531,#523,#71,.T.);
#420=EDGE_CURVE('',#532,#533,#72,.F.);
#421=EDGE_CURVE('',#533,#534,#73,.F.);
#422=EDGE_CURVE('',#534,#535,#74,.F.);
#423=EDGE_CURVE('',#535,#532,#75,.T.);
#424=EDGE_CURVE('',#536,#537,#76,.F.);
#425=EDGE_CURVE('',#537,#538,#77,.T.);
#426=EDGE_CURVE('',#538,#539,#78,.T.);
#427=EDGE_CURVE('',#539,#536,#79,.F.);
#428=EDGE_CURVE('',#540,#541,#80,.T.);
#429=EDGE_CURVE('',#541,#542,#81,.F.);
#430=EDGE_CURVE('',#542,#543,#82,.F.);
#431=EDGE_CURVE('',#543,#540,#83,.T.);
#432=EDGE_CURVE('',#544,#545,#84,.T.);
#433=EDGE_CURVE('',#545,#546,#85,.F.);
#434=EDGE_CURVE('',#546,#547,#86,.T.);
#435=EDGE_CURVE('',#547,#544,#87,.T.);
#436=EDGE_CURVE('',#548,#549,#88,.F.);
#437=EDGE_CURVE('',#549,#550,#89,.T.);
#438=EDGE_CURVE('',#550,#551,#90,.T.);
#439=EDGE_CURVE('',#551,#548,#91,.F.);
#440=EDGE_CURVE('',#552,#518,#92,.T.);
#441=EDGE_CURVE('',#552,#553,#93,.T.);
#442=EDGE_CURVE('',#553,#520,#94,.T.);
#443=EDGE_CURVE('',#554,#519,#95,.T.);
#444=EDGE_CURVE('',#552,#554,#96,.T.);
#445=EDGE_CURVE('',#555,#521,#97,.T.);
#446=EDGE_CURVE('',#554,#555,#98,.T.);
#447=EDGE_CURVE('',#553,#555,#99,.T.);
#448=EDGE_CURVE('',#556,#557,#100,.T.);
#449=EDGE_CURVE('',#557,#558,#101,.F.);
#450=EDGE_CURVE('',#558,#559,#102,.F.);
#451=EDGE_CURVE('',#559,#556,#103,.T.);
#452=EDGE_CURVE('',#560,#561,#104,.T.);
#453=EDGE_CURVE('',#561,#562,#105,.T.);
#454=EDGE_CURVE('',#562,#563,#106,.F.);
#455=EDGE_CURVE('',#563,#560,#107,.F.);
#456=EDGE_CURVE('',#564,#565,#108,.T.);
#457=EDGE_CURVE('',#565,#566,#109,.F.);
#458=EDGE_CURVE('',#566,#567,#110,.F.);
#459=EDGE_CURVE('',#567,#564,#111,.T.);
#460=EDGE_CURVE('',#510,#559,#572,.T.);
#461=EDGE_CURVE('',#556,#508,#573,.T.);
#462=EDGE_CURVE('',#560,#559,#574,.F.);
#463=EDGE_CURVE('',#511,#560,#575,.F.);
#464=EDGE_CURVE('',#567,#509,#576,.F.);
#465=EDGE_CURVE('',#556,#567,#577,.F.);
#466=EDGE_CURVE('',#561,#558,#578,.F.);
#467=EDGE_CURVE('',#512,#563,#579,.T.);
#468=EDGE_CURVE('',#564,#517,#580,.T.);
#469=EDGE_CURVE('',#557,#566,#581,.F.);
#470=EDGE_CURVE('',#523,#557,#582,.T.);
#471=EDGE_CURVE('',#558,#531,#583,.T.);
#472=EDGE_CURVE('',#561,#530,#584,.F.);
#473=EDGE_CURVE('',#512,#544,#585,.F.);
#474=EDGE_CURVE('',#544,#563,#586,.F.);
#475=EDGE_CURVE('',#564,#535,#587,.F.);
#476=EDGE_CURVE('',#535,#517,#588,.F.);
#477=EDGE_CURVE('',#522,#566,#589,.F.);
#478=EDGE_CURVE('',#562,#529,#590,.T.);
#479=EDGE_CURVE('',#545,#562,#591,.T.);
#480=EDGE_CURVE('',#513,#547,#592,.T.);
#481=EDGE_CURVE('',#532,#516,#593,.T.);
#482=EDGE_CURVE('',#565,#534,#594,.T.);
#483=EDGE_CURVE('',#524,#565,#595,.T.);
#484=EDGE_CURVE('',#545,#529,#596,.F.);
#485=EDGE_CURVE('',#513,#541,#597,.F.);
#486=EDGE_CURVE('',#541,#547,#598,.F.);
#487=EDGE_CURVE('',#532,#551,#599,.F.);
#488=EDGE_CURVE('',#551,#516,#600,.F.);
#489=EDGE_CURVE('',#524,#534,#601,.F.);
#490=EDGE_CURVE('',#546,#528,#602,.T.);
#491=EDGE_CURVE('',#542,#546,#603,.T.);
#492=EDGE_CURVE('',#514,#540,#604,.T.);
#493=EDGE_CURVE('',#515,#539,#605,.T.);
#494=EDGE_CURVE('',#536,#514,#606,.T.);
#495=EDGE_CURVE('',#548,#515,#607,.T.);
#496=EDGE_CURVE('',#533,#550,#608,.T.);
#497=EDGE_CURVE('',#525,#533,#609,.T.);
#498=EDGE_CURVE('',#542,#528,#610,.F.);
#499=EDGE_CURVE('',#536,#540,#611,.F.);
#500=EDGE_CURVE('',#548,#539,#612,.F.);
#501=EDGE_CURVE('',#525,#550,#613,.F.);
#502=EDGE_CURVE('',#543,#527,#614,.T.);
#503=EDGE_CURVE('',#537,#543,#615,.T.);
#504=EDGE_CURVE('',#549,#538,#616,.T.);
#505=EDGE_CURVE('',#526,#549,#617,.T.);
#506=EDGE_CURVE('',#537,#527,#618,.F.);
#507=EDGE_CURVE('',#526,#538,#619,.F.);
#508=VERTEX_POINT('',#1201);
#509=VERTEX_POINT('',#1202);
#510=VERTEX_POINT('',#1204);
#511=VERTEX_POINT('',#1206);
#512=VERTEX_POINT('',#1208);
#513=VERTEX_POINT('',#1210);
#514=VERTEX_POINT('',#1212);
#515=VERTEX_POINT('',#1214);
#516=VERTEX_POINT('',#1216);
#517=VERTEX_POINT('',#1218);
#518=VERTEX_POINT('',#1222);
#519=VERTEX_POINT('',#1223);
#520=VERTEX_POINT('',#1225);
#521=VERTEX_POINT('',#1227);
#522=VERTEX_POINT('',#1230);
#523=VERTEX_POINT('',#1231);
#524=VERTEX_POINT('',#1233);
#525=VERTEX_POINT('',#1235);
#526=VERTEX_POINT('',#1237);
#527=VERTEX_POINT('',#1239);
#528=VERTEX_POINT('',#1241);
#529=VERTEX_POINT('',#1243);
#530=VERTEX_POINT('',#1245);
#531=VERTEX_POINT('',#1247);
#532=VERTEX_POINT('',#1251);
#533=VERTEX_POINT('',#1252);
#534=VERTEX_POINT('',#1254);
#535=VERTEX_POINT('',#1256);
#536=VERTEX_POINT('',#1260);
#537=VERTEX_POINT('',#1261);
#538=VERTEX_POINT('',#1263);
#539=VERTEX_POINT('',#1265);
#540=VERTEX_POINT('',#1269);
#541=VERTEX_POINT('',#1270);
#542=VERTEX_POINT('',#1272);
#543=VERTEX_POINT('',#1274);
#544=VERTEX_POINT('',#1278);
#545=VERTEX_POINT('',#1279);
#546=VERTEX_POINT('',#1281);
#547=VERTEX_POINT('',#1283);
#548=VERTEX_POINT('',#1287);
#549=VERTEX_POINT('',#1288);
#550=VERTEX_POINT('',#1290);
#551=VERTEX_POINT('',#1292);
#552=VERTEX_POINT('',#1296);
#553=VERTEX_POINT('',#1298);
#554=VERTEX_POINT('',#1302);
#555=VERTEX_POINT('',#1306);
#556=VERTEX_POINT('',#1313);
#557=VERTEX_POINT('',#1314);
#558=VERTEX_POINT('',#1316);
#559=VERTEX_POINT('',#1318);
#560=VERTEX_POINT('',#1322);
#561=VERTEX_POINT('',#1323);
#562=VERTEX_POINT('',#1325);
#563=VERTEX_POINT('',#1327);
#564=VERTEX_POINT('',#1331);
#565=VERTEX_POINT('',#1332);
#566=VERTEX_POINT('',#1334);
#567=VERTEX_POINT('',#1336);
#568=CIRCLE('',#816,0.002);
#569=CIRCLE('',#817,0.002);
#570=CIRCLE('',#819,0.002);
#571=CIRCLE('',#820,0.002);
#572=CIRCLE('',#835,0.001);
#573=CIRCLE('',#836,0.001);
#574=CIRCLE('',#838,0.001);
#575=CIRCLE('',#839,0.001);
#576=CIRCLE('',#841,0.001);
#577=CIRCLE('',#842,0.001);
#578=CIRCLE('',#844,0.001);
#579=CIRCLE('',#846,0.001);
#580=CIRCLE('',#848,0.001);
#581=CIRCLE('',#850,0.001);
#582=CIRCLE('',#852,0.001);
#583=CIRCLE('',#853,0.001);
#584=CIRCLE('',#855,0.001);
#585=CIRCLE('',#857,0.001);
#586=CIRCLE('',#858,0.001);
#587=CIRCLE('',#860,0.001);
#588=CIRCLE('',#861,0.001);
#589=CIRCLE('',#863,0.001);
#590=CIRCLE('',#865,0.001);
#591=CIRCLE('',#867,0.001);
#592=CIRCLE('',#869,0.001);
#593=CIRCLE('',#871,0.001);
#594=CIRCLE('',#873,0.001);
#595=CIRCLE('',#875,0.001);
#596=CIRCLE('',#877,0.001);
#597=CIRCLE('',#879,0.001);
#598=CIRCLE('',#880,0.001);
#599=CIRCLE('',#882,0.001);
#600=CIRCLE('',#883,0.001);
#601=CIRCLE('',#885,0.001);
#602=CIRCLE('',#887,0.001);
#603=CIRCLE('',#889,0.001);
#604=CIRCLE('',#891,0.001);
#605=CIRCLE('',#893,0.001);
#606=CIRCLE('',#894,0.001);
#607=CIRCLE('',#896,0.001);
#608=CIRCLE('',#898,0.001);
#609=CIRCLE('',#900,0.001);
#610=CIRCLE('',#902,0.001);
#611=CIRCLE('',#904,0.001);
#612=CIRCLE('',#906,0.001);
#613=CIRCLE('',#908,0.001);
#614=CIRCLE('',#910,0.001);
#615=CIRCLE('',#912,0.001);
#616=CIRCLE('',#914,0.001);
#617=CIRCLE('',#916,0.001);
#618=CIRCLE('',#918,0.001);
#619=CIRCLE('',#920,0.001);
#620=EDGE_LOOP('',(#172,#173,#174,#175,#176,#177,#178,#179,#180,#181));
#621=EDGE_LOOP('',(#182,#183,#184,#185));
#622=EDGE_LOOP('',(#186,#187,#188,#189,#190,#191,#192,#193,#194,#195));
#623=EDGE_LOOP('',(#196,#197,#198,#199));
#624=EDGE_LOOP('',(#200,#201,#202,#203));
#625=EDGE_LOOP('',(#204,#205,#206,#207));
#626=EDGE_LOOP('',(#208,#209,#210,#211));
#627=EDGE_LOOP('',(#212,#213,#214,#215));
#628=EDGE_LOOP('',(#216,#217,#218,#219));
#629=EDGE_LOOP('',(#220,#221,#222,#223));
#630=EDGE_LOOP('',(#224,#225,#226,#227));
#631=EDGE_LOOP('',(#228,#229,#230,#231));
#632=EDGE_LOOP('',(#232,#233,#234,#235));
#633=EDGE_LOOP('',(#236,#237,#238,#239));
#634=EDGE_LOOP('',(#240,#241,#242,#243));
#635=EDGE_LOOP('',(#244,#245,#246,#247));
#636=EDGE_LOOP('',(#248,#249,#250,#251));
#637=EDGE_LOOP('',(#252,#253,#254,#255));
#638=EDGE_LOOP('',(#256,#257,#258,#259));
#639=EDGE_LOOP('',(#260,#261,#262,#263));
#640=EDGE_LOOP('',(#264,#265,#266,#267));
#641=EDGE_LOOP('',(#268,#269,#270,#271));
#642=EDGE_LOOP('',(#272,#273,#274,#275));
#643=EDGE_LOOP('',(#276,#277,#278,#279));
#644=EDGE_LOOP('',(#280,#281,#282,#283));
#645=EDGE_LOOP('',(#284,#285,#286));
#646=EDGE_LOOP('',(#287,#288,#289));
#647=EDGE_LOOP('',(#290,#291,#292,#293));
#648=EDGE_LOOP('',(#294,#295,#296,#297));
#649=EDGE_LOOP('',(#298,#299,#300,#301));
#650=EDGE_LOOP('',(#302,#303,#304,#305));
#651=EDGE_LOOP('',(#306,#307,#308,#309));
#652=EDGE_LOOP('',(#310,#311,#312,#313));
#653=EDGE_LOOP('',(#314,#315,#316,#317));
#654=EDGE_LOOP('',(#318,#319,#320));
#655=EDGE_LOOP('',(#321,#322,#323));
#656=EDGE_LOOP('',(#324,#325,#326));
#657=EDGE_LOOP('',(#327,#328,#329));
#658=EDGE_LOOP('',(#330,#331,#332,#333));
#659=EDGE_LOOP('',(#334,#335,#336,#337));
#660=EDGE_LOOP('',(#338,#339,#340,#341));
#661=EDGE_LOOP('',(#342,#343,#344,#345));
#662=EDGE_LOOP('',(#346,#347,#348,#349));
#663=EDGE_LOOP('',(#350,#351,#352,#353));
#664=EDGE_LOOP('',(#354,#355,#356,#357));
#665=EDGE_LOOP('',(#358,#359,#360));
#666=EDGE_LOOP('',(#361,#362,#363));
#667=EDGE_LOOP('',(#364,#365,#366));
#668=EDGE_LOOP('',(#367,#368,#369));
#669=EDGE_LOOP('',(#370,#371,#372,#373));
#670=EDGE_LOOP('',(#374,#375,#376,#377));
#671=EDGE_LOOP('',(#378,#379,#380,#381));
#672=EDGE_LOOP('',(#382,#383,#384,#385));
#673=EDGE_LOOP('',(#386,#387,#388));
#674=EDGE_LOOP('',(#389,#390,#391));
#675=EDGE_LOOP('',(#392,#393,#394,#395));
#676=FACE_BOUND('',#620,.T.);
#677=FACE_BOUND('',#621,.T.);
#678=FACE_BOUND('',#622,.T.);
#679=FACE_BOUND('',#623,.T.);
#680=FACE_BOUND('',#624,.T.);
#681=FACE_BOUND('',#625,.T.);
#682=FACE_BOUND('',#626,.T.);
#683=FACE_BOUND('',#627,.T.);
#684=FACE_BOUND('',#628,.T.);
#685=FACE_BOUND('',#629,.T.);
#686=FACE_BOUND('',#630,.T.);
#687=FACE_BOUND('',#631,.T.);
#688=FACE_BOUND('',#632,.T.);
#689=FACE_BOUND('',#633,.T.);
#690=FACE_BOUND('',#634,.T.);
#691=FACE_BOUND('',#635,.T.);
#692=FACE_BOUND('',#636,.T.);
#693=FACE_BOUND('',#637,.T.);
#694=FACE_BOUND('',#638,.T.);
#695=FACE_BOUND('',#639,.T.);
#696=FACE_BOUND('',#640,.T.);
#697=FACE_BOUND('',#641,.T.);
#698=FACE_BOUND('',#642,.T.);
#699=FACE_BOUND('',#643,.T.);
#700=FACE_BOUND('',#644,.T.);
#701=FACE_BOUND('',#645,.T.);
#702=FACE_BOUND('',#646,.T.);
#703=FACE_BOUND('',#647,.T.);
#704=FACE_BOUND('',#648,.T.);
#705=FACE_BOUND('',#649,.T.);
#706=FACE_BOUND('',#650,.T.);
#707=FACE_BOUND('',#651,.T.);
#708=FACE_BOUND('',#652,.T.);
#709=FACE_BOUND('',#653,.T.);
#710=FACE_BOUND('',#654,.T.);
#711=FACE_BOUND('',#655,.T.);
#712=FACE_BOUND('',#656,.T.);
#713=FACE_BOUND('',#657,.T.);
#714=FACE_BOUND('',#658,.T.);
#715=FACE_BOUND('',#659,.T.);
#716=FACE_BOUND('',#660,.T.);
#717=FACE_BOUND('',#661,.T.);
#718=FACE_BOUND('',#662,.T.);
#719=FACE_BOUND('',#663,.T.);
#720=FACE_BOUND('',#664,.T.);
#721=FACE_BOUND('',#665,.T.);
#722=FACE_BOUND('',#666,.T.);
#723=FACE_BOUND('',#667,.T.);
#724=FACE_BOUND('',#668,.T.);
#725=FACE_BOUND('',#669,.T.);
#726=FACE_BOUND('',#670,.T.);
#727=FACE_BOUND('',#671,.T.);
#728=FACE_BOUND('',#672,.T.);
#729=FACE_BOUND('',#673,.T.);
#730=FACE_BOUND('',#674,.T.);
#731=FACE_BOUND('',#675,.T.);
#732=PLANE('',#815);
#733=PLANE('',#818);
#734=PLANE('',#821);
#735=PLANE('',#822);
#736=PLANE('',#823);
#737=PLANE('',#824);
#738=PLANE('',#825);
#739=PLANE('',#826);
#740=PLANE('',#827);
#741=PLANE('',#828);
#742=PLANE('',#829);
#743=PLANE('',#830);
#744=PLANE('',#831);
#745=PLANE('',#832);
#746=PLANE('',#833);
#747=ADVANCED_FACE('',(#676),#732,.F.);
#748=ADVANCED_FACE('',(#677,#678),#733,.T.);
#749=ADVANCED_FACE('',(#679),#734,.F.);
#750=ADVANCED_FACE('',(#680),#735,.T.);
#751=ADVANCED_FACE('',(#681),#736,.F.);
#752=ADVANCED_FACE('',(#682),#737,.F.);
#753=ADVANCED_FACE('',(#683),#738,.T.);
#754=ADVANCED_FACE('',(#684),#739,.T.);
#755=ADVANCED_FACE('',(#685),#740,.F.);
#756=ADVANCED_FACE('',(#686),#741,.F.);
#757=ADVANCED_FACE('',(#687),#742,.T.);
#758=ADVANCED_FACE('',(#688),#743,.T.);
#759=ADVANCED_FACE('',(#689),#744,.T.);
#760=ADVANCED_FACE('',(#690),#745,.F.);
#761=ADVANCED_FACE('',(#691),#746,.T.);
#762=ADVANCED_FACE('',(#692),#28,.T.);
#763=ADVANCED_FACE('',(#693),#24,.T.);
#764=ADVANCED_FACE('',(#694),#25,.T.);
#765=ADVANCED_FACE('',(#695),#29,.F.);
#766=ADVANCED_FACE('',(#696),#30,.T.);
#767=ADVANCED_FACE('',(#697),#31,.T.);
#768=ADVANCED_FACE('',(#698),#32,.F.);
#769=ADVANCED_FACE('',(#699),#33,.T.);
#770=ADVANCED_FACE('',(#700),#26,.T.);
#771=ADVANCED_FACE('',(#701),#12,.T.);
#772=ADVANCED_FACE('',(#702),#13,.T.);
#773=ADVANCED_FACE('',(#703),#27,.T.);
#774=ADVANCED_FACE('',(#704),#34,.T.);
#775=ADVANCED_FACE('',(#705),#35,.T.);
#776=ADVANCED_FACE('',(#706),#36,.T.);
#777=ADVANCED_FACE('',(#707),#37,.T.);
#778=ADVANCED_FACE('',(#708),#38,.T.);
#779=ADVANCED_FACE('',(#709),#39,.T.);
#780=ADVANCED_FACE('',(#710),#14,.T.);
#781=ADVANCED_FACE('',(#711),#15,.T.);
#782=ADVANCED_FACE('',(#712),#16,.T.);
#783=ADVANCED_FACE('',(#713),#17,.T.);
#784=ADVANCED_FACE('',(#714),#40,.T.);
#785=ADVANCED_FACE('',(#715),#41,.T.);
#786=ADVANCED_FACE('',(#716),#42,.T.);
#787=ADVANCED_FACE('',(#717),#43,.T.);
#788=ADVANCED_FACE('',(#718),#44,.T.);
#789=ADVANCED_FACE('',(#719),#45,.T.);
#790=ADVANCED_FACE('',(#720),#46,.T.);
#791=ADVANCED_FACE('',(#721),#18,.T.);
#792=ADVANCED_FACE('',(#722),#19,.T.);
#793=ADVANCED_FACE('',(#723),#20,.T.);
#794=ADVANCED_FACE('',(#724),#21,.T.);
#795=ADVANCED_FACE('',(#725),#47,.T.);
#796=ADVANCED_FACE('',(#726),#48,.T.);
#797=ADVANCED_FACE('',(#727),#49,.T.);
#798=ADVANCED_FACE('',(#728),#50,.T.);
#799=ADVANCED_FACE('',(#729),#22,.T.);
#800=ADVANCED_FACE('',(#730),#23,.T.);
#801=ADVANCED_FACE('',(#731),#51,.T.);
#802=CLOSED_SHELL('',(#747,#748,#749,#750,#751,#752,#753,#754,#755,#756,
#757,#758,#759,#760,#761,#762,#763,#764,#765,#766,#767,#768,#769,#770,#771,
#772,#773,#774,#775,#776,#777,#778,#779,#780,#781,#782,#783,#784,#785,#786,
#787,#788,#789,#790,#791,#792,#793,#794,#795,#796,#797,#798,#799,#800,#801));
#803=STYLED_ITEM('',(#804),#811);
#804=PRESENTATION_STYLE_ASSIGNMENT((#805));
#805=SURFACE_STYLE_USAGE(.BOTH.,#806);
#806=SURFACE_SIDE_STYLE('',(#807));
#807=SURFACE_STYLE_FILL_AREA(#808);
#808=FILL_AREA_STYLE('',(#809));
#809=FILL_AREA_STYLE_COLOUR('',#810);
#810=COLOUR_RGB('',0.615686274509804,0.811764705882353,0.929411764705882);
#811=MANIFOLD_SOLID_BREP('Part 1',#802);
#812=SHAPE_DEFINITION_REPRESENTATION(#1432,#813);
#813=SHAPE_REPRESENTATION('Part 1',(#814),#1427);
#814=AXIS2_PLACEMENT_3D('',#1198,#922,#923);
#815=AXIS2_PLACEMENT_3D('',#1199,#924,#925);
#816=AXIS2_PLACEMENT_3D('',#1200,#926,#927);
#817=AXIS2_PLACEMENT_3D('',#1205,#929,#930);
#818=AXIS2_PLACEMENT_3D('',#1220,#938,#939);
#819=AXIS2_PLACEMENT_3D('',#1229,#944,#945);
#820=AXIS2_PLACEMENT_3D('',#1246,#953,#954);
#821=AXIS2_PLACEMENT_3D('',#1249,#956,#957);
#822=AXIS2_PLACEMENT_3D('',#1258,#962,#963);
#823=AXIS2_PLACEMENT_3D('',#1267,#968,#969);
#824=AXIS2_PLACEMENT_3D('',#1276,#974,#975);
#825=AXIS2_PLACEMENT_3D('',#1285,#980,#981);
#826=AXIS2_PLACEMENT_3D('',#1294,#986,#987);
#827=AXIS2_PLACEMENT_3D('',#1300,#991,#992);
#828=AXIS2_PLACEMENT_3D('',#1304,#995,#996);
#829=AXIS2_PLACEMENT_3D('',#1308,#999,#1000);
#830=AXIS2_PLACEMENT_3D('',#1310,#1002,#1003);
#831=AXIS2_PLACEMENT_3D('',#1311,#1004,#1005);
#832=AXIS2_PLACEMENT_3D('',#1320,#1010,#1011);
#833=AXIS2_PLACEMENT_3D('',#1329,#1016,#1017);
#834=AXIS2_PLACEMENT_3D('',#1338,#1022,#1023);
#835=AXIS2_PLACEMENT_3D('',#1339,#1024,#1025);
#836=AXIS2_PLACEMENT_3D('',#1340,#1026,#1027);
#837=AXIS2_PLACEMENT_3D('',#1341,#1028,#1029);
#838=AXIS2_PLACEMENT_3D('',#1342,#1030,#1031);
#839=AXIS2_PLACEMENT_3D('',#1343,#1032,#1033);
#840=AXIS2_PLACEMENT_3D('',#1344,#1034,#1035);
#841=AXIS2_PLACEMENT_3D('',#1345,#1036,#1037);
#842=AXIS2_PLACEMENT_3D('',#1346,#1038,#1039);
#843=AXIS2_PLACEMENT_3D('',#1347,#1040,#1041);
#844=AXIS2_PLACEMENT_3D('',#1348,#1042,#1043);
#845=AXIS2_PLACEMENT_3D('',#1349,#1044,#1045);
#846=AXIS2_PLACEMENT_3D('',#1350,#1046,#1047);
#847=AXIS2_PLACEMENT_3D('',#1351,#1048,#1049);
#848=AXIS2_PLACEMENT_3D('',#1352,#1050,#1051);
#849=AXIS2_PLACEMENT_3D('',#1353,#1052,#1053);
#850=AXIS2_PLACEMENT_3D('',#1354,#1054,#1055);
#851=AXIS2_PLACEMENT_3D('',#1355,#1056,#1057);
#852=AXIS2_PLACEMENT_3D('',#1356,#1058,#1059);
#853=AXIS2_PLACEMENT_3D('',#1357,#1060,#1061);
#854=AXIS2_PLACEMENT_3D('',#1358,#1062,#1063);
#855=AXIS2_PLACEMENT_3D('',#1359,#1064,#1065);
#856=AXIS2_PLACEMENT_3D('',#1360,#1066,#1067);
#857=AXIS2_PLACEMENT_3D('',#1361,#1068,#1069);
#858=AXIS2_PLACEMENT_3D('',#1362,#1070,#1071);
#859=AXIS2_PLACEMENT_3D('',#1363,#1072,#1073);
#860=AXIS2_PLACEMENT_3D('',#1364,#1074,#1075);
#861=AXIS2_PLACEMENT_3D('',#1365,#1076,#1077);
#862=AXIS2_PLACEMENT_3D('',#1366,#1078,#1079);
#863=AXIS2_PLACEMENT_3D('',#1367,#1080,#1081);
#864=AXIS2_PLACEMENT_3D('',#1368,#1082,#1083);
#865=AXIS2_PLACEMENT_3D('',#1369,#1084,#1085);
#866=AXIS2_PLACEMENT_3D('',#1370,#1086,#1087);
#867=AXIS2_PLACEMENT_3D('',#1371,#1088,#1089);
#868=AXIS2_PLACEMENT_3D('',#1372,#1090,#1091);
#869=AXIS2_PLACEMENT_3D('',#1373,#1092,#1093);
#870=AXIS2_PLACEMENT_3D('',#1374,#1094,#1095);
#871=AXIS2_PLACEMENT_3D('',#1375,#1096,#1097);
#872=AXIS2_PLACEMENT_3D('',#1376,#1098,#1099);
#873=AXIS2_PLACEMENT_3D('',#1377,#1100,#1101);
#874=AXIS2_PLACEMENT_3D('',#1378,#1102,#1103);
#875=AXIS2_PLACEMENT_3D('',#1379,#1104,#1105);
#876=AXIS2_PLACEMENT_3D('',#1380,#1106,#1107);
#877=AXIS2_PLACEMENT_3D('',#1381,#1108,#1109);
#878=AXIS2_PLACEMENT_3D('',#1382,#1110,#1111);
#879=AXIS2_PLACEMENT_3D('',#1383,#1112,#1113);
#880=AXIS2_PLACEMENT_3D('',#1384,#1114,#1115);
#881=AXIS2_PLACEMENT_3D('',#1385,#1116,#1117);
#882=AXIS2_PLACEMENT_3D('',#1386,#1118,#1119);
#883=AXIS2_PLACEMENT_3D('',#1387,#1120,#1121);
#884=AXIS2_PLACEMENT_3D('',#1388,#1122,#1123);
#885=AXIS2_PLACEMENT_3D('',#1389,#1124,#1125);
#886=AXIS2_PLACEMENT_3D('',#1390,#1126,#1127);
#887=AXIS2_PLACEMENT_3D('',#1391,#1128,#1129);
#888=AXIS2_PLACEMENT_3D('',#1392,#1130,#1131);
#889=AXIS2_PLACEMENT_3D('',#1393,#1132,#1133);
#890=AXIS2_PLACEMENT_3D('',#1394,#1134,#1135);
#891=AXIS2_PLACEMENT_3D('',#1395,#1136,#1137);
#892=AXIS2_PLACEMENT_3D('',#1396,#1138,#1139);
#893=AXIS2_PLACEMENT_3D('',#1397,#1140,#1141);
#894=AXIS2_PLACEMENT_3D('',#1398,#1142,#1143);
#895=AXIS2_PLACEMENT_3D('',#1399,#1144,#1145);
#896=AXIS2_PLACEMENT_3D('',#1400,#1146,#1147);
#897=AXIS2_PLACEMENT_3D('',#1401,#1148,#1149);
#898=AXIS2_PLACEMENT_3D('',#1402,#1150,#1151);
#899=AXIS2_PLACEMENT_3D('',#1403,#1152,#1153);
#900=AXIS2_PLACEMENT_3D('',#1404,#1154,#1155);
#901=AXIS2_PLACEMENT_3D('',#1405,#1156,#1157);
#902=AXIS2_PLACEMENT_3D('',#1406,#1158,#1159);
#903=AXIS2_PLACEMENT_3D('',#1407,#1160,#1161);
#904=AXIS2_PLACEMENT_3D('',#1408,#1162,#1163);
#905=AXIS2_PLACEMENT_3D('',#1409,#1164,#1165);
#906=AXIS2_PLACEMENT_3D('',#1410,#1166,#1167);
#907=AXIS2_PLACEMENT_3D('',#1411,#1168,#1169);
#908=AXIS2_PLACEMENT_3D('',#1412,#1170,#1171);
#909=AXIS2_PLACEMENT_3D('',#1413,#1172,#1173);
#910=AXIS2_PLACEMENT_3D('',#1414,#1174,#1175);
#911=AXIS2_PLACEMENT_3D('',#1415,#1176,#1177);
#912=AXIS2_PLACEMENT_3D('',#1416,#1178,#1179);
#913=AXIS2_PLACEMENT_3D('',#1417,#1180,#1181);
#914=AXIS2_PLACEMENT_3D('',#1418,#1182,#1183);
#915=AXIS2_PLACEMENT_3D('',#1419,#1184,#1185);
#916=AXIS2_PLACEMENT_3D('',#1420,#1186,#1187);
#917=AXIS2_PLACEMENT_3D('',#1421,#1188,#1189);
#918=AXIS2_PLACEMENT_3D('',#1422,#1190,#1191);
#919=AXIS2_PLACEMENT_3D('',#1423,#1192,#1193);
#920=AXIS2_PLACEMENT_3D('',#1424,#1194,#1195);
#921=AXIS2_PLACEMENT_3D('',#1425,#1196,#1197);
#922=DIRECTION('',(0.,0.,1.));
#923=DIRECTION('',(1.,0.,0.));
#924=DIRECTION('',(0.,0.,1.));
#925=DIRECTION('',(1.,0.,0.));
#926=DIRECTION('',(0.,0.,1.));
#927=DIRECTION('',(1.,0.,0.));
#928=DIRECTION('',(1.,0.,0.));
#929=DIRECTION('',(0.,0.,1.));
#930=DIRECTION('',(1.,0.,0.));
#931=DIRECTION('',(0.,-1.,0.));
#932=DIRECTION('',(1.,0.,0.));
#933=DIRECTION('',(-1.38777878078145E-16,-1.,0.));
#934=DIRECTION('',(1.,0.,0.));
#935=DIRECTION('',(-1.38777878078145E-16,-1.,0.));
#936=DIRECTION('',(1.,0.,0.));
#937=DIRECTION('',(0.,-1.,0.));
#938=DIRECTION('',(0.,0.,1.));
#939=DIRECTION('',(1.,0.,0.));
#940=DIRECTION('',(0.,-1.,0.));
#941=DIRECTION('',(1.,6.92504381627468E-17,0.));
#942=DIRECTION('',(0.,-1.,0.));
#943=DIRECTION('',(1.,6.92504381627468E-17,0.));
#944=DIRECTION('',(0.,0.,1.));
#945=DIRECTION('',(1.,0.,0.));
#946=DIRECTION('',(0.,-1.,0.));
#947=DIRECTION('',(1.,0.,0.));
#948=DIRECTION('',(-1.38777878078145E-16,-1.,0.));
#949=DIRECTION('',(1.,0.,0.));
#950=DIRECTION('',(-1.38777878078145E-16,-1.,0.));
#951=DIRECTION('',(1.,0.,0.));
#952=DIRECTION('',(0.,-1.,0.));
#953=DIRECTION('',(0.,0.,1.));
#954=DIRECTION('',(1.,0.,0.));
#955=DIRECTION('',(1.,0.,0.));
#956=DIRECTION('',(0.,1.,0.));
#957=DIRECTION('',(0.,0.,1.));
#958=DIRECTION('',(0.,0.,-1.));
#959=DIRECTION('',(1.,0.,0.));
#960=DIRECTION('',(0.,0.,1.));
#961=DIRECTION('',(1.,0.,0.));
#962=DIRECTION('',(0.,1.,0.));
#963=DIRECTION('',(0.,0.,1.));
#964=DIRECTION('',(0.,0.,-1.));
#965=DIRECTION('',(1.,0.,0.));
#966=DIRECTION('',(0.,0.,-1.));
#967=DIRECTION('',(1.,0.,0.));
#968=DIRECTION('',(1.,-1.38777878078145E-16,0.));
#969=DIRECTION('',(1.38777878078145E-16,1.,0.));
#970=DIRECTION('',(-1.38777878078145E-16,-1.,0.));
#971=DIRECTION('',(0.,0.,-1.));
#972=DIRECTION('',(-1.38777878078145E-16,-1.,0.));
#973=DIRECTION('',(0.,0.,-1.));
#974=DIRECTION('',(0.,1.,0.));
#975=DIRECTION('',(0.,0.,1.));
#976=DIRECTION('',(0.,0.,1.));
#977=DIRECTION('',(1.,0.,0.));
#978=DIRECTION('',(0.,0.,-1.));
#979=DIRECTION('',(1.,0.,0.));
#980=DIRECTION('',(1.,-1.38777878078145E-16,0.));
#981=DIRECTION('',(1.38777878078145E-16,1.,0.));
#982=DIRECTION('',(0.,0.,-1.));
#983=DIRECTION('',(-1.38777878078145E-16,-1.,0.));
#984=DIRECTION('',(0.,0.,-1.));
#985=DIRECTION('',(-1.38777878078145E-16,-1.,0.));
#986=DIRECTION('',(6.92504381627468E-17,-1.,0.));
#987=DIRECTION('',(1.,6.92504381627468E-17,0.));
#988=DIRECTION('',(0.,0.,1.));
#989=DIRECTION('',(1.,6.92504381627468E-17,0.));
#990=DIRECTION('',(0.,0.,1.));
#991=DIRECTION('',(-1.,0.,0.));
#992=DIRECTION('',(0.,0.,1.));
#993=DIRECTION('',(0.,0.,1.));
#994=DIRECTION('',(0.,-1.,0.));
#995=DIRECTION('',(6.92504381627468E-17,-1.,0.));
#996=DIRECTION('',(1.,6.92504381627468E-17,0.));
#997=DIRECTION('',(0.,0.,1.));
#998=DIRECTION('',(1.,6.92504381627468E-17,0.));
#999=DIRECTION('',(-1.,0.,0.));
#1000=DIRECTION('',(0.,0.,1.));
#1001=DIRECTION('',(0.,-1.,0.));
#1002=DIRECTION('',(0.,0.,1.));
#1003=DIRECTION('',(1.,0.,0.));
#1004=DIRECTION('',(0.,-1.,0.));
#1005=DIRECTION('',(0.,0.,-1.));
#1006=DIRECTION('',(0.,0.,1.));
#1007=DIRECTION('',(1.,0.,0.));
#1008=DIRECTION('',(0.,0.,1.));
#1009=DIRECTION('',(1.,0.,0.));
#1010=DIRECTION('',(-1.,0.,0.));
#1011=DIRECTION('',(0.,0.,1.));
#1012=DIRECTION('',(0.,0.,1.));
#1013=DIRECTION('',(0.,-1.,0.));
#1014=DIRECTION('',(0.,0.,1.));
#1015=DIRECTION('',(0.,-1.,0.));
#1016=DIRECTION('',(-1.,0.,0.));
#1017=DIRECTION('',(0.,0.,1.));
#1018=DIRECTION('',(0.,0.,1.));
#1019=DIRECTION('',(0.,-1.,0.));
#1020=DIRECTION('',(0.,0.,1.));
#1021=DIRECTION('',(0.,-1.,0.));
#1022=DIRECTION('',(-1.,0.,0.));
#1023=DIRECTION('',(0.,0.,1.));
#1024=DIRECTION('',(-1.,0.,0.));
#1025=DIRECTION('',(0.,0.,1.));
#1026=DIRECTION('',(1.,0.,0.));
#1027=DIRECTION('',(0.,0.,-1.));
#1028=DIRECTION('',(0.,0.,1.));
#1029=DIRECTION('',(1.,0.,0.));
#1030=DIRECTION('',(0.,0.,1.));
#1031=DIRECTION('',(1.,0.,0.));
#1032=DIRECTION('',(0.,1.,0.));
#1033=DIRECTION('',(0.,0.,1.));
#1034=DIRECTION('',(0.,0.,1.));
#1035=DIRECTION('',(1.,0.,0.));
#1036=DIRECTION('',(0.,1.,0.));
#1037=DIRECTION('',(0.,0.,1.));
#1038=DIRECTION('',(0.,0.,1.));
#1039=DIRECTION('',(1.,0.,0.));
#1040=DIRECTION('',(0.,0.,1.));
#1041=DIRECTION('',(1.,0.,0.));
#1042=DIRECTION('',(0.,0.,1.));
#1043=DIRECTION('',(1.,0.,0.));
#1044=DIRECTION('',(0.,-1.,0.));
#1045=DIRECTION('',(0.,0.,-1.));
#1046=DIRECTION('',(0.,-1.,0.));
#1047=DIRECTION('',(0.,0.,-1.));
#1048=DIRECTION('',(0.,1.,0.));
#1049=DIRECTION('',(0.,0.,1.));
#1050=DIRECTION('',(0.,-1.,0.));
#1051=DIRECTION('',(0.,0.,-1.));
#1052=DIRECTION('',(0.,0.,-1.));
#1053=DIRECTION('',(-1.,0.,0.));
#1054=DIRECTION('',(0.,0.,1.));
#1055=DIRECTION('',(1.,0.,0.));
#1056=DIRECTION('',(1.,0.,0.));
#1057=DIRECTION('',(0.,0.,-1.));
#1058=DIRECTION('',(1.,0.,0.));
#1059=DIRECTION('',(0.,0.,-1.));
#1060=DIRECTION('',(-1.,0.,0.));
#1061=DIRECTION('',(0.,0.,1.));
#1062=DIRECTION('',(0.,0.,1.));
#1063=DIRECTION('',(1.,0.,0.));
#1064=DIRECTION('',(0.,1.,0.));
#1065=DIRECTION('',(0.,0.,1.));
#1066=DIRECTION('',(1.,0.,0.));
#1067=DIRECTION('',(0.,0.,-1.));
#1068=DIRECTION('',(1.,0.,0.));
#1069=DIRECTION('',(0.,0.,-1.));
#1070=DIRECTION('',(0.,-8.67361737988403E-16,-1.));
#1071=DIRECTION('',(0.,1.,-8.67361737988403E-16));
#1072=DIRECTION('',(0.,0.,-1.));
#1073=DIRECTION('',(-1.,0.,0.));
#1074=DIRECTION('',(0.,0.,-1.));
#1075=DIRECTION('',(-1.,0.,0.));
#1076=DIRECTION('',(-1.,0.,0.));
#1077=DIRECTION('',(0.,0.,1.));
#1078=DIRECTION('',(0.,0.,1.));
#1079=DIRECTION('',(1.,0.,0.));
#1080=DIRECTION('',(0.,1.,0.));
#1081=DIRECTION('',(0.,0.,1.));
#1082=DIRECTION('',(0.,1.,0.));
#1083=DIRECTION('',(0.,0.,1.));
#1084=DIRECTION('',(0.,-1.,-6.93889390390722E-15));
#1085=DIRECTION('',(0.,6.93889390390722E-15,-1.));
#1086=DIRECTION('',(0.,0.,1.));
#1087=DIRECTION('',(1.,0.,0.));
#1088=DIRECTION('',(0.,0.,1.));
#1089=DIRECTION('',(1.,0.,0.));
#1090=DIRECTION('',(1.,0.,0.));
#1091=DIRECTION('',(0.,0.,-1.));
#1092=DIRECTION('',(-1.,-1.38777878078144E-14,0.));
#1093=DIRECTION('',(1.38777878078144E-14,-1.,0.));
#1094=DIRECTION('',(1.,0.,0.));
#1095=DIRECTION('',(0.,0.,-1.));
#1096=DIRECTION('',(1.,0.,0.));
#1097=DIRECTION('',(0.,0.,-1.));
#1098=DIRECTION('',(0.,0.,-1.));
#1099=DIRECTION('',(-1.,0.,0.));
#1100=DIRECTION('',(0.,0.,1.));
#1101=DIRECTION('',(1.,0.,0.));
#1102=DIRECTION('',(0.,-1.,0.));
#1103=DIRECTION('',(0.,0.,-1.));
#1104=DIRECTION('',(-6.93889390390722E-15,-1.,0.));
#1105=DIRECTION('',(1.,-6.93889390390722E-15,0.));
#1106=DIRECTION('',(1.,0.,0.));
#1107=DIRECTION('',(0.,0.,-1.));
#1108=DIRECTION('',(1.,0.,0.));
#1109=DIRECTION('',(0.,0.,-1.));
#1110=DIRECTION('',(0.,-1.,8.67361737988403E-16));
#1111=DIRECTION('',(0.,-8.67361737988403E-16,-1.));
#1112=DIRECTION('',(0.,-1.,0.));
#1113=DIRECTION('',(0.,0.,-1.));
#1114=DIRECTION('',(0.,0.,-1.));
#1115=DIRECTION('',(-1.,0.,0.));
#1116=DIRECTION('',(0.,0.,-1.));
#1117=DIRECTION('',(-1.,0.,0.));
#1118=DIRECTION('',(0.,-8.67361737988403E-16,-1.));
#1119=DIRECTION('',(0.,1.,-8.67361737988403E-16));
#1120=DIRECTION('',(0.,-1.,0.));
#1121=DIRECTION('',(0.,0.,-1.));
#1122=DIRECTION('',(-1.,0.,0.));
#1123=DIRECTION('',(0.,0.,1.));
#1124=DIRECTION('',(-1.,0.,0.));
#1125=DIRECTION('',(0.,0.,1.));
#1126=DIRECTION('',(-1.,0.,0.));
#1127=DIRECTION('',(0.,0.,1.));
#1128=DIRECTION('',(-1.,0.,-1.38777878078144E-14));
#1129=DIRECTION('',(-1.38777878078144E-14,0.,1.));
#1130=DIRECTION('',(0.,0.,-1.));
#1131=DIRECTION('',(-1.,0.,0.));
#1132=DIRECTION('',(0.,0.,1.));
#1133=DIRECTION('',(1.,0.,0.));
#1134=DIRECTION('',(-1.38777878078145E-16,-1.,0.));
#1135=DIRECTION('',(1.,-1.38777878078145E-16,0.));
#1136=DIRECTION('',(0.,1.,0.));
#1137=DIRECTION('',(0.,0.,1.));
#1138=DIRECTION('',(-1.,0.,0.));
#1139=DIRECTION('',(0.,0.,1.));
#1140=DIRECTION('',(1.,1.38777878078144E-14,0.));
#1141=DIRECTION('',(-1.38777878078144E-14,1.,0.));
#1142=DIRECTION('',(-1.,0.,0.));
#1143=DIRECTION('',(0.,0.,1.));
#1144=DIRECTION('',(1.38777878078145E-16,1.,0.));
#1145=DIRECTION('',(-1.,1.38777878078145E-16,0.));
#1146=DIRECTION('',(0.,1.,0.));
#1147=DIRECTION('',(0.,0.,1.));
#1148=DIRECTION('',(0.,0.,1.));
#1149=DIRECTION('',(1.,0.,0.));
#1150=DIRECTION('',(0.,0.,1.));
#1151=DIRECTION('',(1.,0.,0.));
#1152=DIRECTION('',(-1.,0.,0.));
#1153=DIRECTION('',(0.,0.,1.));
#1154=DIRECTION('',(1.,1.38777878078145E-14,0.));
#1155=DIRECTION('',(-1.38777878078145E-14,1.,0.));
#1156=DIRECTION('',(0.,-1.,0.));
#1157=DIRECTION('',(0.,0.,-1.));
#1158=DIRECTION('',(-6.93889390390732E-15,-1.,0.));
#1159=DIRECTION('',(1.,-6.93889390390732E-15,0.));
#1160=DIRECTION('',(0.,0.,-1.));
#1161=DIRECTION('',(-1.,0.,0.));
#1162=DIRECTION('',(0.,-8.67361737988403E-16,-1.));
#1163=DIRECTION('',(0.,1.,-8.67361737988403E-16));
#1164=DIRECTION('',(1.38777878078145E-14,0.,-1.));
#1165=DIRECTION('',(-1.,0.,-1.38777878078145E-14));
#1166=DIRECTION('',(0.,0.,-1.));
#1167=DIRECTION('',(-1.,0.,0.));
#1168=DIRECTION('',(0.,-1.,0.));
#1169=DIRECTION('',(0.,0.,-1.));
#1170=DIRECTION('',(0.,-1.,-6.93889390390722E-15));
#1171=DIRECTION('',(0.,6.93889390390722E-15,-1.));
#1172=DIRECTION('',(1.38777878078145E-16,1.,0.));
#1173=DIRECTION('',(-1.,1.38777878078145E-16,0.));
#1174=DIRECTION('',(0.,1.,0.));
#1175=DIRECTION('',(0.,0.,1.));
#1176=DIRECTION('',(0.,0.,1.));
#1177=DIRECTION('',(1.,0.,0.));
#1178=DIRECTION('',(0.,0.,1.));
#1179=DIRECTION('',(1.,0.,0.));
#1180=DIRECTION('',(0.,0.,-1.));
#1181=DIRECTION('',(-1.,0.,0.));
#1182=DIRECTION('',(0.,0.,1.));
#1183=DIRECTION('',(1.,0.,0.));
#1184=DIRECTION('',(-1.38777878078145E-16,-1.,0.));
#1185=DIRECTION('',(1.,-1.38777878078145E-16,0.));
#1186=DIRECTION('',(0.,1.,0.));
#1187=DIRECTION('',(0.,0.,1.));
#1188=DIRECTION('',(-1.,0.,0.));
#1189=DIRECTION('',(0.,0.,1.));
#1190=DIRECTION('',(-1.,0.,0.));
#1191=DIRECTION('',(0.,0.,1.));
#1192=DIRECTION('',(1.,0.,0.));
#1193=DIRECTION('',(0.,0.,-1.));
#1194=DIRECTION('',(1.,0.,0.));
#1195=DIRECTION('',(0.,0.,-1.));
#1196=DIRECTION('',(1.,0.,0.));
#1197=DIRECTION('',(0.,0.,-1.));
#1198=CARTESIAN_POINT('',(0.,0.,0.));
#1199=CARTESIAN_POINT('',(1.38777878078145E-17,-1.04083408558608E-17,0.));
#1200=CARTESIAN_POINT('',(0.0856635084152222,0.029,0.));
#1201=CARTESIAN_POINT('',(0.0856635084152222,0.031,0.));
#1202=CARTESIAN_POINT('',(0.0876635084152222,0.029,0.));
#1203=CARTESIAN_POINT('',(-0.0883364915847778,0.031,0.));
#1204=CARTESIAN_POINT('',(-0.0873364915847778,0.031,0.));
#1205=CARTESIAN_POINT('',(-0.0873364915847778,0.029,0.));
#1206=CARTESIAN_POINT('',(-0.0893364915847778,0.029,0.));
#1207=CARTESIAN_POINT('',(-0.0893364915847778,-1.04083408558608E-17,0.));
#1208=CARTESIAN_POINT('',(-0.0893364915847778,-0.049,0.));
#1209=CARTESIAN_POINT('',(1.38777878078145E-17,-0.049,0.));
#1210=CARTESIAN_POINT('',(-0.1015,-0.049,0.));
#1211=CARTESIAN_POINT('',(-0.1015,3.67761376907084E-18,0.));
#1212=CARTESIAN_POINT('',(-0.1015,0.049,0.));
#1213=CARTESIAN_POINT('',(0.1025,0.049,0.));
#1214=CARTESIAN_POINT('',(0.1015,0.049,0.));
#1215=CARTESIAN_POINT('',(0.1015,-0.05,0.));
#1216=CARTESIAN_POINT('',(0.1015,-0.049,0.));
#1217=CARTESIAN_POINT('',(1.38777878078145E-17,-0.049,0.));
#1218=CARTESIAN_POINT('',(0.0876635084152222,-0.049,0.));
#1219=CARTESIAN_POINT('',(0.0876635084152222,0.03,0.));
#1220=CARTESIAN_POINT('',(1.38777878078145E-17,-1.04083408558608E-17,0.025));
#1221=CARTESIAN_POINT('',(-0.1002,0.04,0.025));
#1222=CARTESIAN_POINT('',(-0.1002,0.0477,0.025));
#1223=CARTESIAN_POINT('',(-0.1002,0.0323,0.025));
#1224=CARTESIAN_POINT('',(0.,0.0477,0.025));
#1225=CARTESIAN_POINT('',(0.1002,0.0477,0.025));
#1226=CARTESIAN_POINT('',(0.1002,0.04,0.025));
#1227=CARTESIAN_POINT('',(0.1002,0.0323,0.025));
#1228=CARTESIAN_POINT('',(0.,0.0323,0.025));
#1229=CARTESIAN_POINT('',(0.0856635084152222,0.029,0.025));
#1230=CARTESIAN_POINT('',(0.0876635084152222,0.029,0.025));
#1231=CARTESIAN_POINT('',(0.0856635084152222,0.031,0.025));
#1232=CARTESIAN_POINT('',(0.0876635084152222,-1.04083408558608E-17,0.025));
#1233=CARTESIAN_POINT('',(0.0876635084152222,-0.049,0.025));
#1234=CARTESIAN_POINT('',(0.1025,-0.049,0.025));
#1235=CARTESIAN_POINT('',(0.1015,-0.049,0.025));
#1236=CARTESIAN_POINT('',(0.1015,-2.44942954807925E-17,0.025));
#1237=CARTESIAN_POINT('',(0.1015,0.049,0.025));
#1238=CARTESIAN_POINT('',(1.38777878078145E-17,0.049,0.025));
#1239=CARTESIAN_POINT('',(-0.1015,0.049,0.025));
#1240=CARTESIAN_POINT('',(-0.1015,-0.05,0.025));
#1241=CARTESIAN_POINT('',(-0.1015,-0.049,0.025));
#1242=CARTESIAN_POINT('',(-0.0883364915847778,-0.049,0.025));
#1243=CARTESIAN_POINT('',(-0.0893364915847778,-0.049,0.025));
#1244=CARTESIAN_POINT('',(-0.0893364915847778,0.03,0.025));
#1245=CARTESIAN_POINT('',(-0.0893364915847778,0.029,0.025));
#1246=CARTESIAN_POINT('',(-0.0873364915847778,0.029,0.025));
#1247=CARTESIAN_POINT('',(-0.0873364915847778,0.031,0.025));
#1248=CARTESIAN_POINT('',(1.38777878078145E-17,0.031,0.025));
#1249=CARTESIAN_POINT('',(0.,-0.05,0.025));
#1250=CARTESIAN_POINT('',(0.1015,-0.05,0.025));
#1251=CARTESIAN_POINT('',(0.1015,-0.05,0.001));
#1252=CARTESIAN_POINT('',(0.1015,-0.05,0.024));
#1253=CARTESIAN_POINT('',(0.0866635084152222,-0.05,0.024));
#1254=CARTESIAN_POINT('',(0.0876635084152222,-0.05,0.024));
#1255=CARTESIAN_POINT('',(0.0876635084152222,-0.05,0.));
#1256=CARTESIAN_POINT('',(0.0876635084152222,-0.05,0.001));
#1257=CARTESIAN_POINT('',(0.,-0.05,0.001));
#1258=CARTESIAN_POINT('',(1.38777878078145E-17,0.05,0.025));
#1259=CARTESIAN_POINT('',(-0.1015,0.05,0.025));
#1260=CARTESIAN_POINT('',(-0.1015,0.05,0.001));
#1261=CARTESIAN_POINT('',(-0.1015,0.05,0.024));
#1262=CARTESIAN_POINT('',(1.38777878078145E-17,0.05,0.024));
#1263=CARTESIAN_POINT('',(0.1015,0.05,0.024));
#1264=CARTESIAN_POINT('',(0.1015,0.05,0.025));
#1265=CARTESIAN_POINT('',(0.1015,0.05,0.001));
#1266=CARTESIAN_POINT('',(-0.1025,0.05,0.001));
#1267=CARTESIAN_POINT('',(-0.1025,-6.93889390390723E-18,0.025));
#1268=CARTESIAN_POINT('',(-0.1025,-6.93889390390723E-18,0.001));
#1269=CARTESIAN_POINT('',(-0.1025,0.049,0.001));
#1270=CARTESIAN_POINT('',(-0.1025,-0.049,0.001));
#1271=CARTESIAN_POINT('',(-0.1025,-0.049,0.025));
#1272=CARTESIAN_POINT('',(-0.1025,-0.049,0.024));
#1273=CARTESIAN_POINT('',(-0.1025,0.05,0.024));
#1274=CARTESIAN_POINT('',(-0.1025,0.049,0.024));
#1275=CARTESIAN_POINT('',(-0.1025,0.049,0.));
#1276=CARTESIAN_POINT('',(0.,-0.05,0.025));
#1277=CARTESIAN_POINT('',(-0.0893364915847778,-0.05,0.025));
#1278=CARTESIAN_POINT('',(-0.0893364915847778,-0.05,0.001));
#1279=CARTESIAN_POINT('',(-0.0893364915847778,-0.05,0.024));
#1280=CARTESIAN_POINT('',(-0.1025,-0.05,0.024));
#1281=CARTESIAN_POINT('',(-0.1015,-0.05,0.024));
#1282=CARTESIAN_POINT('',(-0.1015,-0.05,0.025));
#1283=CARTESIAN_POINT('',(-0.1015,-0.05,0.001));
#1284=CARTESIAN_POINT('',(0.,-0.05,0.001));
#1285=CARTESIAN_POINT('',(0.1025,-1.38777878078145E-17,0.025));
#1286=CARTESIAN_POINT('',(0.1025,0.049,0.025));
#1287=CARTESIAN_POINT('',(0.1025,0.049,0.001));
#1288=CARTESIAN_POINT('',(0.1025,0.049,0.024));
#1289=CARTESIAN_POINT('',(0.1025,-1.38777878078145E-17,0.024));
#1290=CARTESIAN_POINT('',(0.1025,-0.049,0.024));
#1291=CARTESIAN_POINT('',(0.1025,-0.049,0.));
#1292=CARTESIAN_POINT('',(0.1025,-0.049,0.001));
#1293=CARTESIAN_POINT('',(0.1025,0.05,0.001));
#1294=CARTESIAN_POINT('',(0.,0.0477,0.002));
#1295=CARTESIAN_POINT('',(-0.1002,0.0477,0.002));
#1296=CARTESIAN_POINT('',(-0.1002,0.0477,0.002));
#1297=CARTESIAN_POINT('',(0.,0.0477,0.002));
#1298=CARTESIAN_POINT('',(0.1002,0.0477,0.002));
#1299=CARTESIAN_POINT('',(0.1002,0.0477,0.002));
#1300=CARTESIAN_POINT('',(-0.1002,0.04,0.002));
#1301=CARTESIAN_POINT('',(-0.1002,0.0323,0.002));
#1302=CARTESIAN_POINT('',(-0.1002,0.0323,0.002));
#1303=CARTESIAN_POINT('',(-0.1002,0.04,0.002));
#1304=CARTESIAN_POINT('',(0.,0.0323,0.002));
#1305=CARTESIAN_POINT('',(0.1002,0.0323,0.002));
#1306=CARTESIAN_POINT('',(0.1002,0.0323,0.002));
#1307=CARTESIAN_POINT('',(0.,0.0323,0.002));
#1308=CARTESIAN_POINT('',(0.1002,0.04,0.002));
#1309=CARTESIAN_POINT('',(0.1002,0.04,0.002));
#1310=CARTESIAN_POINT('',(1.38777878078145E-17,-1.04083408558608E-17,0.002));
#1311=CARTESIAN_POINT('',(-0.000836491584777832,0.03,-0.0385));
#1312=CARTESIAN_POINT('',(0.0856635084152222,0.03,0.025));
#1313=CARTESIAN_POINT('',(0.0856635084152222,0.03,0.001));
#1314=CARTESIAN_POINT('',(0.0856635084152222,0.03,0.024));
#1315=CARTESIAN_POINT('',(-0.000836491584777832,0.03,0.024));
#1316=CARTESIAN_POINT('',(-0.0873364915847778,0.03,0.024));
#1317=CARTESIAN_POINT('',(-0.0873364915847778,0.03,-0.0385));
#1318=CARTESIAN_POINT('',(-0.0873364915847778,0.03,0.001));
#1319=CARTESIAN_POINT('',(0.0866635084152222,0.03,0.001));
#1320=CARTESIAN_POINT('',(-0.0883364915847778,-0.02,-0.0385));
#1321=CARTESIAN_POINT('',(-0.0883364915847778,0.029,-0.0385));
#1322=CARTESIAN_POINT('',(-0.0883364915847778,0.029,0.001));
#1323=CARTESIAN_POINT('',(-0.0883364915847778,0.029,0.024));
#1324=CARTESIAN_POINT('',(-0.0883364915847778,-0.05,0.024));
#1325=CARTESIAN_POINT('',(-0.0883364915847778,-0.049,0.024));
#1326=CARTESIAN_POINT('',(-0.0883364915847778,-0.049,-0.0385));
#1327=CARTESIAN_POINT('',(-0.0883364915847778,-0.049,0.001));
#1328=CARTESIAN_POINT('',(-0.0883364915847778,-0.02,0.001));
#1329=CARTESIAN_POINT('',(0.0866635084152222,-0.02,-0.0385));
#1330=CARTESIAN_POINT('',(0.0866635084152222,-0.049,0.025));
#1331=CARTESIAN_POINT('',(0.0866635084152222,-0.049,0.001));
#1332=CARTESIAN_POINT('',(0.0866635084152222,-0.049,0.024));
#1333=CARTESIAN_POINT('',(0.0866635084152222,-0.02,0.024));
#1334=CARTESIAN_POINT('',(0.0866635084152222,0.029,0.024));
#1335=CARTESIAN_POINT('',(0.0866635084152222,0.029,0.));
#1336=CARTESIAN_POINT('',(0.0866635084152222,0.029,0.001));
#1337=CARTESIAN_POINT('',(0.0866635084152222,-0.05,0.001));
#1338=CARTESIAN_POINT('',(-0.000836491584777832,0.031,0.001));
#1339=CARTESIAN_POINT('',(-0.0873364915847778,0.031,0.001));
#1340=CARTESIAN_POINT('',(0.0856635084152222,0.031,0.001));
#1341=CARTESIAN_POINT('',(-0.0873364915847778,0.029,0.001));
#1342=CARTESIAN_POINT('',(-0.0873364915847778,0.029,0.001));
#1343=CARTESIAN_POINT('',(-0.0893364915847778,0.029,0.001));
#1344=CARTESIAN_POINT('',(0.0856635084152222,0.029,0.001));
#1345=CARTESIAN_POINT('',(0.0876635084152222,0.029,0.001));
#1346=CARTESIAN_POINT('',(0.0856635084152222,0.029,0.001));
#1347=CARTESIAN_POINT('',(-0.0873364915847778,0.029,-0.0385));
#1348=CARTESIAN_POINT('',(-0.0873364915847778,0.029,0.024));
#1349=CARTESIAN_POINT('',(-0.0893364915847778,-1.04083408558608E-17,0.001));
#1350=CARTESIAN_POINT('',(-0.0893364915847778,-0.049,0.001));
#1351=CARTESIAN_POINT('',(0.0876635084152222,-0.02,0.001));
#1352=CARTESIAN_POINT('',(0.0876635084152222,-0.049,0.001));
#1353=CARTESIAN_POINT('',(0.0856635084152222,0.029,-0.0385));
#1354=CARTESIAN_POINT('',(0.0856635084152222,0.029,0.024));
#1355=CARTESIAN_POINT('',(1.38777878078145E-17,0.031,0.024));
#1356=CARTESIAN_POINT('',(0.0856635084152222,0.031,0.024));
#1357=CARTESIAN_POINT('',(-0.0873364915847778,0.031,0.024));
#1358=CARTESIAN_POINT('',(-0.0873364915847778,0.029,0.024));
#1359=CARTESIAN_POINT('',(-0.0893364915847778,0.029,0.024));
#1360=CARTESIAN_POINT('',(-0.0893364915847778,-0.049,0.001));
#1361=CARTESIAN_POINT('',(-0.0893364915847778,-0.049,0.001));
#1362=CARTESIAN_POINT('',(-0.0893364915847778,-0.049,0.001));
#1363=CARTESIAN_POINT('',(0.0876635084152222,-0.049,0.001));
#1364=CARTESIAN_POINT('',(0.0876635084152222,-0.049,0.001));
#1365=CARTESIAN_POINT('',(0.0876635084152222,-0.049,0.001));
#1366=CARTESIAN_POINT('',(0.0856635084152222,0.029,0.024));
#1367=CARTESIAN_POINT('',(0.0876635084152222,0.029,0.024));
#1368=CARTESIAN_POINT('',(-0.0893364915847778,-0.02,0.024));
#1369=CARTESIAN_POINT('',(-0.0893364915847778,-0.049,0.024));
#1370=CARTESIAN_POINT('',(-0.0893364915847778,-0.049,0.025));
#1371=CARTESIAN_POINT('',(-0.0893364915847778,-0.049,0.024));
#1372=CARTESIAN_POINT('',(0.,-0.049,0.001));
#1373=CARTESIAN_POINT('',(-0.1015,-0.049,0.001));
#1374=CARTESIAN_POINT('',(0.,-0.049,0.001));
#1375=CARTESIAN_POINT('',(0.1015,-0.049,0.001));
#1376=CARTESIAN_POINT('',(0.0876635084152222,-0.049,-0.0385));
#1377=CARTESIAN_POINT('',(0.0876635084152222,-0.049,0.024));
#1378=CARTESIAN_POINT('',(0.0876635084152222,-1.04083408558608E-17,0.024));
#1379=CARTESIAN_POINT('',(0.0876635084152222,-0.049,0.024));
#1380=CARTESIAN_POINT('',(-0.0893364915847778,-0.049,0.024));
#1381=CARTESIAN_POINT('',(-0.0893364915847778,-0.049,0.024));
#1382=CARTESIAN_POINT('',(-0.1015,-0.049,0.001));
#1383=CARTESIAN_POINT('',(-0.1015,-0.049,0.001));
#1384=CARTESIAN_POINT('',(-0.1015,-0.049,0.001));
#1385=CARTESIAN_POINT('',(0.1015,-0.049,0.001));
#1386=CARTESIAN_POINT('',(0.1015,-0.049,0.001));
#1387=CARTESIAN_POINT('',(0.1015,-0.049,0.001));
#1388=CARTESIAN_POINT('',(0.0876635084152222,-0.049,0.024));
#1389=CARTESIAN_POINT('',(0.0876635084152222,-0.049,0.024));
#1390=CARTESIAN_POINT('',(1.38777878078145E-17,-0.049,0.024));
#1391=CARTESIAN_POINT('',(-0.1015,-0.049,0.024));
#1392=CARTESIAN_POINT('',(-0.1015,-0.049,0.025));
#1393=CARTESIAN_POINT('',(-0.1015,-0.049,0.024));
#1394=CARTESIAN_POINT('',(-0.1015,-7.07767178198537E-18,0.001));
#1395=CARTESIAN_POINT('',(-0.1015,0.049,0.001));
#1396=CARTESIAN_POINT('',(1.38777878078145E-17,0.049,0.001));
#1397=CARTESIAN_POINT('',(0.1015,0.049,0.001));
#1398=CARTESIAN_POINT('',(-0.1015,0.049,0.001));
#1399=CARTESIAN_POINT('',(0.1015,-2.44942954807925E-17,0.001));
#1400=CARTESIAN_POINT('',(0.1015,0.049,0.001));
#1401=CARTESIAN_POINT('',(0.1015,-0.049,0.025));
#1402=CARTESIAN_POINT('',(0.1015,-0.049,0.024));
#1403=CARTESIAN_POINT('',(1.38777878078145E-17,-0.049,0.024));
#1404=CARTESIAN_POINT('',(0.1015,-0.049,0.024));
#1405=CARTESIAN_POINT('',(-0.1015,-0.049,0.024));
#1406=CARTESIAN_POINT('',(-0.1015,-0.049,0.024));
#1407=CARTESIAN_POINT('',(-0.1015,0.049,0.001));
#1408=CARTESIAN_POINT('',(-0.1015,0.049,0.001));
#1409=CARTESIAN_POINT('',(0.1015,0.049,0.001));
#1410=CARTESIAN_POINT('',(0.1015,0.049,0.001));
#1411=CARTESIAN_POINT('',(0.1015,-0.049,0.024));
#1412=CARTESIAN_POINT('',(0.1015,-0.049,0.024));
#1413=CARTESIAN_POINT('',(-0.1015,3.67761376907084E-18,0.024));
#1414=CARTESIAN_POINT('',(-0.1015,0.049,0.024));
#1415=CARTESIAN_POINT('',(-0.1015,0.049,0.025));
#1416=CARTESIAN_POINT('',(-0.1015,0.049,0.024));
#1417=CARTESIAN_POINT('',(0.1015,0.049,0.025));
#1418=CARTESIAN_POINT('',(0.1015,0.049,0.024));
#1419=CARTESIAN_POINT('',(0.1015,-1.37390099297363E-17,0.024));
#1420=CARTESIAN_POINT('',(0.1015,0.049,0.024));
#1421=CARTESIAN_POINT('',(-0.1015,0.049,0.024));
#1422=CARTESIAN_POINT('',(-0.1015,0.049,0.024));
#1423=CARTESIAN_POINT('',(0.1015,0.049,0.024));
#1424=CARTESIAN_POINT('',(0.1015,0.049,0.024));
#1425=CARTESIAN_POINT('',(1.38777878078145E-17,0.049,0.024));
#1426=MECHANICAL_DESIGN_GEOMETRIC_PRESENTATION_REPRESENTATION('',(#803),
#1427);
#1427=(
GEOMETRIC_REPRESENTATION_CONTEXT(3)
GLOBAL_UNCERTAINTY_ASSIGNED_CONTEXT((#1428))
GLOBAL_UNIT_ASSIGNED_CONTEXT((#1431,#1430,#1429))
REPRESENTATION_CONTEXT('Part 1','TOP_LEVEL_ASSEMBLY_PART')
);
#1428=UNCERTAINTY_MEASURE_WITH_UNIT(LENGTH_MEASURE(1.E-8),#1431,
'DISTANCE_ACCURACY_VALUE','Maximum Tolerance applied to model');
#1429=(
NAMED_UNIT(*)
SI_UNIT($,.STERADIAN.)
SOLID_ANGLE_UNIT()
);
#1430=(
NAMED_UNIT(*)
PLANE_ANGLE_UNIT()
SI_UNIT($,.RADIAN.)
);
#1431=(
LENGTH_UNIT()
NAMED_UNIT(*)
SI_UNIT($,.METRE.)
);
#1432=PRODUCT_DEFINITION_SHAPE('','',#1433);
#1433=PRODUCT_DEFINITION('','',#1435,#1434);
#1434=PRODUCT_DEFINITION_CONTEXT('',#1441,'design');
#1435=PRODUCT_DEFINITION_FORMATION_WITH_SPECIFIED_SOURCE('','',#1437,
 .NOT_KNOWN.);
#1436=PRODUCT_RELATED_PRODUCT_CATEGORY('','',(#1437));
#1437=PRODUCT('Part 1','Part 1','Part 1',(#1439));
#1438=PRODUCT_CATEGORY('','');
#1439=PRODUCT_CONTEXT('',#1441,'mechanical');
#1440=APPLICATION_PROTOCOL_DEFINITION('international standard',
'ap242_managed_model_based_3d_engineering',2020,#1441);
#1441=APPLICATION_CONTEXT('managed model based 3d engineering');
ENDSEC;
END-ISO-10303-21;
